<?xml version="1.0" encoding="UTF-8" standalone="no"?>
<!-- Created with Inkscape (http://www.inkscape.org/) -->

<svg
   xmlns:dc="http://purl.org/dc/elements/1.1/"
   xmlns:cc="http://creativecommons.org/ns#"
   xmlns:rdf="http://www.w3.org/1999/02/22-rdf-syntax-ns#"
   xmlns:svg="http://www.w3.org/2000/svg"
   xmlns="http://www.w3.org/2000/svg"
   xmlns:sodipodi="http://sodipodi.sourceforge.net/DTD/sodipodi-0.dtd"
   xmlns:inkscape="http://www.inkscape.org/namespaces/inkscape"
   width="78mm"
   height="12mm"
   viewBox="0 0 276.37795 42.519684"
   id="svg4351"
   version="1.1"
   inkscape:version="0.91 r13725"
   sodipodi:docname="bandImage1.svg">
  <defs
     id="defs4353" />
  <sodipodi:namedview
     id="base"
     pagecolor="#ffffff"
     bordercolor="#666666"
     borderopacity="1.0"
     inkscape:pageopacity="0.0"
     inkscape:pageshadow="2"
     inkscape:zoom="1.4"
     inkscape:cx="109.80829"
     inkscape:cy="-14.574298"
     inkscape:document-units="px"
     inkscape:current-layer="layer1"
     showgrid="false"
     fit-margin-top="0"
     fit-margin-left="0"
     fit-margin-right="0"
     fit-margin-bottom="0"
     inkscape:window-width="1366"
     inkscape:window-height="705"
     inkscape:window-x="-8"
     inkscape:window-y="-8"
     inkscape:window-maximized="1" />
  <metadata
     id="metadata4356">
    <rdf:RDF>
      <cc:Work
         rdf:about="">
        <dc:format>image/svg+xml</dc:format>
        <dc:type
           rdf:resource="http://purl.org/dc/dcmitype/StillImage" />
        <dc:title></dc:title>
      </cc:Work>
    </rdf:RDF>
  </metadata>
  <g
     inkscape:label="Layer 1"
     inkscape:groupmode="layer"
     id="layer1"
     transform="translate(-267.45,-406.69251)">
    <g
       id="g5161"
       transform="translate(5.6389764,-4.4098475)"
       inkscape:export-xdpi="150.117"
       inkscape:export-ydpi="150.117">
      <g
         id="g5"
         transform="translate(176.45,397.6122)">
        <path
           id="path7"
           d="m 117.6,21.8 2,0 c 0.8,0 1.4,-0.6 1.4,-1.4 l 0,-1.1 c 0,-0.8 -0.6,-1.4 -1.4,-1.4 l -27.2,0 c -0.8,0 -1.4,0.6 -1.4,1.4 l 0,1.1 c 0,0.8 0.6,1.4 1.4,1.4 l 2,0 c 0.1,5.2 2.2,10 5.5,12.8 -3.3,2.8 -5.4,7.7 -5.5,13.2 l -2,0 c -0.8,0 -1.4,0.6 -1.4,1.4 l 0,1 c 0,0.8 0.6,1.4 1.4,1.4 l 27.2,0 c 0.8,0 1.4,-0.6 1.4,-1.4 l 0,-1 c 0,-0.8 -0.6,-1.4 -1.4,-1.4 l -2,0 c -0.1,-5.4 -2.2,-10.3 -5.5,-13.2 3.3,-2.8 5.4,-7.6 5.5,-12.8 l 0,0 z m -9.1,13.9 0.5,0.3 c 3.6,1.8 6,6.4 6.1,11.7 l -18.2,0 C 97,42.4 99.4,37.8 103,36 l 0.5,-0.3 c 0.5,-0.2 0.7,-0.7 0.7,-1.2 0,-0.5 -0.3,-1 -0.7,-1.2 L 103,33 C 99.5,31.3 97.1,26.8 96.9,21.7 l 18.1,0 c -0.2,5.1 -2.6,9.6 -6.1,11.3 l -0.5,0.3 c -0.5,0.2 -0.7,0.7 -0.7,1.2 0,0.6 0.3,1 0.8,1.2 l 0,0 z m 0,0"
           inkscape:connector-curvature="0"
           style="fill:#414042" />
        <path
           id="path9"
           d="m 100.2,46.4 12.3,0 c -0.4,-3 -3,-5.4 -6.1,-5.4 -3.2,0 -5.7,2.4 -6.2,5.4 l 0,0 z m 0,0"
           inkscape:connector-curvature="0"
           style="fill:#414042" />
        <path
           id="path11"
           d="m 110.6,30.3 -9.2,0 c 1.1,1.3 2.8,2.1 4.6,2.1 1.8,0 3.4,-0.9 4.6,-2.1 l 0,0 z m 0,0"
           inkscape:connector-curvature="0"
           style="fill:#414042" />
      </g>
      <g
         id="g13"
         transform="translate(176.45,397.6122)">
        <path
           id="path15"
           d="m 133.3,28.7 0.5,-0.6 c 1.2,1.1 2.3,1.6 4,1.6 1.7,0 2.8,-0.9 2.8,-2.2 l 0,0 c 0,-1.2 -0.6,-1.9 -3.1,-2.4 -2.7,-0.5 -3.7,-1.4 -3.7,-3.1 l 0,0 c 0,-1.6 1.5,-2.9 3.6,-2.9 1.6,0 2.7,0.4 3.8,1.3 l -0.5,0.6 c -1,-0.9 -2.1,-1.3 -3.3,-1.3 -1.6,0 -2.7,0.9 -2.7,2.1 l 0,0 c 0,1.2 0.6,1.9 3.2,2.4 2.6,0.5 3.6,1.4 3.6,3.1 l 0,0 c 0,1.8 -1.5,3 -3.7,3 -1.8,0.1 -3.1,-0.5 -4.5,-1.6 z"
           inkscape:connector-curvature="0"
           style="fill:#414042" />
        <path
           id="path17"
           d="m 144.4,28.2 0,-5.3 -1.2,0 0,-0.7 1.2,0 0,-2.6 0.8,0 0,2.6 2.8,0 0,0.7 -2.8,0 0,5.2 c 0,1.2 0.7,1.6 1.6,1.6 0.4,0 0.7,-0.1 1.2,-0.3 l 0,0.7 c -0.4,0.2 -0.8,0.3 -1.3,0.3 -1.3,0 -2.3,-0.7 -2.3,-2.2 z"
           inkscape:connector-curvature="0"
           style="fill:#414042" />
        <path
           id="path19"
           d="m 149.6,27.9 0,0 c 0,-1.7 1.4,-2.7 3.5,-2.7 1.1,0 1.9,0.1 2.7,0.3 l 0,-0.3 c 0,-1.6 -1,-2.5 -2.7,-2.5 -1,0 -1.8,0.3 -2.5,0.7 l -0.3,-0.7 c 0.9,-0.4 1.8,-0.7 2.9,-0.7 1.1,0 2,0.3 2.6,0.9 0.5,0.5 0.8,1.3 0.8,2.3 l 0,5 -0.8,0 0,-1.3 c -0.6,0.8 -1.6,1.5 -3.1,1.5 -1.5,0.1 -3.1,-0.8 -3.1,-2.5 z m 6.3,-0.7 0,-0.9 c -0.7,-0.2 -1.6,-0.4 -2.7,-0.4 -1.7,0 -2.7,0.8 -2.7,1.9 l 0,0 c 0,1.2 1.1,1.9 2.3,1.9 1.6,0 3.1,-1 3.1,-2.5 z"
           inkscape:connector-curvature="0"
           style="fill:#414042" />
        <path
           id="path21"
           d="m 159.4,22.2 0.8,0 0,2.3 c 0.6,-1.4 2,-2.5 3.6,-2.4 l 0,0.9 -0.1,0 c -1.9,0 -3.5,1.4 -3.5,4 l 0,3.3 -0.8,0 0,-8.1 z"
           inkscape:connector-curvature="0"
           style="fill:#414042" />
        <path
           id="path23"
           d="m 166.2,28.2 0,-5.3 -1.2,0 0,-0.7 1.2,0 0,-2.6 0.8,0 0,2.6 2.8,0 0,0.7 -2.8,0 0,5.2 c 0,1.2 0.7,1.6 1.6,1.6 0.4,0 0.7,-0.1 1.2,-0.3 l 0,0.7 c -0.4,0.2 -0.8,0.3 -1.3,0.3 -1.3,0 -2.3,-0.7 -2.3,-2.2 z"
           inkscape:connector-curvature="0"
           style="fill:#414042" />
        <path
           id="path25"
           d="m 176.2,27.9 0,0 c 0,-1.7 1.4,-2.7 3.5,-2.7 1.1,0 1.9,0.1 2.7,0.3 l 0,-0.3 c 0,-1.6 -1,-2.5 -2.7,-2.5 -1,0 -1.8,0.3 -2.5,0.7 l -0.3,-0.7 c 0.9,-0.4 1.8,-0.7 2.9,-0.7 1.1,0 2,0.3 2.6,0.9 0.5,0.5 0.8,1.3 0.8,2.3 l 0,5 -0.8,0 0,-1.3 c -0.6,0.8 -1.6,1.5 -3.1,1.5 -1.5,0.1 -3.1,-0.8 -3.1,-2.5 z m 6.2,-0.7 0,-0.9 c -0.7,-0.2 -1.6,-0.4 -2.7,-0.4 -1.7,0 -2.7,0.8 -2.7,1.9 l 0,0 c 0,1.2 1.1,1.9 2.3,1.9 1.7,0 3.1,-1 3.1,-2.5 z"
           inkscape:connector-curvature="0"
           style="fill:#414042" />
        <path
           id="path27"
           d="m 185.9,22.2 0.8,0 0,1.5 c 0.5,-1 1.4,-1.7 2.9,-1.7 2,0 3.2,1.4 3.2,3.3 l 0,4.9 -0.8,0 0,-4.8 c 0,-1.7 -0.9,-2.8 -2.6,-2.8 -1.6,0 -2.8,1.2 -2.8,2.9 l 0,4.7 -0.8,0 0,-8 z"
           inkscape:connector-curvature="0"
           style="fill:#414042" />
        <path
           id="path29"
           d="m 204.8,19.1 0.8,0 5.2,11.2 -0.9,0 -1.4,-3.1 -6.5,0 -1.4,3.1 -0.9,0 5.1,-11.2 z m 3.3,7.3 -2.9,-6.4 -2.9,6.4 5.8,0 z"
           inkscape:connector-curvature="0"
           style="fill:#414042" />
        <path
           id="path31"
           d="m 213.1,22.9 -1.2,0 0,-0.7 1.2,0 0,-0.8 c 0,-0.9 0.3,-1.6 0.7,-2.1 0.4,-0.4 1,-0.6 1.7,-0.6 0.5,0 0.8,0.1 1.2,0.2 l 0,0.7 c -0.5,-0.1 -0.8,-0.2 -1.2,-0.2 -1.1,0 -1.6,0.7 -1.6,2 l 0,0.8 2.8,0 0,0.7 -2.8,0 0,7.4 -0.8,0 0,-7.4 z m 5.7,0 -1.2,0 0,-0.7 1.2,0 0,-0.8 c 0,-0.9 0.3,-1.6 0.7,-2.1 0.4,-0.4 1,-0.6 1.7,-0.6 0.5,0 0.8,0.1 1.2,0.2 l 0,0.7 c -0.5,-0.1 -0.8,-0.2 -1.2,-0.2 -1.1,0 -1.6,0.7 -1.6,2 l 0,0.8 2.8,0 0,0.7 -2.8,0 0,7.4 -0.8,0 0,-7.4 z"
           inkscape:connector-curvature="0"
           style="fill:#414042" />
        <path
           id="path33"
           d="m 223.2,27.9 0,0 c 0,-1.7 1.4,-2.7 3.5,-2.7 1.1,0 1.9,0.1 2.7,0.3 l 0,-0.3 c 0,-1.6 -1,-2.5 -2.7,-2.5 -1,0 -1.8,0.3 -2.5,0.7 l -0.3,-0.7 c 0.9,-0.4 1.8,-0.7 2.9,-0.7 1.1,0 2,0.3 2.6,0.9 0.5,0.5 0.8,1.3 0.8,2.3 l 0,5 -0.8,0 0,-1.3 c -0.6,0.8 -1.6,1.5 -3.1,1.5 -1.5,0.1 -3.1,-0.8 -3.1,-2.5 z m 6.2,-0.7 0,-0.9 c -0.7,-0.2 -1.6,-0.4 -2.7,-0.4 -1.7,0 -2.7,0.8 -2.7,1.9 l 0,0 c 0,1.2 1.1,1.9 2.3,1.9 1.7,0 3.1,-1 3.1,-2.5 z"
           inkscape:connector-curvature="0"
           style="fill:#414042" />
        <path
           id="path35"
           d="m 233,19 1,0 0,1.1 -1,0 0,-1.1 z m 0.1,3.2 0.8,0 0,8.1 -0.8,0 0,-8.1 z"
           inkscape:connector-curvature="0"
           style="fill:#414042" />
        <path
           id="path37"
           d="m 236.9,22.2 0.8,0 0,2.3 c 0.6,-1.4 2,-2.5 3.6,-2.4 l 0,0.9 -0.1,0 c -1.9,0 -3.5,1.4 -3.5,4 l 0,3.3 -0.8,0 0,-8.1 z"
           inkscape:connector-curvature="0"
           style="fill:#414042" />
        <path
           id="path39"
           d="m 248,22.2 0.8,0 0,1.5 c 0.5,-1 1.4,-1.7 2.9,-1.7 2,0 3.2,1.4 3.2,3.3 l 0,4.9 -0.8,0 0,-4.8 c 0,-1.7 -0.9,-2.8 -2.6,-2.8 -1.6,0 -2.8,1.2 -2.8,2.9 l 0,4.7 -0.7,0 0,-8 z"
           inkscape:connector-curvature="0"
           style="fill:#414042" />
        <path
           id="path41"
           d="m 257.2,26.3 0,0 c 0,-2.3 1.8,-4.3 4.2,-4.3 2.4,0 4.1,1.9 4.1,4.2 l 0,0 c 0,2.3 -1.8,4.2 -4.2,4.2 -2.4,0.1 -4.1,-1.9 -4.1,-4.1 z m 7.5,0 0,0 c 0,-2 -1.5,-3.5 -3.3,-3.5 -1.9,0 -3.3,1.6 -3.3,3.5 l 0,0 c 0,2 1.5,3.5 3.3,3.5 1.9,-0.1 3.3,-1.6 3.3,-3.5 z"
           inkscape:connector-curvature="0"
           style="fill:#414042" />
        <path
           id="path43"
           d="m 266.8,22.2 0.9,0 2.4,7.1 2.4,-7.1 0.6,0 2.4,7.1 2.4,-7.1 0.8,0 -3,8.1 -0.7,0 -2.4,-6.9 -2.4,6.9 -0.7,0 -2.7,-8.1 z"
           inkscape:connector-curvature="0"
           style="fill:#414042" />
      </g>
      <g
         id="g45"
         transform="translate(176.45,397.6122)">
        <path
           id="path47"
           d="m 133,38.5 4.1,0 0,1.3 c 0.6,-0.8 1.6,-1.6 3,-1.6 1.3,0 2.4,0.6 2.9,1.6 0.8,-0.9 1.8,-1.6 3.4,-1.6 2.1,0 3.4,1.4 3.4,3.6 l 0,6.6 -4.1,0 0,-5.3 c 0,-0.8 -0.5,-1.3 -1.1,-1.3 -0.6,0 -1.1,0.5 -1.1,1.3 l 0,5.3 -4.1,0 0,-5.3 c 0,-0.8 -0.5,-1.3 -1.1,-1.3 -0.6,0 -1.1,0.5 -1.1,1.3 l 0,5.3 -4.2,0 0,-9.9 z"
           inkscape:connector-curvature="0"
           style="fill:#414042" />
        <path
           id="path49"
           d="m 157.8,38.5 4.2,0 -3.4,9.3 c -1,2.6 -2,3.7 -4.3,3.7 -1.4,0 -2.7,-0.4 -3.8,-1 l 1.2,-2.8 c 0.7,0.4 1.4,0.7 1.8,0.7 0.2,0 0.5,0 0.7,-0.1 l -3.9,-9.6 4.3,0 1.7,5.2 1.5,-5.4 z"
           inkscape:connector-curvature="0"
           style="fill:#414042" />
        <path
           id="path51"
           d="m 161.7,45.6 0,0 c 0,-2 1.5,-3.1 3.8,-3.1 0.8,0 1.9,0.2 2.4,0.4 l 0,-0.2 c 0,-0.9 -0.6,-1.4 -1.8,-1.4 -1,0 -1.9,0.2 -2.8,0.6 l -0.7,-2.8 c 1.1,-0.4 2.5,-0.7 4.2,-0.7 2,0 3.3,0.4 4.2,1.3 0.7,0.7 1,1.7 1,3.2 l 0,5.7 -4.1,0 0,-1 c -0.7,0.7 -1.6,1.2 -2.9,1.2 -2,-0.2 -3.3,-1.3 -3.3,-3.2 z m 6.1,-0.9 0,-0.4 c -0.2,-0.1 -0.6,-0.2 -0.9,-0.2 -0.8,0 -1.3,0.5 -1.3,1.1 l 0,0 c 0,0.6 0.4,1 0.9,1 0.8,0.1 1.3,-0.5 1.3,-1.5 z"
           inkscape:connector-curvature="0"
           style="fill:#414042" />
        <path
           id="path53"
           d="m 173.9,41.6 -1.2,0 0,-3.2 1.2,0 c 0,-1.1 0.3,-1.9 0.9,-2.5 0.7,-0.7 1.5,-0.9 2.9,-0.9 1.2,0 2,0.1 2.5,0.3 l 0,2.6 c -0.4,-0.1 -0.8,-0.1 -1.3,-0.1 -0.6,0 -1,0.3 -1,0.8 l 0,0.1 2.3,0 0,3.1 -2.2,0 0,6.8 -4.1,0 0,-7 z m 7.7,0 -1.2,0 0,-3.1 1.2,0 c 0,-1.1 0.3,-2 0.9,-2.6 0.7,-0.7 1.5,-0.9 2.9,-0.9 1.2,0 2,0.1 2.5,0.3 l 0,2.6 c -0.4,-0.1 -0.8,-0.1 -1.3,-0.1 -0.6,0 -1,0.3 -1,0.8 l 0,0.1 2.3,0 0,3.1 -2.2,0 0,6.8 -4.1,0 0,-7 z"
           inkscape:connector-curvature="0"
           style="fill:#414042" />
        <path
           id="path55"
           d="m 188,45.6 0,0 c 0,-2 1.5,-3.1 3.8,-3.1 0.8,0 1.9,0.2 2.4,0.4 l 0,-0.2 c 0,-0.9 -0.6,-1.4 -1.8,-1.4 -1,0 -1.9,0.2 -2.8,0.6 l -0.7,-2.8 c 1.1,-0.4 2.5,-0.7 4.2,-0.7 2,0 3.3,0.4 4.2,1.3 0.7,0.7 1,1.7 1,3.2 l 0,5.7 -4.1,0 0,-1 c -0.7,0.7 -1.6,1.2 -2.9,1.2 -2,-0.2 -3.3,-1.3 -3.3,-3.2 z m 6.1,-0.9 0,-0.4 c -0.2,-0.1 -0.6,-0.2 -0.9,-0.2 -0.8,0 -1.3,0.5 -1.3,1.1 l 0,0 c 0,0.6 0.4,1 0.9,1 0.8,0.1 1.3,-0.5 1.3,-1.5 z"
           inkscape:connector-curvature="0"
           style="fill:#414042" />
        <path
           id="path57"
           d="m 199.3,35.1 4.3,0 0,2.6 -4.3,0 0,-2.6 z m 0.1,3.4 4.1,0 0,9.9 -4.1,0 0,-9.9 z"
           inkscape:connector-curvature="0"
           style="fill:#414042" />
        <path
           id="path59"
           d="m 204.8,38.5 4.1,0 0,2 c 0.6,-1.3 1.5,-2.2 3.1,-2.2 l 0,4.4 -0.4,0 c -1.7,0 -2.7,1 -2.7,3.2 l 0,2.5 -4.1,0 0,-9.9 z"
           inkscape:connector-curvature="0"
           style="fill:#414042" />
        <path
           id="path61"
           d="m 212.9,43.4 c 0,-4.4 3.4,-8 8.2,-8 4.6,0 7.8,3.2 7.8,7 0,3.5 -2.2,5.2 -4.1,5.2 -1.6,0 -2.4,-0.7 -2.8,-1.7 -0.7,1 -1.6,1.6 -2.7,1.6 -1.9,0 -3.3,-1.5 -3.3,-3.8 0,-2.6 1.8,-4.9 4,-4.9 1.1,0 1.9,0.7 2.4,1.4 l 0.2,-1.2 3.5,0.5 -0.8,4.5 c -0.1,0.3 -0.1,0.6 -0.1,1 0,0.6 0.4,1 1,1 1.1,0 2,-1.3 2,-3.7 0,-3.4 -2.8,-6.2 -7,-6.2 -4.4,0 -7.4,3.2 -7.4,7.3 0,4.1 3,7.2 7.4,7.2 1.8,0 3.1,-0.4 4.5,-1.2 l 0.4,0.6 c -1.4,0.9 -2.9,1.4 -4.8,1.4 -5.1,0 -8.4,-3.6 -8.4,-8 z m 8.3,0.6 c 0.3,-0.3 0.5,-0.7 0.5,-1.2 0,-0.7 -0.4,-1.1 -1,-1.1 -0.3,0 -0.7,0.1 -0.9,0.4 -0.3,0.3 -0.5,0.7 -0.5,1.2 0,0.7 0.4,1.1 1,1.1 0.4,0 0.7,-0.1 0.9,-0.4 z"
           inkscape:connector-curvature="0"
           style="fill:#414042" />
        <path
           id="path63"
           d="m 234.2,47.3 0,1.1 -4.1,0 0,-13.3 4.1,0 0,4.6 c 0.7,-0.7 1.4,-1.5 3,-1.5 2.4,0 4.3,2.1 4.3,5.1 l 0,0 c 0,3.2 -1.9,5.2 -4.2,5.2 -1.6,0.1 -2.4,-0.5 -3.1,-1.2 z m 3.3,-3.9 0,0 c 0,-1 -0.7,-1.8 -1.7,-1.8 -0.9,0 -1.7,0.8 -1.7,1.8 l 0,0 c 0,1 0.7,1.8 1.7,1.8 0.9,0 1.7,-0.8 1.7,-1.8 z"
           inkscape:connector-curvature="0"
           style="fill:#414042" />
        <path
           id="path65"
           d="m 242.4,38.5 4.1,0 0,2 c 0.6,-1.3 1.5,-2.2 3.1,-2.2 l 0,4.4 -0.4,0 c -1.7,0 -2.7,1 -2.7,3.2 l 0,2.5 -4.1,0 0,-9.9 z"
           inkscape:connector-curvature="0"
           style="fill:#414042" />
        <path
           id="path67"
           d="m 249.5,45.6 0,0 c 0,-2 1.5,-3.1 3.8,-3.1 0.8,0 1.9,0.2 2.4,0.4 l 0,-0.2 c 0,-0.9 -0.6,-1.4 -1.8,-1.4 -1,0 -1.9,0.2 -2.8,0.6 l -0.7,-2.8 c 1.1,-0.4 2.5,-0.7 4.2,-0.7 2,0 3.3,0.4 4.2,1.3 0.7,0.7 1,1.7 1,3.2 l 0,5.7 -4.1,0 0,-1 c -0.7,0.7 -1.6,1.2 -2.9,1.2 -1.9,-0.2 -3.3,-1.3 -3.3,-3.2 z m 6.2,-0.9 0,-0.4 c -0.2,-0.1 -0.6,-0.2 -0.9,-0.2 -0.8,0 -1.3,0.5 -1.3,1.1 l 0,0 c 0,0.6 0.4,1 0.9,1 0.8,0.1 1.3,-0.5 1.3,-1.5 z"
           inkscape:connector-curvature="0"
           style="fill:#414042" />
        <path
           id="path69"
           d="m 261,38.5 4.1,0 0,1.4 c 0.6,-0.8 1.6,-1.6 3,-1.6 2.1,0 3.4,1.4 3.4,3.6 l 0,6.6 -4.1,0 0,-5.2 c 0,-0.9 -0.5,-1.3 -1.1,-1.3 -0.6,0 -1.2,0.5 -1.2,1.3 l 0,5.2 -4.1,0 0,-10 z"
           inkscape:connector-curvature="0"
           style="fill:#414042" />
        <path
           id="path71"
           d="m 272.4,43.5 0,0 c 0,-3.2 1.9,-5.3 4.2,-5.3 1.5,0 2.4,0.7 3,1.4 l 0,-4.5 4.1,0 0,13.3 -4.1,0 0,-1.2 c -0.7,0.7 -1.4,1.5 -3,1.5 -2.3,-0.1 -4.2,-2.2 -4.2,-5.2 z m 7.3,-0.1 0,0 c 0,-1 -0.7,-1.8 -1.7,-1.8 -1,0 -1.7,0.8 -1.7,1.8 l 0,0 c 0,1 0.7,1.8 1.7,1.8 1,0 1.7,-0.8 1.7,-1.8 z"
           inkscape:connector-curvature="0"
           style="fill:#414042" />
        <path
           id="path73"
           d="m 284.6,45.6 0,0 c 0,-2 1.5,-3.1 3.8,-3.1 0.8,0 1.9,0.2 2.4,0.4 l 0,-0.2 c 0,-0.9 -0.6,-1.4 -1.8,-1.4 -1,0 -1.9,0.2 -2.8,0.6 l -0.7,-2.8 c 1.1,-0.4 2.5,-0.7 4.2,-0.7 2,0 3.3,0.4 4.2,1.3 0.7,0.7 1,1.7 1,3.2 l 0,5.7 -4.1,0 0,-1 c -0.7,0.7 -1.6,1.2 -2.9,1.2 -1.9,-0.2 -3.3,-1.3 -3.3,-3.2 z m 6.2,-0.9 0,-0.4 c -0.2,-0.1 -0.6,-0.2 -0.9,-0.2 -0.8,0 -1.3,0.5 -1.3,1.1 l 0,0 c 0,0.6 0.4,1 0.9,1 0.8,0.1 1.3,-0.5 1.3,-1.5 z"
           inkscape:connector-curvature="0"
           style="fill:#414042" />
        <path
           id="path75"
           d="m 296.8,41.6 -1.2,0 0,-3.2 1.2,0 c 0,-1.1 0.3,-1.9 0.9,-2.5 0.7,-0.7 1.5,-0.9 2.9,-0.9 1.2,0 2,0.1 2.5,0.3 l 0,2.6 c -0.4,-0.1 -0.8,-0.1 -1.3,-0.1 -0.6,0 -1,0.3 -1,0.8 l 0,0.1 2.3,0 0,3.1 -2.1,0 0,6.8 -4.1,0 0,-7 z m 7.8,0 -1.2,0 0,-3.1 1.2,0 c 0,-1.1 0.3,-2 0.9,-2.6 0.7,-0.7 1.5,-0.9 2.9,-0.9 1.2,0 2,0.1 2.5,0.3 l 0,2.6 c -0.4,-0.1 -0.8,-0.1 -1.3,-0.1 -0.6,0 -1,0.3 -1,0.8 l 0,0.1 2.3,0 0,3.1 -2.2,0 0,6.8 -4.1,0 0,-7 z"
           inkscape:connector-curvature="0"
           style="fill:#414042" />
        <path
           id="path77"
           d="m 310.9,45.6 0,0 c 0,-2 1.5,-3.1 3.8,-3.1 0.8,0 1.9,0.2 2.4,0.4 l 0,-0.2 c 0,-0.9 -0.6,-1.4 -1.8,-1.4 -1,0 -1.9,0.2 -2.8,0.6 l -0.7,-2.8 c 1.1,-0.4 2.5,-0.7 4.2,-0.7 2,0 3.3,0.4 4.2,1.3 0.7,0.7 1,1.7 1,3.2 l 0,5.7 -4.1,0 0,-1 c -0.7,0.7 -1.6,1.2 -2.9,1.2 -1.9,-0.2 -3.3,-1.3 -3.3,-3.2 z m 6.2,-0.9 0,-0.4 c -0.2,-0.1 -0.6,-0.2 -0.9,-0.2 -0.8,0 -1.3,0.5 -1.3,1.1 l 0,0 c 0,0.6 0.4,1 0.9,1 0.8,0.1 1.3,-0.5 1.3,-1.5 z"
           inkscape:connector-curvature="0"
           style="fill:#414042" />
        <path
           id="path79"
           d="m 322.3,35.1 4.3,0 0,2.6 -4.3,0 0,-2.6 z m 0.1,3.4 4.1,0 0,9.9 -4.1,0 0,-9.9 z"
           inkscape:connector-curvature="0"
           style="fill:#414042" />
        <path
           id="path81"
           d="m 327.8,38.5 4.1,0 0,2 c 0.6,-1.3 1.5,-2.2 3.1,-2.2 l 0,4.4 -0.4,0 c -1.7,0 -2.7,1 -2.7,3.2 l 0,2.5 -4.1,0 0,-9.9 z"
           inkscape:connector-curvature="0"
           style="fill:#414042" />
        <path
           id="path83"
           d="m 334.9,44.2 4.2,0 0,4.2 -4.2,0 0,-4.2 z"
           inkscape:connector-curvature="0"
           style="fill:#414042" />
        <path
           id="path85"
           d="m 340.1,35.1 4.3,0 0,2.6 -4.3,0 0,-2.6 z m 0.1,3.4 4.1,0 0,9.9 -4.1,0 0,-9.9 z"
           inkscape:connector-curvature="0"
           style="fill:#414042" />
        <path
           id="path87"
           d="m 345.6,38.5 4.1,0 0,1.4 c 0.6,-0.8 1.6,-1.6 3,-1.6 2.1,0 3.4,1.4 3.4,3.6 l 0,6.6 -4.1,0 0,-5.2 c 0,-0.9 -0.5,-1.3 -1.1,-1.3 -0.6,0 -1.2,0.5 -1.2,1.3 l 0,5.2 -4.1,0 0,-10 z"
           inkscape:connector-curvature="0"
           style="fill:#414042" />
      </g>
    </g>
  </g>
</svg>
