<?xml version="1.0" encoding="UTF-8" standalone="no"?>
<!-- Created with Inkscape (http://www.inkscape.org/) -->

<svg
   xmlns:dc="http://purl.org/dc/elements/1.1/"
   xmlns:cc="http://creativecommons.org/ns#"
   xmlns:rdf="http://www.w3.org/1999/02/22-rdf-syntax-ns#"
   xmlns:svg="http://www.w3.org/2000/svg"
   xmlns="http://www.w3.org/2000/svg"
   xmlns:sodipodi="http://sodipodi.sourceforge.net/DTD/sodipodi-0.dtd"
   xmlns:inkscape="http://www.inkscape.org/namespaces/inkscape"
   width="78mm"
   height="12mm"
   viewBox="0 0 276.37795 42.519684"
   id="svg4351"
   version="1.1"
   inkscape:version="0.91 r13725"
   sodipodi:docname="bandImage2.svg">
  <defs
     id="defs4353" />
  <sodipodi:namedview
     id="base"
     pagecolor="#ffffff"
     bordercolor="#666666"
     borderopacity="1.0"
     inkscape:pageopacity="0.0"
     inkscape:pageshadow="2"
     inkscape:zoom="1.4"
     inkscape:cx="3.0225757"
     inkscape:cy="-14.574298"
     inkscape:document-units="px"
     inkscape:current-layer="layer1"
     showgrid="false"
     fit-margin-top="0"
     fit-margin-left="0"
     fit-margin-right="0"
     fit-margin-bottom="0"
     inkscape:window-width="1366"
     inkscape:window-height="705"
     inkscape:window-x="-8"
     inkscape:window-y="-8"
     inkscape:window-maximized="1" />
  <metadata
     id="metadata4356">
    <rdf:RDF>
      <cc:Work
         rdf:about="">
        <dc:format>image/svg+xml</dc:format>
        <dc:type
           rdf:resource="http://purl.org/dc/dcmitype/StillImage" />
        <dc:title></dc:title>
      </cc:Work>
    </rdf:RDF>
  </metadata>
  <g
     inkscape:label="Layer 1"
     inkscape:groupmode="layer"
     id="layer1"
     transform="translate(-267.45,-406.69251)">
    <g
       id="g5119"
       transform="translate(-143.95388,-133.40271)"
       inkscape:export-xdpi="150.117"
       inkscape:export-ydpi="150.117">
      <g
         id="g89"
         transform="translate(-48.412152,528.27842)">
        <path
           id="path91"
           d="m 546.1,43.8 -3.1,0 0,-3.6 3.1,0 0,-3.1 3.8,0 0,3.1 3.1,0 0,3.6 -3.1,0 0,3.1 -3.8,0 0,-3.1 z"
           inkscape:connector-curvature="0"
           style="fill:#414042" />
        <path
           id="path93"
           d="m 561.2,43 c -0.9,0.9 -1.9,1.2 -2.8,1.2 -2.2,0 -4,-1.5 -4,-4 l 0,0 c 0,-3 2.4,-4.8 5.3,-4.8 2,0 3.2,0.6 4.2,1.6 0.9,0.9 1.5,2.5 1.5,4.6 l 0,0 c 0,4.2 -2.2,7.1 -6.2,7.1 -1.9,0 -3.4,-0.6 -4.7,-1.5 l 1.8,-2.8 c 0.8,0.6 1.7,1 2.7,1 1.7,0 2.1,-1.5 2.2,-2.4 z m 0,-3 0,0 c 0,-0.9 -0.6,-1.6 -1.4,-1.6 -0.8,0 -1.4,0.7 -1.4,1.5 l 0,0 c 0,0.8 0.6,1.4 1.4,1.4 0.9,0.1 1.4,-0.5 1.4,-1.3 z"
           inkscape:connector-curvature="0"
           style="fill:#414042" />
        <path
           id="path95"
           d="m 568.4,39.3 -2.1,0.5 -0.8,-3.2 3.8,-1 3.2,0 0,12.8 -4.2,0 0,-9.1 z"
           inkscape:connector-curvature="0"
           style="fill:#414042" />
        <path
           id="path97"
           d="m 585.4,43 c -0.9,0.9 -1.9,1.2 -2.8,1.2 -2.2,0 -4,-1.5 -4,-4 l 0,0 c 0,-3 2.4,-4.8 5.3,-4.8 2,0 3.2,0.6 4.2,1.6 0.9,0.9 1.5,2.5 1.5,4.6 l 0,0 c 0,4.2 -2.2,7.1 -6.2,7.1 -1.9,0 -3.4,-0.6 -4.7,-1.5 l 1.8,-2.8 c 0.8,0.6 1.7,1 2.7,1 1.7,0 2.1,-1.5 2.2,-2.4 z m 0,-3 0,0 c 0,-0.9 -0.6,-1.6 -1.4,-1.6 -0.8,0 -1.4,0.7 -1.4,1.5 l 0,0 c 0,0.8 0.6,1.4 1.4,1.4 0.9,0.1 1.4,-0.5 1.4,-1.3 z"
           inkscape:connector-curvature="0"
           style="fill:#414042" />
        <path
           id="path99"
           d="m 592.2,47.1 c -1,-1 -1.6,-2.5 -1.6,-4.7 l 0,0 c 0,-4 2.1,-7 6.2,-7 1.8,0 3.2,0.5 4.5,1.4 l -1.8,2.8 c -0.7,-0.5 -1.5,-0.9 -2.5,-0.9 -1.7,0 -2.2,1.5 -2.2,2.5 1,-0.8 1.8,-1.1 2.9,-1.1 1.9,0 3.9,1.4 3.9,3.9 l 0,0 c 0,3.1 -2.5,4.7 -5.3,4.7 -2,0 -3.2,-0.6 -4.1,-1.6 z m 5.3,-2.9 0,0 c 0,-0.8 -0.6,-1.5 -1.4,-1.5 -0.8,0 -1.4,0.6 -1.4,1.4 l 0,0 c 0,0.8 0.6,1.4 1.4,1.4 0.8,0 1.4,-0.5 1.4,-1.3 z"
           inkscape:connector-curvature="0"
           style="fill:#414042" />
        <path
           id="path101"
           d="m 608.1,39.2 -5.8,0 0,-3.5 10.5,0 0,3.2 -5.5,9.5 -4.6,0 5.4,-9.2 z"
           inkscape:connector-curvature="0"
           style="fill:#414042" />
        <path
           id="path103"
           d="m 618.1,46.2 -6.1,0 -0.7,-3 6.2,-7.7 4.7,0 0,7.6 1.5,0 0,3 -1.5,0 0,2.2 -4.1,0 0,-2.1 z m 0,-3 0,-3.4 -2.7,3.4 2.7,0 z"
           inkscape:connector-curvature="0"
           style="fill:#414042" />
        <path
           id="path105"
           d="m 635.9,43 c -0.9,0.9 -1.9,1.2 -2.8,1.2 -2.2,0 -4,-1.5 -4,-4 l 0,0 c 0,-3 2.4,-4.8 5.3,-4.8 2,0 3.2,0.6 4.2,1.6 0.9,0.9 1.5,2.5 1.5,4.6 l 0,0 c 0,4.2 -2.2,7.1 -6.2,7.1 -2,0 -3.4,-0.6 -4.7,-1.5 l 1.8,-2.8 c 0.8,0.6 1.7,1 2.7,1 1.8,0 2.2,-1.5 2.2,-2.4 z m 0.1,-3 0,0 c 0,-0.9 -0.6,-1.6 -1.4,-1.6 -0.8,0 -1.4,0.7 -1.4,1.5 l 0,0 c 0,0.8 0.6,1.4 1.4,1.4 0.8,0 1.4,-0.5 1.4,-1.3 z"
           inkscape:connector-curvature="0"
           style="fill:#414042" />
        <path
           id="path107"
           d="m 641.1,42.1 0,0 c 0,-3.6 2.3,-6.7 6.2,-6.7 3.9,0 6.1,3.1 6.1,6.6 l 0,0 c 0,3.5 -2.3,6.7 -6.2,6.7 -3.8,0 -6.1,-3.1 -6.1,-6.6 z m 8.1,0 0,0 c 0,-1.8 -0.8,-3 -1.9,-3 -1.1,0 -1.9,1.2 -1.9,2.9 l 0,0 c 0,1.7 0.8,3 1.9,3 1.1,0 1.9,-1.2 1.9,-2.9 z"
           inkscape:connector-curvature="0"
           style="fill:#414042" />
        <path
           id="path109"
           d="m 654.1,45.3 5.3,-3.8 c 0.8,-0.6 1.1,-1.1 1.1,-1.5 0,-0.5 -0.4,-0.9 -1.1,-0.9 -0.7,0 -1.4,0.5 -2.5,1.6 l -2.8,-2.4 c 1.5,-1.8 3,-2.8 5.6,-2.8 2.9,0 5,1.7 5,4.2 l 0,0 c 0,1.9 -1,3 -2.6,4 l -2.3,1.5 5,0 0,3.3 -10.7,0 0,-3.2 z"
           inkscape:connector-curvature="0"
           style="fill:#414042" />
        <path
           id="path111"
           d="m 665.4,45.3 5.3,-3.8 c 0.8,-0.6 1.1,-1.1 1.1,-1.5 0,-0.5 -0.4,-0.9 -1.1,-0.9 -0.7,0 -1.4,0.5 -2.5,1.6 l -2.8,-2.4 c 1.5,-1.8 3,-2.8 5.6,-2.8 2.9,0 5,1.7 5,4.2 l 0,0 c 0,1.9 -1,3 -2.6,4 l -2.3,1.5 5,0 0,3.3 -10.7,0 0,-3.2 z"
           inkscape:connector-curvature="0"
           style="fill:#414042" />
        <path
           id="path113"
           d="m 681.3,44.9 0,0 c 0,-1.6 0.9,-2.5 2.3,-3.1 -1,-0.5 -1.9,-1.4 -1.9,-2.8 l 0,0 c 0,-2.1 2.1,-3.6 5.1,-3.6 3,0 5.1,1.5 5.1,3.6 l 0,0 c 0,1.4 -0.9,2.3 -1.9,2.8 1.3,0.5 2.3,1.4 2.3,3.1 l 0,0 c 0,2.2 -2.3,3.8 -5.6,3.8 -3.1,-0.1 -5.4,-1.6 -5.4,-3.8 z m 7.1,-0.5 0,0 c 0,-0.7 -0.6,-1.3 -1.5,-1.3 -0.9,0 -1.5,0.5 -1.5,1.2 l 0,0 c 0,0.6 0.5,1.3 1.5,1.3 1,0.1 1.5,-0.6 1.5,-1.2 z m -0.2,-4.9 0,0 c 0,-0.7 -0.5,-1.2 -1.3,-1.2 -0.8,0 -1.3,0.6 -1.3,1.2 l 0,0 c 0,0.7 0.5,1.2 1.3,1.2 0.8,0.1 1.3,-0.4 1.3,-1.2 z"
           inkscape:connector-curvature="0"
           style="fill:#414042" />
        <path
           id="path115"
           d="m 692.6,46.4 2.5,-2.6 c 0.9,0.9 1.9,1.4 3,1.4 0.9,0 1.5,-0.4 1.5,-1 l 0,0 c 0,-0.6 -0.5,-1 -1.7,-1 l -1.8,0 -0.6,-1.9 2.8,-2.2 -4.7,0 0,-3.3 9.8,0 0,2.9 -2.9,2.2 c 1.9,0.5 3.2,1.6 3.2,3.6 l 0,0 c 0,2.8 -2.4,4.3 -5.2,4.3 -2.7,-0.1 -4.5,-1 -5.9,-2.4 z"
           inkscape:connector-curvature="0"
           style="fill:#414042" />
      </g>
      <g
         id="g117"
         transform="translate(-48.412152,528.27842)">
        <path
           id="path119"
           d="M 530,19.3 527.4,18 c 0,0 -3.8,-2.3 -14.6,-1.9 l -1.7,0.1 C 502.6,16.4 497,19 497,19 l -2.7,1.5 c -3.3,1.9 -1.5,4.8 -1.5,4.8 0,0 0.4,0.7 0.9,1.6 0.5,0.9 1.7,1.1 2.7,0.6 l 5.6,-3.1 c 1,-0.6 1.6,-1.5 1.2,-2.1 -0.3,-0.6 -0.7,-1.2 -0.7,-1.4 0,-0.2 1.1,-0.7 2.2,-1.1 1.7,-0.6 4.1,-1.4 6.5,-1.5 l 2,-0.1 c 0,0 6.1,-0.1 8.7,2 0,0 0.1,0.1 0.1,0.1 0.1,0 0.1,0.1 0,0.2 0,0 0,0.1 -0.1,0.2 -0.1,0.4 -0.3,0.8 -0.5,1.1 -0.3,0.6 0.3,1.5 1.3,2 l 5.5,2.7 c 1,0.5 2.3,0.2 2.7,-0.7 l 0.8,-1.7 c 0.1,-0.1 1.8,-3.2 -1.7,-4.8"
           inkscape:connector-curvature="0"
           style="fill:#414042" />
        <path
           id="path121"
           d="m 512.8,34 c -2.5,0 -4.5,2 -4.5,4.5 0,2.5 2,4.5 4.5,4.5 2.5,0 4.5,-2 4.5,-4.5 0,-2.5 -2,-4.5 -4.5,-4.5"
           inkscape:connector-curvature="0"
           style="fill:#414042" />
        <path
           id="path123"
           d="m 506.1,37.9 c 0.1,0 0.2,0 0.3,0 0.5,0 1,-0.3 1.1,-0.9 0.2,-0.6 -0.2,-1.2 -0.8,-1.4 -0.1,0 -0.2,0 -0.3,0 -0.5,0 -1,0.4 -1.1,0.9 -0.1,0.3 0,0.6 0.1,0.9 0.1,0.2 0.4,0.4 0.7,0.5"
           inkscape:connector-curvature="0"
           style="fill:#414042" />
        <path
           id="path125"
           d="m 507.4,40.8 c 0.2,-0.3 0.2,-0.6 0.1,-0.9 -0.1,-0.5 -0.6,-0.9 -1.1,-0.9 -0.1,0 -0.2,0 -0.3,0 -0.6,0.2 -1,0.8 -0.8,1.4 0.1,0.5 0.6,0.9 1.1,0.9 0.1,0 0.2,0 0.3,0 0.3,0 0.5,-0.2 0.7,-0.5"
           inkscape:connector-curvature="0"
           style="fill:#414042" />
        <path
           id="path127"
           d="m 511.4,43.9 c -0.1,0 -0.2,0 -0.3,0 -0.5,0 -1,0.4 -1.1,0.9 -0.1,0.3 0,0.6 0.1,0.9 0.2,0.3 0.4,0.5 0.7,0.5 0.6,0.2 1.3,-0.2 1.4,-0.8 0.1,-0.3 0,-0.6 -0.1,-0.9 -0.1,-0.4 -0.4,-0.6 -0.7,-0.6"
           inkscape:connector-curvature="0"
           style="fill:#414042" />
        <path
           id="path129"
           d="m 508.1,42.1 c -0.3,0 -0.6,0.1 -0.8,0.3 -0.5,0.4 -0.5,1.2 0,1.6 0.4,0.4 1.2,0.4 1.6,0 0.5,-0.4 0.5,-1.2 0,-1.6 -0.2,-0.2 -0.5,-0.3 -0.8,-0.3"
           inkscape:connector-curvature="0"
           style="fill:#414042" />
        <path
           id="path131"
           d="m 514.3,33.1 c 0.1,0 0.2,0 0.3,0 0.5,0 1,-0.4 1.1,-0.9 0.2,-0.6 -0.2,-1.2 -0.8,-1.4 -0.1,0 -0.2,0 -0.3,0 -0.5,0 -1,0.4 -1.1,0.9 -0.2,0.6 0.2,1.3 0.8,1.4"
           inkscape:connector-curvature="0"
           style="fill:#414042" />
        <path
           id="path133"
           d="m 518.3,36.2 c -0.2,0.3 -0.2,0.6 -0.1,0.9 0.1,0.5 0.6,0.9 1.1,0.9 0.1,0 0.2,0 0.3,0 0.3,-0.1 0.5,-0.3 0.7,-0.5 0.2,-0.3 0.2,-0.6 0.1,-0.9 -0.1,-0.5 -0.6,-0.9 -1.1,-0.9 -0.1,0 -0.2,0 -0.3,0 -0.3,0 -0.5,0.2 -0.7,0.5"
           inkscape:connector-curvature="0"
           style="fill:#414042" />
        <path
           id="path135"
           d="m 511.1,33.2 c 0.1,0 0.2,0 0.3,0 0.3,-0.1 0.5,-0.3 0.7,-0.5 0.2,-0.3 0.2,-0.6 0.1,-0.9 -0.1,-0.5 -0.6,-0.9 -1.1,-0.9 -0.1,0 -0.2,0 -0.3,0 -0.6,0.2 -1,0.8 -0.8,1.4 0.1,0.5 0.6,0.9 1.1,0.9"
           inkscape:connector-curvature="0"
           style="fill:#414042" />
        <path
           id="path137"
           d="m 508.9,34.6 c 0.2,-0.2 0.3,-0.5 0.3,-0.8 0,-0.3 -0.1,-0.6 -0.3,-0.8 -0.2,-0.2 -0.5,-0.3 -0.8,-0.3 -0.3,0 -0.6,0.1 -0.8,0.3 -0.2,0.2 -0.3,0.5 -0.3,0.8 0,0.3 0.1,0.6 0.3,0.8 0.4,0.4 1.2,0.4 1.6,0"
           inkscape:connector-curvature="0"
           style="fill:#414042" />
        <path
           id="path139"
           d="m 519.6,39.1 c -0.1,0 -0.2,0 -0.3,0 -0.5,0 -1,0.3 -1.1,0.9 -0.1,0.3 0,0.6 0.1,0.9 0.2,0.3 0.4,0.5 0.7,0.5 0.1,0 0.2,0 0.3,0 0.5,0 1,-0.4 1.1,-0.9 0.2,-0.6 -0.2,-1.2 -0.8,-1.4"
           inkscape:connector-curvature="0"
           style="fill:#414042" />
        <path
           id="path141"
           d="m 518.7,33.7 c 0,-0.3 -0.1,-0.6 -0.3,-0.8 -0.2,-0.2 -0.5,-0.3 -0.8,-0.3 -0.3,0 -0.6,0.1 -0.8,0.3 -0.4,0.4 -0.4,1.2 0,1.6 0.2,0.2 0.5,0.3 0.8,0.3 0.3,0 0.6,-0.1 0.8,-0.3 0.2,-0.2 0.3,-0.4 0.3,-0.8"
           inkscape:connector-curvature="0"
           style="fill:#414042" />
        <path
           id="path143"
           d="m 530.2,41.6 -5.8,-13.8 c -0.2,-0.6 -0.9,-1.1 -1.5,-1.1 l -2.2,0 0,-3.1 c 0,-1 -0.8,-1.8 -1.8,-1.8 l -0.6,0 c -1,0 -1.8,0.8 -1.8,1.8 l 0,3.1 -7.5,0 0,-3.1 c 0,-1 -0.8,-1.8 -1.8,-1.8 l -0.6,0 c -1,0 -1.8,0.8 -1.8,1.8 l 0,3.1 -2.4,0 c -0.6,0 -1.3,0.6 -1.5,1.1 l -5.8,13.7 c -0.2,0.6 -0.2,1.5 0,2 l 2.8,5.5 c 0.2,0.5 0.9,1.1 1.5,1.1 l 26.6,0 c 0.6,0 1.3,-0.5 1.5,-1.1 l 2.7,-5.5 c 0.2,-0.4 0.2,-1.3 0,-1.9 l 0,0 z m -17.4,5.9 c -5,0 -9,-4 -9,-9 0,-5 4,-9 9,-9 5,0 9,4 9,9 0.1,5 -4,9 -9,9 l 0,0 z m 0,0"
           inkscape:connector-curvature="0"
           style="fill:#414042" />
      </g>
      <g
         id="g145"
         transform="translate(-48.412152,528.27842)">
        <path
           id="path147"
           d="m 547.2,18.3 -3.5,0 0,-1.1 8.2,0 0,1.1 -3.5,0 0,9.4 -1.2,0 0,-9.4 z"
           inkscape:connector-curvature="0"
           style="fill:#414042" />
        <path
           id="path149"
           d="m 552.6,20 1.2,0 0,2 c 0.6,-1.3 1.7,-2.2 3.2,-2.2 l 0,1.2 -0.1,0 c -1.7,0 -3.1,1.2 -3.1,3.6 l 0,3.1 -1.2,0 0,-7.7 z"
           inkscape:connector-curvature="0"
           style="fill:#414042" />
        <path
           id="path151"
           d="m 558.8,17 1.3,0 0,1.3 -1.3,0 0,-1.3 z m 0,3 1.2,0 0,7.8 -1.2,0 0,-7.8 z"
           inkscape:connector-curvature="0"
           style="fill:#414042" />
        <path
           id="path153"
           d="m 562.7,20 1.2,0 0,1.4 c 0.5,-0.8 1.3,-1.5 2.7,-1.5 1.9,0 3,1.3 3,3.1 l 0,4.8 -1.2,0 0,-4.5 c 0,-1.4 -0.8,-2.3 -2.1,-2.3 -1.3,0 -2.3,1 -2.3,2.4 l 0,4.4 -1.2,0 0,-7.8 z"
           inkscape:connector-curvature="0"
           style="fill:#414042" />
        <path
           id="path155"
           d="m 571.8,29.1 0.5,-0.9 c 0.9,0.6 1.9,1 3,1 1.7,0 2.8,-0.9 2.8,-2.8 l 0,-0.9 c -0.7,0.9 -1.6,1.6 -3,1.6 -1.9,0 -3.6,-1.4 -3.6,-3.6 l 0,0 c 0,-2.3 1.8,-3.7 3.6,-3.7 1.5,0 2.4,0.7 3,1.6 l 0,-1.4 1.2,0 0,6.4 c 0,1.2 -0.4,2.1 -1,2.7 -0.7,0.7 -1.7,1 -3,1 -1.2,0.1 -2.4,-0.3 -3.5,-1 z m 6.4,-5.6 0,0 c 0,-1.6 -1.4,-2.7 -2.8,-2.7 -1.5,0 -2.7,1 -2.7,2.6 l 0,0 c 0,1.6 1.2,2.6 2.7,2.6 1.4,0.1 2.8,-0.9 2.8,-2.5 z"
           inkscape:connector-curvature="0"
           style="fill:#414042" />
        <path
           id="path157"
           d="m 585.9,23.9 0,0 c 0,-2.2 1.7,-4.1 4,-4.1 2.3,0 4,1.8 4,4 l 0,0 c 0,2.2 -1.7,4 -4.1,4 -2.2,0.1 -3.9,-1.7 -3.9,-3.9 z m 6.9,0 0,0 c 0,-1.7 -1.2,-3.1 -2.9,-3.1 -1.7,0 -2.8,1.4 -2.8,3 l 0,0 c 0,1.7 1.2,3 2.9,3 1.6,0.1 2.8,-1.3 2.8,-2.9 z"
           inkscape:connector-curvature="0"
           style="fill:#414042" />
        <path
           id="path159"
           d="m 596.1,20 1.2,0 0,2 c 0.6,-1.3 1.7,-2.2 3.2,-2.2 l 0,1.2 -0.1,0 c -1.7,0 -3.1,1.2 -3.1,3.6 l 0,3.1 -1.2,0 0,-7.7 z"
           inkscape:connector-curvature="0"
           style="fill:#414042" />
        <path
           id="path161"
           d="m 606.8,17.2 3.9,0 c 2.4,0 3.9,1.3 3.9,3.3 l 0,0 c 0,2.3 -1.9,3.4 -4.1,3.4 l -2.5,0 0,3.7 -1.2,0 0,-10.4 z m 3.8,5.8 c 1.7,0 2.9,-0.9 2.9,-2.3 l 0,0 c 0,-1.5 -1.1,-2.3 -2.8,-2.3 l -2.7,0 0,4.6 2.6,0 z"
           inkscape:connector-curvature="0"
           style="fill:#414042" />
        <path
           id="path163"
           d="m 616.7,17 1.3,0 0,1.3 -1.3,0 0,-1.3 z m 0.1,3 1.2,0 0,7.8 -1.2,0 0,-7.8 z"
           inkscape:connector-curvature="0"
           style="fill:#414042" />
        <path
           id="path165"
           d="m 620.6,20 1.2,0 0,1.4 c 0.5,-0.8 1.3,-1.5 2.7,-1.5 1.9,0 3,1.3 3,3.1 l 0,4.8 -1.2,0 0,-4.5 c 0,-1.4 -0.8,-2.3 -2.1,-2.3 -1.3,0 -2.3,1 -2.3,2.4 l 0,4.4 -1.2,0 0,-7.8 z"
           inkscape:connector-curvature="0"
           style="fill:#414042" />
        <path
           id="path167"
           d="m 629.7,29.1 0.5,-0.9 c 0.9,0.6 1.9,1 3,1 1.7,0 2.8,-0.9 2.8,-2.8 l 0,-0.9 c -0.7,0.9 -1.6,1.6 -3,1.6 -1.9,0 -3.6,-1.4 -3.6,-3.6 l 0,0 c 0,-2.3 1.8,-3.7 3.6,-3.7 1.5,0 2.4,0.7 3,1.6 l 0,-1.4 1.2,0 0,6.4 c 0,1.2 -0.4,2.1 -1,2.7 -0.7,0.7 -1.7,1 -3,1 -1.2,0.1 -2.4,-0.3 -3.5,-1 z m 6.4,-5.6 0,0 c 0,-1.6 -1.4,-2.7 -2.8,-2.7 -1.5,0 -2.7,1 -2.7,2.6 l 0,0 c 0,1.6 1.2,2.6 2.7,2.6 1.4,0.1 2.8,-0.9 2.8,-2.5 z"
           inkscape:connector-curvature="0"
           style="fill:#414042" />
      </g>
    </g>
  </g>
</svg>
