<?xml version="1.0" encoding="UTF-8" standalone="no"?>
<!-- Generator: Adobe Illustrator 18.1.1, SVG Export Plug-In . SVG Version: 6.00 Build 0)  -->

<svg
   xmlns:dc="http://purl.org/dc/elements/1.1/"
   xmlns:cc="http://creativecommons.org/ns#"
   xmlns:rdf="http://www.w3.org/1999/02/22-rdf-syntax-ns#"
   xmlns:svg="http://www.w3.org/2000/svg"
   xmlns="http://www.w3.org/2000/svg"
   xmlns:xlink="http://www.w3.org/1999/xlink"
   xmlns:sodipodi="http://sodipodi.sourceforge.net/DTD/sodipodi-0.dtd"
   xmlns:inkscape="http://www.inkscape.org/namespaces/inkscape"
   version="1.1"
   id="Layer_1"
   x="0px"
   y="0px"
   viewBox="0 0 841.9 417.8"
   enable-background="new 0 0 841.9 417.8"
   xml:space="preserve"
   inkscape:version="0.91 r13725"
   sodipodi:docname="clientsHeader.svg"><metadata
     id="metadata670"><rdf:RDF><cc:Work
         rdf:about=""><dc:format>image/svg+xml</dc:format><dc:type
           rdf:resource="http://purl.org/dc/dcmitype/StillImage" /><dc:title /></cc:Work></rdf:RDF></metadata><defs
     id="defs668" /><sodipodi:namedview
     pagecolor="#ffffff"
     bordercolor="#666666"
     borderopacity="1"
     objecttolerance="10"
     gridtolerance="10"
     guidetolerance="10"
     inkscape:pageopacity="0"
     inkscape:pageshadow="2"
     inkscape:window-width="1366"
     inkscape:window-height="705"
     id="namedview666"
     showgrid="false"
     inkscape:zoom="1.0246707"
     inkscape:cx="420.84477"
     inkscape:cy="208.16699"
     inkscape:window-x="-8"
     inkscape:window-y="-8"
     inkscape:window-maximized="1"
     inkscape:current-layer="Layer_1" /><pattern
     y="-75"
     width="841.6"
     height="470.4"
     patternUnits="userSpaceOnUse"
     id="Unnamed_Pattern"
     viewBox="0 -470.4 841.6 470.4"
     overflow="visible"><g
       id="g4"><polygon
         fill="none"
         points="0,0 841.6,0 841.6,-470.4 0,-470.4   "
         id="polygon6" /><g
         id="g8"><polygon
           fill="#FEE252"
           points="0,0 841.6,0 841.6,-470.4 0,-470.4    "
           id="polygon10" /></g></g></pattern><pattern
     id="SVGID_1_"
     xlink:href="#Unnamed_Pattern"
     patternTransform="matrix(1 0 0 1 1672.3965 365)" /><rect
     y="0"
     width="841.9"
     height="418.3"
     id="rect13"
     fill="url(#SVGID_1_)"
     style="fill:#fee252;fill-opacity:1" /><path
     fill-rule="evenodd"
     clip-rule="evenodd"
     fill="#FFFFFF"
     d="M97.7,50.2c-6.5,0-12.2,3-15.9,7.7c-1.3-0.4-2.7-0.6-4.1-0.6  c-4.3,0-8.1,2-10.6,5c-0.1,0-0.2,0-0.3,0c-4.3,0-7.9,2.6-9.4,6.3c-2.8,0.2-5.2,1.9-6.5,4.4c-0.8-0.4-1.6-0.6-2.5-0.6  c-3.3,0-5.9,2.7-5.9,5.9c0,3.3,2.7,5.9,5.9,5.9c1.7,0,3.2-0.7,4.3-1.8c1.4,1.3,3.3,2.1,5.4,2.1c1.7,0,3.2-0.5,4.5-1.4  c0.4,5.6,5,10,10.7,10c2.2,0,4.2-0.6,5.9-1.8c2,2.2,4.8,3.6,8,3.6c3.1,0,5.9-1.3,7.9-3.5c1.9,1.9,4.6,3.1,7.6,3.1  c2.9,0,5.6-1.2,7.5-3.1c2.1-0.4,4-1.5,5.5-3c1.8,1,3.8,1.6,6,1.6c3.2,0,6.1-1.2,8.3-3.2c0.1,0,0.2,0,0.4,0c0.2,0,0.4,0,0.7,0  c1.6,2,4,3.3,6.8,3.3c4.8,0,8.6-3.9,8.6-8.6c0-3.2-1.7-5.9-4.3-7.4c-0.4-6.2-5.6-11-11.8-11c-1.6,0-3.1,0.3-4.5,0.9  c-1.6-3.9-5.5-6.7-10-6.7c-0.9,0-1.8,0.1-2.6,0.3C109.6,53.1,104,50.2,97.7,50.2"
     id="path15" /><path
     fill-rule="evenodd"
     clip-rule="evenodd"
     fill="#FFFFFF"
     d="M153.8,98.8c-4.3,0-7.8,3.5-7.8,7.8c0,4.3,3.5,7.8,7.8,7.8  c1.1,0,2.2-0.2,3.1-0.7c1.6,1.5,3.8,2.4,6.2,2.4h0v0c0,2.3,1.8,4.1,4.1,4.1c2,0,3.6-1.4,4-3.2c1.5,0.6,3.1,0.9,4.8,0.9  c3.3,0,6.2-1.2,8.5-3.3l0.2,0c2.4,0,4.5-1,5.9-2.7c0.5,0.2,1,0.3,1.5,0.3c2.2,0,4-1.8,4-4c0-2.1-1.7-3.9-3.8-4  c0.1-0.5,0.2-1,0.2-1.6c0-3.6-2.9-6.4-6.4-6.4c-0.4,0-0.7,0-1.1,0.1c-2.3-2.3-5.5-3.7-8.9-3.7c-3.1,0-6,1.2-8.2,3.1  c-1.2-1.6-3.1-2.7-5.2-2.7c-3.4,0-6.2,2.7-6.4,6.1C155.4,98.9,154.6,98.8,153.8,98.8"
     id="path17" /><path
     fill-rule="evenodd"
     clip-rule="evenodd"
     fill="#FFFFFF"
     d="M424.8,70.8c-5.7,0-10.3,4.6-10.3,10.3s4.6,10.3,10.3,10.3  c1.5,0,2.9-0.3,4.1-0.9c2.2,2,5,3.2,8.2,3.2h0v0c0,3,2.4,5.5,5.5,5.5c2.6,0,4.8-1.8,5.3-4.3c2,0.8,4.1,1.3,6.4,1.3  c4.3,0,8.3-1.6,11.3-4.3l0.2,0c3.1,0,5.9-1.4,7.8-3.6c0.6,0.3,1.3,0.4,2,0.4c2.9,0,5.3-2.4,5.3-5.3c0-2.8-2.2-5.2-5-5.3  c0.2-0.7,0.3-1.4,0.3-2.1c0-4.7-3.8-8.6-8.6-8.6c-0.5,0-1,0-1.4,0.1c-3-3-7.2-4.9-11.9-4.9c-4.2,0-8,1.5-11,4.1  c-1.6-2.2-4.1-3.6-7-3.6c-4.6,0-8.3,3.6-8.5,8.1C426.9,71,425.9,70.8,424.8,70.8"
     id="path19" /><g
     id="g21"><defs
       id="defs23"><rect
         id="SVGID_2_"
         x="145.6"
         y="0"
         width="696.3"
         height="418.5" /></defs><clipPath
       id="SVGID_3_"><use
         xlink:href="#SVGID_2_"
         overflow="visible"
         id="use27" /></clipPath><g
       clip-path="url(#SVGID_3_)"
       id="g29"><path
         d="M274.3,359.7c0,0,7.9-20.3,16.6-24.5l1.5,5.8c0,0,7-3.9,14.1,0.6c0,0,9.6,13.6,13.4,12    c0,0,0.3,4.8-4.5,5.6c0,0-3.7,1.4-8.3-2.8c0,0-5-4-10.4-0.3l3.3,1.7l6,1.5l4.9,5.9l2.4,2.1c0,0-13.8,6.9-18.4,10.5l-11.7,7.4    l-13.6-21C269.7,364.2,273.7,361.3,274.3,359.7z"
         id="path31"
         fill="#EFC09C" /><ellipse
         transform="matrix(0.6902 -0.7236 0.7236 0.6902 -162.0265 332.383)"
         cx="307.2"
         cy="355.4"
         rx="16"
         ry="9.6"
         id="ellipse33"
         fill="#D5AC8A" /><ellipse
         transform="matrix(0.7814 -0.6241 0.6241 0.7814 -144.4645 277.0483)"
         cx="323.2"
         cy="344.7"
         rx="7"
         ry="4.7"
         id="ellipse35"
         fill="#D5AC8A" /><ellipse
         transform="matrix(0.7814 -0.624 0.624 0.7814 -147.7059 282.673)"
         cx="329.6"
         cy="352.2"
         rx="7"
         ry="4.7"
         id="ellipse37"
         fill="#D5AC8A" /><ellipse
         transform="matrix(0.7814 -0.6241 0.6241 0.7814 -141.8444 272.2645)"
         cx="317.7"
         cy="338.6"
         rx="7"
         ry="4.7"
         id="ellipse39"
         fill="#D5AC8A" /><ellipse
         transform="matrix(0.7814 -0.624 0.624 0.7814 -137.9905 267.243)"
         cx="312.5"
         cy="330.6"
         rx="7"
         ry="4.7"
         id="ellipse41"
         fill="#D5AC8A" /><g
         id="g43"><path
           d="M382.7,337.8c0,0-28.7,19.6-32,21.9c0,0-20.7,16.1-48.7-3.6c0,0-21.2-15.2-4.2-48.2c0,0,3.5-7,16-14.6     l26.7-18.4l6.4,9.9l-33.4,22.8c0,0-10.5,9.6-4.3,24.6c0,0,14.3,35.4,41.9,13.1l25.3-17.2L382.7,337.8z"
           id="path45"
           fill="#CC2F0E" /><path
           d="M388.6,346.9c0,0-28.7,19.6-32,21.9c0,0-20.7,16.1-48.7-3.6c0,0-21.2-15.2-4.2-48.2c0,0,3.5-7,16-14.6     l26.7-18.4l6.4,9.9l-33.4,22.8c0,0-10.5,9.6-4.3,24.6c0,0,14.3,35.4,41.9,13.1l25.3-17.2L388.6,346.9z"
           id="path47"
           fill="#F23C0A" /></g><path
         d="M306.3,341.3c-6.9-4.4-13.9-0.4-13.9-0.4l-1.5-5.7c-8.7,4.2-16.8,24.2-16.8,24.2c-0.7,1.5-4.7,4.5-4.7,4.5    l13.2,20.4l11.6-7.4c0.7-0.5,1.5-1.1,2.4-1.6c-6.4-3.9-9.1-14.2-0.9-19.5c5.7-3.7,10.1-3.1,13.4,1c10,6.8,10.2-5.1,10.2-5.1    C314.3,351.2,306.3,341.3,306.3,341.3z"
         id="path57"
         fill="#EFC09C" /><path
         d="M329.8,345l-2.3,4c-1,1.7-3.3,2.3-5.1,1.2c-1.9-1.1-2.6-3.3-1.6-5l2.3-4c1-1.7,3.3-2.3,5.1-1.2    C330.1,341,330.8,343.3,329.8,345z"
         id="path59"
         fill="#ECBE9A" /><path
         d="M336.2,351l-1.8,3.2c-0.8,1.4-2.9,1.6-4.8,0.5c-1.9-1.1-2.7-3-1.9-4.4l1.8-3.2c0.8-1.4,2.9-1.6,4.8-0.5    C336.1,347.7,337,349.6,336.2,351z"
         id="path61"
         fill="#ECBE9A" /><path
         d="M323.6,337.7l-4,7.6c-0.9,1.7-2.9,2.3-4.6,1.4l0,0c-1.7-0.9-2.3-2.9-1.4-4.6l4-7.6    c0.9-1.7,2.9-2.3,4.6-1.4l0,0C323.8,334,324.4,336.1,323.6,337.7z"
         id="path63"
         fill="#ECBE9A" /><path
         d="M318.6,329.6l-2.7,5.4c-0.8,1.7-2.9,2.4-4.6,1.5l0,0c-1.7-0.8-2.4-2.9-1.5-4.6l2.7-5.4    c0.8-1.7,2.9-2.4,4.6-1.5l0,0C318.7,325.9,319.4,328,318.6,329.6z"
         id="path65"
         fill="#ECBE9A" /><rect
         x="266.6"
         y="362.8"
         transform="matrix(0.8387 -0.5446 0.5446 0.8387 -161.1358 209.7899)"
         width="13.9"
         height="28.2"
         id="rect67"
         fill="#E1E4E9" /><rect
         x="271.7"
         y="379.9"
         transform="matrix(0.8388 -0.5445 0.5445 0.8388 -164.5365 213.7516)"
         width="13.9"
         height="9.6"
         id="rect69"
         fill="#F8FBFF" /><rect
         x="181.6"
         y="389.2"
         transform="matrix(0.8387 -0.5445 0.5445 0.8387 -183.5723 190.9327)"
         width="97.9"
         height="32.4"
         id="rect71"
         fill="#0D0D0D" /><rect
         x="186.1"
         y="404.4"
         transform="matrix(0.8387 -0.5445 0.5445 0.8387 -186.5985 194.4744)"
         width="97.9"
         height="15.9"
         id="rect73"
         fill="#1A1614" /><g
         id="g75"><ellipse
           transform="matrix(0.8388 -0.5445 0.5445 0.8388 -170.1549 211.3815)"
           cx="271.8"
           cy="393"
           rx="1.8"
           ry="1.9"
           id="ellipse77"
           fill="#0D0D0D" /><ellipse
           transform="matrix(0.8388 -0.5445 0.5445 0.8388 -172.4579 209.3993)"
           cx="267.4"
           cy="395.9"
           rx="1.8"
           ry="1.9"
           id="ellipse79"
           fill="#0D0D0D" /><ellipse
           transform="matrix(0.8388 -0.5445 0.5445 0.8388 -174.7695 207.4382)"
           cx="262.9"
           cy="398.8"
           rx="1.8"
           ry="1.9"
           id="ellipse81"
           fill="#0D0D0D" /><ellipse
           transform="matrix(0.8388 -0.5445 0.5445 0.8388 -177.0774 205.4664)"
           cx="258.4"
           cy="401.7"
           rx="1.8"
           ry="1.9"
           id="ellipse83"
           fill="#0D0D0D" /></g></g><g
       clip-path="url(#SVGID_3_)"
       id="Victims"
       inkscape:label="#g85"><g
         id="g87"><path
           d="m 485.8,222.1 -19.2,8.4 1.4,3.2 -2.3,1 c -0.4,0.2 -0.7,0.7 -0.5,1.1 l 0.7,1.6 c 0.2,0.4 0.8,0.7 1.2,0.5 l 2.3,-1 0.7,1.6 -2.3,1 c -0.4,0.2 -0.7,0.7 -0.5,1.1 l 0.7,1.6 c 0.2,0.4 0.8,0.7 1.2,0.5 l 2.3,-1 0.7,1.6 -2.3,1 c -0.4,0.2 -0.7,0.7 -0.5,1.1 l 0.7,1.6 c 0.2,0.4 0.8,0.7 1.2,0.5 l 2.3,-1 0.7,1.6 -2.3,1 c -0.4,0.2 -0.7,0.7 -0.5,1.1 l 0.7,1.6 c 0.2,0.4 0.8,0.7 1.2,0.5 l 2.3,-1 1.4,3.2 19.2,-8.4 c 0.9,-0.4 1.2,-1.4 0.8,-2.3 L 488,223 c -0.4,-0.9 -1.3,-1.2 -2.2,-0.9 l 0,0 z m -4.7,28.7 -3.2,1.4 -0.7,-1.6 0.9,-0.4 c 0.4,-0.2 0.6,-0.7 0.4,-1.2 l -0.7,-1.6 c -0.2,-0.4 -0.6,-0.6 -1.1,-0.4 l -0.9,0.4 -0.7,-1.6 0.9,-0.4 c 0.4,-0.2 0.6,-0.7 0.4,-1.2 l -0.7,-1.6 c -0.2,-0.4 -0.6,-0.6 -1.1,-0.4 l -0.9,0.4 -0.7,-1.6 0.9,-0.4 c 0.4,-0.2 0.6,-0.7 0.4,-1.2 l -0.7,-1.6 c -0.2,-0.4 -0.6,-0.6 -1.1,-0.4 l -0.9,0.4 -0.7,-1.6 0.9,-0.4 c 0.4,-0.2 0.6,-0.7 0.4,-1.2 l -0.7,-1.6 c -0.2,-0.4 -0.6,-0.6 -1.1,-0.4 l -0.9,0.4 -0.7,-1.6 3.2,-1.4 9.1,20.8 z m 0,0"
           id="path89"
           inkscape:connector-curvature="0"
           style="fill:#ffae00" /></g><g
         id="g91"><path
           d="m 583.5,129.6 c -0.1,-0.2 -0.2,-0.2 -0.4,-0.2 -0.1,0 -0.2,0 -0.3,0.1 -1.6,0.4 -3.2,0.9 -4.8,1.4 -1.3,0.4 -2.5,0.9 -3.8,1.4 -2.4,0.9 -4.7,2 -7,3.3 -1.4,0.8 -2.7,1.7 -3.9,2.7 -0.6,0.5 -1.2,1.1 -1.8,1.6 -0.9,0.8 -2,1.5 -3.2,1.7 -0.7,0.2 -1.5,0.3 -2.2,0.3 -1.4,0.1 -2.7,0.3 -4.1,0.6 -2.6,0.6 -5.1,1.5 -7.4,2.5 -1.8,0.8 -3.5,1.6 -5,2.5 -1.3,0.8 -2.6,1.5 -3.8,2.3 -0.3,0.2 -0.5,0.4 -0.8,0.6 -0.1,0.1 -0.2,0.2 -0.1,0.4 0.3,0.8 0.6,1.6 1,2.4 0,0.1 0.1,0.2 0.2,0.3 0.1,0.1 0.1,0.1 0.3,0.1 0.1,0 0.2,0 0.4,0 0.6,0.1 1,0.5 1.4,0.9 0.3,0.3 0.5,0.6 0.8,0.9 0.2,0.2 0.3,0.4 0.5,0.6 0.7,0.9 1.4,1.9 2.1,2.8 0.7,0.9 1.4,1.7 2.3,2.4 1,0.8 2.1,1.2 3.3,1.2 0.8,0 1.5,-0.1 2.3,-0.3 1.3,-0.3 2.6,-0.9 3.8,-1.5 1.2,-0.6 2.4,-1.4 3.5,-2.3 0.8,-0.7 1.5,-1.4 1.9,-2.4 0.7,-1.4 1.1,-2.9 1.2,-4.5 0.1,-1.6 0,-3.2 -0.2,-4.7 0,-0.5 -0.1,-0.9 -0.1,-1.4 0,-0.7 0.2,-1.2 0.8,-1.6 0.2,-0.1 0.4,-0.2 0.6,-0.3 0.5,-0.2 1,-0.3 1.4,0 0.2,0.1 0.4,0.2 0.6,0.4 0.3,0.3 0.7,0.6 1,1 1.3,1.5 2.7,2.8 4.3,4 1.3,1 2.8,1.6 4.4,1.7 1.2,0.1 2.3,0 3.4,-0.3 1.7,-0.4 3.3,-1 4.9,-1.8 0.9,-0.5 1.8,-1 2.6,-1.7 0.8,-0.7 1.5,-1.5 1.7,-2.6 0.2,-0.7 0.2,-1.4 0.2,-2.1 0,-1.5 -0.3,-2.9 -0.5,-4.4 -0.1,-0.7 -0.3,-1.4 -0.4,-2.1 -0.1,-0.4 -0.1,-0.8 -0.2,-1.1 0,-0.4 -0.1,-0.7 0,-1.1 0.1,-0.4 0.2,-0.7 0.4,-1 0.1,-0.1 0.2,-0.2 0.1,-0.4 0,-0.1 0,-0.2 -0.1,-0.3 -0.2,-0.5 -0.4,-1 -0.6,-1.4 -0.3,0 -0.5,-0.3 -0.7,-0.6 m -46,21.8 c -0.5,0.2 -1,0.3 -1,0.2 -0.1,-0.1 0.3,-0.4 0.8,-0.6 0.5,-0.2 1,-0.3 1,-0.2 0.1,0.1 -0.3,0.4 -0.8,0.6 m 20.3,-2.8 c 0.3,1.5 0.3,3.1 0.1,4.6 -0.1,0.8 -0.3,1.7 -0.6,2.5 -0.4,1 -1.2,1.9 -2,2.5 -1.8,1.4 -3.7,2.4 -5.9,3 -0.4,0.1 -0.9,0.2 -1.3,0.3 -0.9,0.1 -1.7,-0.1 -2.5,-0.6 -0.9,-0.5 -1.5,-1.3 -2.2,-2.1 -0.8,-1.1 -1.5,-2.2 -2.1,-3.3 -0.4,-0.7 -0.7,-1.4 -0.9,-2.1 -0.1,-0.4 -0.2,-0.7 -0.3,-1.1 -0.2,-1.3 0.2,-2.4 1.2,-3.3 1,-0.8 2,-1.4 3.1,-2 0.8,-0.4 1.6,-0.8 2.2,-1.1 1.9,-0.8 3.6,-1.4 5.4,-1.7 0.7,-0.1 1.4,-0.3 2.2,-0.2 0.4,0 0.7,0.1 1.1,0.2 0.6,0.2 1,0.5 1.3,1 0.6,1.1 1,2.2 1.2,3.4 m 24.7,-11.4 c 0.7,1.7 1.1,3.5 1.2,5.3 0,0.7 0,1.5 -0.3,2.2 -0.3,0.8 -0.9,1.4 -1.5,1.9 -0.8,0.6 -1.7,1.1 -2.7,1.5 -1.4,0.6 -2.9,1.1 -4.4,1.4 -1.5,0.3 -2.9,0.1 -4.3,-0.6 -1.7,-0.9 -3.1,-2.2 -4.3,-3.8 -0.5,-0.7 -1,-1.5 -1.4,-2.3 -0.1,-0.4 -0.3,-0.7 -0.4,-1.1 -0.2,-0.9 0.1,-1.8 0.7,-2.4 0.7,-0.7 1.4,-1.3 2.2,-1.8 0.9,-0.6 1.8,-1.2 2.7,-1.7 0.7,-0.4 1.5,-0.7 2,-1 2.1,-0.8 3.9,-1.4 5.9,-1.7 0.4,0 0.7,0 1.1,0 0.3,0 0.7,0.1 0.9,0.4 0.3,0.2 0.6,0.5 0.9,0.8 0.3,0.3 0.5,0.7 0.7,1.1 0.5,0.5 0.8,1.1 1,1.8 m -0.3,-5.3 c -0.5,0.2 -1,0.3 -1,0.2 -0.1,-0.1 0.3,-0.4 0.8,-0.6 0.5,-0.2 1,-0.3 1,-0.2 0.1,0.1 -0.3,0.4 -0.8,0.6"
           id="path93"
           inkscape:connector-curvature="0"
           style="fill:#232323" /></g><g
         id="g95"><path
           d="m 591.1,104.1 -0.3,-0.6 c -0.3,-0.7 -1.2,-1.1 -1.9,-0.7 -0.7,0.3 -1.1,1.2 -0.7,1.9 l 0.3,0.6 c 0.3,0.7 1.2,1.1 1.9,0.7 0.6,-0.3 1,-1.1 0.7,-1.9 l 0,0 z m 0,0"
           id="path97"
           inkscape:connector-curvature="0"
           style="fill:#05ccb9" /><path
           d="m 592.3,104.5 c 0.1,1.1 -0.5,2.2 -1.5,2.7 -1.1,0.5 -2.3,0.1 -3,-0.7 l -9.2,4 c -0.6,0.3 -1.2,0.4 -1.8,0.3 l 2.7,6.1 c 0.5,1.2 1.9,1.7 3.1,1.2 l 21.7,-9.5 c 1.2,-0.5 1.7,-1.9 1.2,-3.1 l -2.7,-6.1 c -0.4,0.4 -0.9,0.8 -1.5,1.1 l -9,4 z m 0,0"
           id="path99"
           inkscape:connector-curvature="0"
           style="fill:#05ccb9" /><path
           d="m 596.6,89.6 -5.2,2.3 c -1.2,-1.8 -3.5,-2.6 -5.6,-1.7 l -4.2,1.8 c -2,0.9 -3.1,3.1 -2.5,5.2 l -5.2,2.3 c -1.2,0.5 -1.8,2 -1.3,3.1 l 2.2,5 c 0.5,1.2 1.9,1.7 3.1,1.2 l 9.1,-4 c -0.2,-0.6 -0.2,-1.3 0,-1.9 0,0 0,0 0,-0.1 0.1,-0.1 0.1,-0.3 0.2,-0.4 0,0 0.1,-0.1 0.1,-0.1 0.1,-0.1 0.1,-0.2 0.2,-0.3 0.1,-0.1 0.1,-0.1 0.2,-0.2 0.1,-0.1 0.1,-0.1 0.2,-0.1 0.1,-0.1 0.3,-0.2 0.4,-0.3 0.2,-0.1 0.3,-0.1 0.5,-0.2 0.1,0 0.1,0 0.2,0 0.1,0 0.2,0 0.3,0 0.1,0 0.2,0 0.3,0 0.1,0 0.1,0 0.2,0 0.1,0 0.3,0.1 0.4,0.1 0,0 0,0 0.1,0 0.6,0.2 1.1,0.7 1.4,1.3 l 9.1,-4 c 1.2,-0.5 1.7,-1.9 1.2,-3.1 l -2.2,-5 c -0.5,-0.9 -2,-1.4 -3.2,-0.9 l 0,0 z m -15.4,6.7 c -0.1,-1 0.4,-1.9 1.3,-2.3 l 4.2,-1.8 c 0.9,-0.4 2,-0.1 2.6,0.6 l -8.1,3.5 z m 0,0"
           id="path101"
           inkscape:connector-curvature="0"
           style="fill:#05ccb9" /></g><g
         id="g103"><path
           d="m 581,53.7 -0.3,-0.6 c -0.3,-0.7 -1.2,-1.1 -1.9,-0.7 -0.7,0.3 -1.1,1.2 -0.7,1.9 l 0.3,0.6 c 0.3,0.7 1.2,1.1 1.9,0.7 0.7,-0.3 1,-1.2 0.7,-1.9 l 0,0 z m 0,0"
           id="path105"
           inkscape:connector-curvature="0"
           style="fill:#05ccb9" /><path
           d="m 582.2,54 c 0.1,1.1 -0.5,2.2 -1.5,2.7 -1.1,0.5 -2.3,0.1 -3,-0.7 l -9.2,4 c -0.6,0.3 -1.2,0.4 -1.8,0.3 l 2.7,6.1 c 0.5,1.2 1.9,1.7 3.1,1.2 l 21.7,-9.5 c 1.2,-0.5 1.7,-1.9 1.2,-3.1 l -2.7,-6.1 c -0.4,0.4 -0.9,0.8 -1.5,1.1 l -9,4 z m 0,0"
           id="path107"
           inkscape:connector-curvature="0"
           style="fill:#05ccb9" /><path
           d="m 586.5,39.1 -5.2,2.3 c -1.2,-1.8 -3.5,-2.6 -5.6,-1.7 l -4.2,1.8 c -2,0.9 -3.1,3.1 -2.5,5.2 l -5.2,2.3 c -1.2,0.5 -1.8,2 -1.3,3.1 l 2.2,5 c 0.5,1.2 1.9,1.7 3.1,1.2 l 9.1,-4 c -0.2,-0.6 -0.2,-1.3 0,-1.9 0,0 0,0 0,-0.1 0.1,-0.1 0.1,-0.2 0.2,-0.4 0,0 0.1,-0.1 0.1,-0.1 0.1,-0.1 0.1,-0.2 0.2,-0.3 0.1,-0.1 0.1,-0.1 0.2,-0.2 0.1,-0.1 0.1,-0.1 0.2,-0.1 0.1,-0.1 0.3,-0.2 0.4,-0.3 0.2,-0.1 0.3,-0.1 0.5,-0.2 0.1,0 0.1,0 0.2,0 0.1,0 0.2,0 0.3,0 0.1,0 0.2,0 0.3,0 0,0 0.1,0 0.2,0 0.1,0 0.3,0.1 0.4,0.1 0,0 0,0 0.1,0 0.6,0.2 1.1,0.7 1.4,1.3 l 9.1,-4 c 1.2,-0.5 1.7,-1.9 1.2,-3.1 l -2.2,-5 c -0.5,-0.9 -1.9,-1.4 -3.2,-0.9 l 0,0 z m -15.3,6.8 c -0.1,-1 0.4,-1.9 1.3,-2.3 l 4.2,-1.8 c 0.9,-0.4 2,-0.1 2.6,0.6 l -8.1,3.5 z m 0,0"
           id="path109"
           inkscape:connector-curvature="0"
           style="fill:#05ccb9" /></g><g
         id="g111"><path
           d="m 538.2,66.7 c 1.3,-0.6 1.8,-1.9 1.4,-3.2 L 538,58 c -0.5,-1.2 -2,-1.7 -3.3,-1.2 l -5.7,2.5 c -1.3,0.6 -1.9,2 -1.4,3.2 l 2.9,4.9 c 0.8,1.4 2,1.7 3.3,1.2 1,-0.4 1.1,-0.8 2.2,-1.3 1.2,-0.5 1.5,-0.3 2.2,-0.6"
           id="path113"
           inkscape:connector-curvature="0"
           style="fill:#ee4047" /><path
           d="m 547.3,79.8 -8.5,10.7 0.5,2 8.9,-11.2 -0.9,-1.5 z m 0,0"
           id="path115"
           inkscape:connector-curvature="0"
           style="fill:#ee4047" /><path
           d="m 543.3,73.7 -6.6,8.3 1.8,7.4 8.3,-10.4 -3.5,-5.3 z m 0,0"
           id="path117"
           inkscape:connector-curvature="0"
           style="fill:#ee4047" /><path
           d="m 536.4,81 6.4,-8 -0.8,-1.3 -6,7.5 0.4,1.8 z m 0,0"
           id="path119"
           inkscape:connector-curvature="0"
           style="fill:#ee4047" /><path
           d="m 541.9,100.5 1.9,0.9 9.6,-12.1 -4.2,-6.5 -9.4,11.8 0.6,2.6 c 0.2,0.5 0.3,2.7 1.5,3.3"
           id="path121"
           inkscape:connector-curvature="0"
           style="fill:#ee4047" /><path
           d="m 547.6,103.3 3.6,1.8 c 1.2,0.5 1.4,0.5 1.8,-0.8 l 3,-10 c 0.2,-0.5 0.1,-0.9 -0.1,-1.4 l -8.3,10.4 z m 0,0"
           id="path123"
           inkscape:connector-curvature="0"
           style="fill:#ee4047" /><path
           d="m 541,70.1 -1.6,-2.4 c -1.2,-0.5 -5.3,1.2 -5.7,2.5 l 1.7,6.9 5.6,-7 z m 0,0"
           id="path125"
           inkscape:connector-curvature="0"
           style="fill:#ee4047" /><path
           d="m 554.6,91 -0.1,-0.2 -9,11.3 1.3,0.7 8.6,-10.8 c -0.3,-0.3 -0.7,-0.7 -0.8,-1"
           id="path127"
           inkscape:connector-curvature="0"
           style="fill:#ee4047" /></g><g
         id="g129"><g
           id="g131"><path
             d="m 504.9,127.2 c -5.7,2.5 -8.3,9.1 -5.8,14.8 0.2,0.4 0.4,0.8 0.7,1.2 4.4,7.7 17.2,13.2 17.2,13.2 0.2,0.1 0.4,0.1 0.6,0.2 l 0,0 0.3,0 0.2,-0.2 0,0 c 0.1,-0.1 0.2,-0.3 0.3,-0.6 0,0 4.5,-13.1 1.8,-21.5 -0.1,-0.4 -0.3,-0.9 -0.5,-1.3 -2.5,-5.6 -9.1,-8.3 -14.8,-5.8 l 0,0 z m 7.4,17 c -3.7,1.6 -7.9,-0.1 -9.5,-3.8 -1.6,-3.7 0.1,-7.9 3.7,-9.5 3.7,-1.6 7.9,0.1 9.5,3.7 1.6,3.7 -0.1,8 -3.7,9.6 l 0,0 z m 0,0"
             id="path133"
             inkscape:connector-curvature="0"
             style="fill:#ff6860" /></g></g><g
         id="g135"><path
           d="m 643.2,70.9 -22.6,9.9 1.6,3.8 -2.7,1.2 c -0.5,0.2 -0.8,0.8 -0.6,1.3 l 0.8,1.9 c 0.2,0.5 0.9,0.8 1.4,0.6 l 2.7,-1.2 0.8,1.9 -2.7,1.2 c -0.5,0.2 -0.8,0.8 -0.6,1.3 l 0.8,1.9 c 0.2,0.5 0.9,0.8 1.4,0.6 l 2.7,-1.2 0.8,1.9 -2.7,1.2 c -0.5,0.2 -0.8,0.8 -0.6,1.3 l 0.8,1.9 c 0.2,0.5 0.9,0.8 1.4,0.6 l 2.7,-1.2 0.8,1.9 -2.7,1.2 c -0.5,0.2 -0.8,0.8 -0.6,1.3 l 0.8,1.9 c 0.2,0.5 0.9,0.8 1.4,0.6 l 2.7,-1.2 1.6,3.8 22.6,-9.9 c 1,-0.5 1.4,-1.7 1,-2.7 L 645.6,72.3 c -0.3,-1.4 -1.4,-1.9 -2.4,-1.4 l 0,0 z m -5.5,33.6 -3.8,1.6 -0.8,-1.9 1,-0.4 c 0.5,-0.2 0.7,-0.9 0.4,-1.4 l -0.8,-1.9 C 633.5,100 633,99.8 632.4,100 l -1,0.4 -0.8,-1.9 1,-0.4 c 0.5,-0.2 0.7,-0.9 0.4,-1.4 l -0.8,-1.9 c -0.2,-0.5 -0.7,-0.7 -1.3,-0.5 l -1,0.4 -0.8,-1.9 1,-0.4 c 0.5,-0.2 0.7,-0.9 0.4,-1.4 l -0.8,-1.9 c -0.2,-0.5 -0.7,-0.7 -1.3,-0.5 l -1,0.4 -0.8,-1.9 1,-0.4 c 0.5,-0.2 0.7,-0.9 0.4,-1.4 l -0.8,-1.9 c -0.2,-0.5 -0.7,-0.7 -1.3,-0.5 l -1,0.4 -0.8,-1.9 3.8,-1.6 10.8,24.7 z m 0,0"
           id="path137"
           inkscape:connector-curvature="0"
           style="fill:#ffae00" /></g><g
         id="g139"><path
           d="m 738.4,62 c -0.1,-0.2 -0.2,-0.2 -0.4,-0.2 -0.1,0 -0.2,0 -0.3,0.1 -1.6,0.4 -3.2,0.9 -4.8,1.4 -1.3,0.4 -2.5,0.9 -3.8,1.4 -2.4,0.9 -4.7,2 -7,3.3 -1.4,0.8 -2.7,1.7 -3.9,2.7 -0.6,0.5 -1.2,1.1 -1.8,1.6 -0.9,0.8 -2,1.5 -3.2,1.7 -0.7,0.2 -1.5,0.3 -2.2,0.3 -1.4,0.1 -2.7,0.3 -4.1,0.6 -2.6,0.6 -5.1,1.5 -7.4,2.5 -1.8,0.8 -3.5,1.6 -5,2.5 -1.3,0.8 -2.6,1.5 -3.8,2.3 -0.3,0.2 -0.5,0.4 -0.8,0.6 -0.1,0.1 -0.2,0.2 -0.1,0.4 0.3,0.8 0.6,1.6 1,2.4 0,0.1 0.1,0.2 0.2,0.3 0.1,0.1 0.1,0.1 0.3,0.1 0.1,0 0.2,0 0.4,0 0.6,0.1 1,0.5 1.4,0.9 0.3,0.3 0.5,0.6 0.8,0.9 0.2,0.2 0.3,0.4 0.5,0.6 0.7,0.9 1.4,1.9 2.1,2.8 0.7,0.9 1.4,1.7 2.3,2.4 1,0.8 2.1,1.2 3.3,1.2 0.8,0 1.5,-0.1 2.3,-0.3 1.3,-0.3 2.6,-0.9 3.8,-1.5 1.2,-0.6 2.4,-1.4 3.5,-2.3 0.8,-0.7 1.5,-1.4 1.9,-2.4 0.7,-1.4 1.1,-2.9 1.2,-4.5 0.1,-1.6 0,-3.2 -0.2,-4.7 0,-0.5 -0.1,-0.9 -0.1,-1.4 0,-0.7 0.2,-1.2 0.8,-1.6 0.2,-0.1 0.4,-0.2 0.6,-0.3 0.5,-0.2 1,-0.3 1.4,0 0.2,0.1 0.4,0.2 0.6,0.4 0.3,0.3 0.7,0.6 1,1 1.3,1.5 2.7,2.8 4.3,4 1.3,1 2.8,1.6 4.4,1.7 1.2,0.1 2.3,0 3.4,-0.3 1.7,-0.4 3.3,-1 4.9,-1.8 0.9,-0.5 1.8,-1 2.6,-1.7 0.8,-0.7 1.5,-1.5 1.7,-2.6 0.2,-0.7 0.2,-1.4 0.2,-2.1 0,-1.5 -0.3,-2.9 -0.6,-4.4 -0.1,-0.7 -0.3,-1.4 -0.4,-2.1 -0.1,-0.4 -0.1,-0.8 -0.2,-1.1 0,-0.4 -0.1,-0.7 0,-1.1 0.1,-0.4 0.2,-0.7 0.4,-1 0.1,-0.1 0.2,-0.2 0.1,-0.4 0,-0.1 0,-0.2 -0.1,-0.3 -0.2,-0.5 -0.4,-1 -0.6,-1.4 -0.2,0 -0.4,-0.3 -0.6,-0.6 m -45.9,21.8 c -0.5,0.2 -1,0.3 -1,0.2 -0.1,-0.1 0.3,-0.4 0.8,-0.6 0.5,-0.2 1,-0.3 1,-0.2 0.1,0.1 -0.3,0.4 -0.8,0.6 M 712.7,81 c 0.3,1.5 0.3,3.1 0.1,4.6 -0.1,0.8 -0.3,1.7 -0.6,2.5 -0.4,1 -1.2,1.9 -2,2.5 -1.8,1.4 -3.7,2.4 -5.9,3 -0.4,0.1 -0.9,0.2 -1.3,0.3 -0.9,0.1 -1.7,-0.1 -2.5,-0.6 -0.9,-0.5 -1.5,-1.3 -2.2,-2.1 -0.8,-1.1 -1.5,-2.2 -2.1,-3.3 -0.4,-0.7 -0.7,-1.4 -0.9,-2.1 -0.1,-0.4 -0.2,-0.7 -0.3,-1.1 -0.2,-1.3 0.2,-2.4 1.2,-3.3 1,-0.8 2,-1.4 3.1,-2 0.8,-0.4 1.6,-0.8 2.2,-1.1 1.9,-0.8 3.6,-1.4 5.4,-1.7 0.7,-0.1 1.4,-0.3 2.2,-0.2 0.4,0 0.7,0.1 1.1,0.2 0.6,0.2 1,0.5 1.3,1 0.6,1.1 1,2.2 1.2,3.4 m 24.8,-11.4 c 0.7,1.7 1.1,3.5 1.2,5.3 0,0.7 0,1.5 -0.3,2.2 -0.3,0.8 -0.9,1.4 -1.5,1.9 -0.8,0.6 -1.7,1.1 -2.7,1.5 -1.4,0.6 -2.9,1.1 -4.4,1.4 -1.5,0.3 -2.9,0.1 -4.3,-0.6 -1.7,-0.9 -3.1,-2.2 -4.3,-3.8 -0.5,-0.7 -1,-1.5 -1.4,-2.3 -0.1,-0.4 -0.3,-0.7 -0.4,-1.1 -0.2,-0.9 0.1,-1.8 0.7,-2.4 0.7,-0.7 1.4,-1.3 2.2,-1.8 0.9,-0.6 1.8,-1.2 2.7,-1.7 0.7,-0.4 1.5,-0.7 2,-1 2.1,-0.8 3.9,-1.4 5.9,-1.7 0.4,0 0.7,0 1.1,0 0.3,0 0.7,0.1 0.9,0.4 0.3,0.2 0.6,0.5 0.9,0.8 0.3,0.3 0.5,0.7 0.7,1.1 0.4,0.5 0.7,1.1 1,1.8 m -0.4,-5.2 c -0.5,0.2 -1,0.3 -1,0.2 -0.1,-0.1 0.3,-0.4 0.8,-0.6 0.5,-0.2 1,-0.3 1,-0.2 0.1,0.1 -0.3,0.3 -0.8,0.6"
           id="path141"
           inkscape:connector-curvature="0"
           style="fill:#232323" /></g><g
         id="g143"><path
           d="m 811.2,321 -0.3,-0.6 c -0.3,-0.7 -1.2,-1.1 -1.9,-0.7 -0.7,0.3 -1.1,1.2 -0.8,1.9 l 0.3,0.6 c 0.3,0.7 1.2,1.1 1.9,0.8 0.8,-0.4 1.1,-1.3 0.8,-2 l 0,0 z m 0,0"
           id="path145"
           inkscape:connector-curvature="0"
           style="fill:#05ccb9" /><path
           d="m 812.5,321.3 c 0.1,1.1 -0.5,2.2 -1.5,2.7 -1.1,0.5 -2.3,0.1 -3,-0.7 l -9.2,4 c -0.6,0.3 -1.2,0.4 -1.8,0.3 l 2.7,6.1 c 0.5,1.2 1.9,1.7 3.1,1.2 l 21.7,-9.5 c 1.2,-0.5 1.7,-1.9 1.2,-3.1 l -2.7,-6.1 c -0.4,0.4 -0.9,0.8 -1.5,1.1 l -9,4 z m 0,0"
           id="path147"
           inkscape:connector-curvature="0"
           style="fill:#05ccb9" /><path
           d="m 816.8,306.4 -5.2,2.3 c -1.2,-1.8 -3.5,-2.6 -5.6,-1.7 l -4.2,1.8 c -2,0.9 -3.1,3.1 -2.5,5.2 l -5.2,2.3 c -1.2,0.5 -1.8,2 -1.3,3.1 l 2.2,5 c 0.5,1.2 1.9,1.7 3.1,1.2 l 9.1,-4 c -0.2,-0.6 -0.2,-1.3 0,-1.9 0,0 0,0 0,-0.1 0.1,-0.1 0.1,-0.3 0.2,-0.4 0,0 0.1,-0.1 0.1,-0.1 0.1,-0.1 0.1,-0.2 0.2,-0.3 0.1,-0.1 0.1,-0.1 0.2,-0.2 0.1,-0.1 0.1,-0.1 0.2,-0.1 0.1,-0.1 0.3,-0.2 0.4,-0.3 0.2,-0.1 0.3,-0.1 0.5,-0.2 0.1,0 0.1,0 0.2,0 0.1,0 0.2,0 0.3,0 0.1,0 0.2,0 0.3,0 0,0 0.1,0 0.2,0 0.1,0 0.3,0.1 0.4,0.1 0,0 0,0 0.1,0 0.6,0.2 1.1,0.7 1.4,1.3 l 9.1,-4 c 1.2,-0.5 1.7,-1.9 1.2,-3.1 l -2.2,-5 c -0.6,-0.9 -2,-1.4 -3.2,-0.9 l 0,0 z m -15.4,6.7 c -0.1,-1 0.4,-1.9 1.3,-2.3 l 4.2,-1.8 c 0.9,-0.4 2,-0.1 2.6,0.6 l -8.1,3.5 z m 0,0"
           id="path149"
           inkscape:connector-curvature="0"
           style="fill:#05ccb9" /></g><g
         id="g151"><path
           d="m 701.3,28.3 c 1.3,-0.6 1.8,-1.9 1.4,-3.2 l -1.6,-5.5 c -0.5,-1.2 -2,-1.7 -3.3,-1.2 l -5.7,2.5 c -1.3,0.6 -1.9,2 -1.4,3.2 l 2.9,4.9 c 0.8,1.4 2,1.7 3.3,1.2 1,-0.4 1.1,-0.8 2.2,-1.3 1.2,-0.6 1.5,-0.4 2.2,-0.6"
           id="path153"
           inkscape:connector-curvature="0"
           style="fill:#ee4047" /><path
           d="m 710.4,41.4 -8.5,10.6 0.5,2 8.9,-11.2 -0.9,-1.4 z m 0,0"
           id="path155"
           inkscape:connector-curvature="0"
           style="fill:#ee4047" /><path
           d="m 706.5,35.3 -6.6,8.3 1.8,7.4 8.3,-10.4 -3.5,-5.3 z m 0,0"
           id="path157"
           inkscape:connector-curvature="0"
           style="fill:#ee4047" /><path
           d="m 699.5,42.5 6.4,-8 -0.8,-1.3 -6,7.5 0.4,1.8 z m 0,0"
           id="path159"
           inkscape:connector-curvature="0"
           style="fill:#ee4047" /><path
           d="m 705,62 1.9,0.9 9.6,-12.1 -4.2,-6.5 -9.3,11.9 0.6,2.6 c 0.1,0.5 0.2,2.6 1.4,3.2"
           id="path161"
           inkscape:connector-curvature="0"
           style="fill:#ee4047" /><path
           d="m 710.7,64.8 3.6,1.8 c 1.2,0.5 1.4,0.5 1.8,-0.8 l 3,-10 c 0.2,-0.5 0.1,-0.9 -0.1,-1.4 l -8.3,10.4 z m 0,0"
           id="path163"
           inkscape:connector-curvature="0"
           style="fill:#ee4047" /><path
           d="m 704.1,31.6 -1.6,-2.4 c -1.2,-0.5 -5.3,1.2 -5.7,2.5 l 1.7,6.9 5.6,-7 z m 0,0"
           id="path165"
           inkscape:connector-curvature="0"
           style="fill:#ee4047" /><path
           d="m 717.7,52.6 -0.1,-0.2 -9,11.3 1.3,0.7 8.6,-10.8 c -0.3,-0.4 -0.6,-0.8 -0.8,-1"
           id="path167"
           inkscape:connector-curvature="0"
           style="fill:#ee4047" /></g><g
         id="g169"><path
           d="m 659.9,115.5 c -2.9,-4.1 -11.7,-3.4 -12.1,0.7 -3.3,-2.6 -9.8,3.4 -8.8,8.3 0.9,5.2 -4.7,9.2 -9.2,8.2 2.3,5.3 8.1,2.9 11.8,1.7 8.2,-4 9.2,-9.1 9.2,-11.2 1.6,1.4 5.9,4.2 14.5,0.9 3.4,-1.9 9.1,-4.5 6.8,-9.8 -2.3,4 -9,5.4 -12.2,1.2 l 0,0 z m 0,0"
           id="path171"
           inkscape:connector-curvature="0"
           style="fill:#111111" /></g><g
         id="g173"><g
           id="g175"><path
             d="m 665.5,67.1 c -5.7,2.5 -8.3,9.1 -5.8,14.8 0.2,0.4 0.4,0.8 0.7,1.2 4.4,7.7 17.2,13.2 17.2,13.2 0.2,0.1 0.4,0.1 0.6,0.2 l 0,0 0.3,0 0.2,-0.2 0,0 c 0.1,-0.1 0.2,-0.3 0.3,-0.6 0,0 4.5,-13.1 1.8,-21.5 -0.1,-0.4 -0.3,-0.9 -0.5,-1.3 -2.5,-5.7 -9.1,-8.3 -14.8,-5.8 l 0,0 z m 7.4,17 c -3.7,1.6 -7.9,-0.1 -9.5,-3.8 -1.6,-3.7 0.1,-7.9 3.7,-9.5 3.7,-1.6 7.9,0.1 9.5,3.7 1.6,3.7 -0.1,8 -3.7,9.6 l 0,0 z m 0,0"
             id="path177"
             inkscape:connector-curvature="0"
             style="fill:#ff6860" /></g></g><g
         id="g179"><path
           d="m 632,197.9 c -0.1,-0.2 -0.2,-0.3 -0.5,-0.2 -0.1,0 -0.3,0 -0.4,0.1 -2.1,0.5 -4.1,1.1 -6.2,1.8 -1.6,0.6 -3.2,1.2 -4.8,1.8 -3.1,1.2 -6.1,2.6 -8.9,4.2 -1.7,1 -3.4,2.2 -4.9,3.5 -0.8,0.7 -1.5,1.4 -2.3,2.1 -1.2,1 -2.5,1.9 -4.1,2.2 -0.9,0.2 -1.9,0.3 -2.9,0.4 -1.7,0.2 -3.5,0.4 -5.2,0.7 -3.3,0.8 -6.5,1.9 -9.4,3.2 -2.4,1 -4.4,2 -6.4,3.2 -1.6,1 -3.3,1.9 -4.9,2.9 -0.3,0.2 -0.7,0.5 -1,0.7 -0.2,0.1 -0.2,0.3 -0.2,0.5 0.4,1 0.8,2.1 1.2,3.1 0.1,0.2 0.2,0.3 0.3,0.4 0.1,0.1 0.2,0.2 0.3,0.2 0.2,0 0.3,0 0.5,0 0.7,0.1 1.3,0.6 1.8,1.2 0.3,0.4 0.6,0.8 1,1.2 0.2,0.2 0.4,0.5 0.6,0.7 0.9,1.2 1.7,2.4 2.6,3.6 0.8,1.1 1.8,2.2 2.9,3.1 1.2,1 2.6,1.6 4.3,1.5 1,0 1.9,-0.2 2.9,-0.4 1.7,-0.4 3.3,-1.1 4.8,-1.9 1.6,-0.8 3.1,-1.8 4.4,-2.9 1,-0.9 1.9,-1.8 2.5,-3 0.9,-1.8 1.4,-3.8 1.6,-5.8 0.2,-2 0,-4 -0.2,-6 -0.1,-0.6 -0.1,-1.2 -0.2,-1.7 0,-0.9 0.3,-1.5 1,-2 0.2,-0.1 0.5,-0.3 0.7,-0.4 0.6,-0.2 1.2,-0.3 1.8,0 0.3,0.1 0.5,0.3 0.7,0.5 0.4,0.4 0.8,0.8 1.2,1.2 1.6,1.9 3.5,3.6 5.5,5 1.7,1.2 3.5,2 5.6,2.2 1.5,0.1 2.9,0 4.4,-0.3 2.2,-0.5 4.2,-1.3 6.2,-2.2 1.2,-0.6 2.3,-1.3 3.4,-2.1 1,-0.9 1.9,-1.9 2.2,-3.3 0.2,-0.9 0.3,-1.8 0.3,-2.7 0,-1.9 -0.3,-3.8 -0.7,-5.6 -0.2,-0.9 -0.3,-1.8 -0.5,-2.7 -0.1,-0.5 -0.1,-1 -0.2,-1.4 -0.1,-0.4 -0.1,-0.9 0,-1.3 0.1,-0.5 0.2,-0.9 0.6,-1.2 0.2,-0.1 0.2,-0.3 0.2,-0.5 0,-0.1 -0.1,-0.3 -0.1,-0.4 -0.3,-0.6 -0.5,-1.2 -0.8,-1.8 -0.3,-0.5 -0.5,-0.9 -0.7,-1.4 m -58.6,27.9 c -0.7,0.3 -1.3,0.4 -1.3,0.2 -0.1,-0.2 0.4,-0.5 1.1,-0.8 0.7,-0.3 1.2,-0.4 1.3,-0.2 0,0.2 -0.5,0.5 -1.1,0.8 m 25.8,-3.6 c 0.4,2 0.4,3.9 0.2,5.9 -0.1,1.1 -0.3,2.1 -0.8,3.1 -0.6,1.3 -1.5,2.4 -2.6,3.3 -2.3,1.8 -4.8,3.1 -7.6,3.8 -0.5,0.1 -1.1,0.2 -1.7,0.3 -1.2,0.2 -2.2,-0.1 -3.2,-0.7 -1.1,-0.7 -2,-1.6 -2.7,-2.6 -1,-1.3 -1.9,-2.8 -2.7,-4.2 -0.5,-0.8 -0.8,-1.7 -1.1,-2.7 -0.1,-0.5 -0.3,-0.9 -0.4,-1.4 -0.3,-1.7 0.2,-3.1 1.6,-4.2 1.2,-1 2.6,-1.8 4,-2.6 1,-0.6 2.1,-1.1 2.8,-1.4 2.5,-1 4.6,-1.8 6.8,-2.2 0.9,-0.2 1.8,-0.4 2.8,-0.3 0.5,0 0.9,0.1 1.4,0.2 0.7,0.2 1.3,0.7 1.7,1.3 0.7,1.4 1.2,2.9 1.5,4.4 m 31.6,-14.6 c 0.9,2.2 1.4,4.4 1.5,6.8 0,0.9 0,1.9 -0.4,2.8 -0.4,1 -1.1,1.7 -1.9,2.4 -1,0.8 -2.2,1.4 -3.4,2 -1.8,0.8 -3.7,1.4 -5.6,1.8 -1.9,0.4 -3.7,0.1 -5.5,-0.8 -2.2,-1.2 -4,-2.8 -5.5,-4.8 -0.7,-0.9 -1.3,-1.9 -1.8,-2.9 -0.2,-0.5 -0.3,-0.9 -0.5,-1.4 -0.3,-1.2 0.1,-2.2 0.9,-3.1 0.9,-0.9 1.8,-1.6 2.8,-2.3 1.1,-0.8 2.3,-1.5 3.5,-2.1 0.9,-0.5 1.9,-0.9 2.6,-1.3 2.7,-1 5,-1.8 7.5,-2.1 0.5,-0.1 0.9,0 1.4,0 0.4,0 0.8,0.2 1.2,0.5 0.4,0.3 0.8,0.6 1.1,1 0.4,0.4 0.7,0.9 0.9,1.4 0.4,0.5 0.8,1.3 1.2,2.1 m -0.5,-6.6 c -0.7,0.3 -1.2,0.4 -1.3,0.2 -0.1,-0.2 0.4,-0.5 1.1,-0.8 0.7,-0.3 1.2,-0.4 1.3,-0.2 0,0.1 -0.5,0.5 -1.1,0.8"
           id="path181"
           inkscape:connector-curvature="0"
           style="fill:#232323" /></g><g
         id="g183"><path
           d="m 568,185.9 -0.3,-0.6 c -0.3,-0.7 -1.2,-1.1 -1.9,-0.7 -0.7,0.3 -1.1,1.2 -0.7,1.9 l 0.3,0.6 c 0.3,0.7 1.2,1.1 1.9,0.7 0.6,-0.3 1,-1.2 0.7,-1.9 l 0,0 z m 0,0"
           id="path185"
           inkscape:connector-curvature="0"
           style="fill:#05ccb9" /><path
           d="m 569.2,186.2 c 0.1,1.1 -0.5,2.2 -1.5,2.7 -1.1,0.5 -2.3,0.1 -3,-0.7 l -9.2,4 c -0.6,0.3 -1.2,0.4 -1.8,0.3 l 2.7,6.1 c 0.5,1.2 1.9,1.7 3.1,1.2 l 21.7,-9.5 c 1.2,-0.5 1.7,-1.9 1.2,-3.1 l -2.7,-6.1 c -0.4,0.4 -0.9,0.8 -1.5,1.1 l -9,4 z m 0,0"
           id="path187"
           inkscape:connector-curvature="0"
           style="fill:#05ccb9" /><path
           d="m 573.5,171.3 -5.2,2.3 c -1.2,-1.8 -3.5,-2.6 -5.6,-1.7 l -4.2,1.8 c -2,0.9 -3.1,3.1 -2.5,5.2 l -5.2,2.3 c -1.2,0.5 -1.8,2 -1.3,3.1 l 2.2,5 c 0.5,1.2 1.9,1.7 3.1,1.2 l 9.1,-4 c -0.2,-0.6 -0.2,-1.3 0,-1.9 0,0 0,0 0,-0.1 0.1,-0.1 0.1,-0.3 0.2,-0.4 0,0 0.1,-0.1 0.1,-0.1 0.1,-0.1 0.1,-0.2 0.2,-0.3 0.1,-0.1 0.1,-0.1 0.2,-0.2 0.1,-0.1 0.1,-0.1 0.2,-0.1 0.1,-0.1 0.3,-0.2 0.4,-0.3 0.2,-0.1 0.3,-0.1 0.5,-0.2 0.1,0 0.1,0 0.2,0 0.1,0 0.2,0 0.3,0 0.1,0 0.2,0 0.3,0 0,0 0.1,0 0.2,0 0.1,0 0.3,0.1 0.4,0.1 0,0 0,0 0.1,0 0.6,0.2 1.1,0.7 1.4,1.3 l 9.1,-4 c 1.2,-0.5 1.7,-1.9 1.2,-3.1 l -2.2,-5 c -0.5,-0.9 -2,-1.4 -3.2,-0.9 l 0,0 z m -15.4,6.7 c -0.1,-1 0.4,-1.9 1.3,-2.3 l 4.2,-1.8 c 0.9,-0.4 2,-0.1 2.6,0.6 l -8.1,3.5 z m 0,0"
           id="path189"
           inkscape:connector-curvature="0"
           style="fill:#05ccb9" /></g><g
         id="g4425"><path
           id="path191"
           d="m 506.6,178.9 c -3.4,-1.3 -6.9,-1.2 -10,0.2 -3.1,1.3 -5.6,3.8 -6.9,7.2 -2.6,6.7 0.7,14.3 7.4,16.9 0,0 0.1,0 0.1,0 l -1.7,4.3 c 0,0 0.4,1.1 2,0.8 l 1.8,-4.5 c 2.7,0.5 5.4,0.2 7.8,-0.8 2.4,-1 4.5,-2.8 5.9,-5.1 l 4.5,1.8 c 1.6,-0.5 0.8,-2 0.8,-2 L 514,196 c 0,0 0,-0.1 0.1,-0.1 2.5,-6.8 -0.8,-14.3 -7.5,-17 l 0,0 z m 4.3,15.7 c 0,0.1 0,0.1 -0.1,0.2 l -0.3,0.7 -0.5,0.7 c -1.1,1.7 -2.6,3.1 -4.4,3.8 -1.8,0.8 -3.9,1 -5.8,0.6 l -0.9,-0.2 -0.7,-0.3 c -0.1,0 -0.1,0 -0.2,-0.1 -2.4,-1 -4.3,-2.8 -5.3,-5.2 -1,-2.4 -1.1,-5.1 -0.1,-7.5 1,-2.4 2.8,-4.4 5.2,-5.4 2.4,-1 5.1,-1.1 7.5,-0.1 2.4,1 4.4,2.8 5.4,5.2 1.1,2.5 1.2,5.2 0.2,7.6 l 0,0 z M 500.2,184 c -0.3,-0.7 -1.1,-1 -1.8,-0.7 -0.7,0.3 -1,1.1 -0.7,1.8 l 3.5,8 8,-3.5 c 0.7,-0.3 1,-1.1 0.7,-1.8 -0.3,-0.7 -1.1,-1 -1.8,-0.7 l -5.5,2.4 -2.4,-5.5 z m 0,0"
           inkscape:connector-curvature="0"
           style="fill:#111111" /></g><g
         id="g4428"><path
           id="path193"
           d="m 652.2,229.5 c -3.4,-1.3 -6.9,-1.2 -10,0.2 -3.1,1.3 -5.6,3.8 -6.9,7.2 -2.6,6.7 0.7,14.3 7.4,16.9 0,0 0.1,0 0.1,0 l -1.7,4.3 c 0,0 0.4,1.1 2,0.8 l 1.8,-4.5 c 2.7,0.5 5.4,0.2 7.8,-0.8 2.4,-1 4.5,-2.8 5.9,-5.1 l 4.5,1.8 c 1.6,-0.5 0.8,-2 0.8,-2 l -4.3,-1.7 c 0,0 0,-0.1 0.1,-0.1 2.5,-6.8 -0.8,-14.4 -7.5,-17 l 0,0 z m 4.4,15.6 c 0,0.1 0,0.1 -0.1,0.2 l -0.3,0.7 -0.5,0.7 c -1.1,1.7 -2.6,3.1 -4.4,3.8 -1.8,0.8 -3.9,1 -5.8,0.6 l -0.9,-0.2 -0.7,-0.3 c -0.1,0 -0.1,0 -0.2,-0.1 -2.4,-1 -4.3,-2.8 -5.3,-5.2 -1,-2.4 -1.1,-5.1 -0.1,-7.5 1,-2.4 2.8,-4.4 5.2,-5.4 2.4,-1 5.1,-1.1 7.5,-0.1 2.4,1 4.4,2.8 5.4,5.2 1,2.6 1.1,5.2 0.2,7.6 l 0,0 z m -10.8,-10.5 c -0.3,-0.7 -1.1,-1 -1.8,-0.7 -0.7,0.3 -1,1.1 -0.7,1.8 l 3.5,8 8,-3.5 c 0.7,-0.3 1,-1.1 0.7,-1.8 -0.3,-0.7 -1.1,-1 -1.8,-0.7 l -5.5,2.4 -2.4,-5.5 z m 0,0"
           inkscape:connector-curvature="0"
           style="fill:#111111" /></g><g
         id="g195"><path
           d="m 537.2,250.3 c -2.6,-3.8 -10.8,-3.1 -11.1,0.7 -3,-2.4 -9.1,3.2 -8.1,7.7 0.8,4.8 -4.3,8.5 -8.5,7.6 2.1,4.9 7.5,2.7 10.9,1.6 7.6,-3.7 8.5,-8.4 8.5,-10.3 1.4,1.3 5.5,3.8 13.4,0.8 3.1,-1.7 8.4,-4.1 6.3,-9 -2.2,3.5 -8.4,4.8 -11.4,0.9 l 0,0 z m 0,0"
           id="path197"
           inkscape:connector-curvature="0"
           style="fill:#111111" /></g><g
         id="g199"><g
           id="g201"><path
             d="m 537.8,204.7 c -5.7,2.5 -8.3,9.1 -5.8,14.8 0.2,0.4 0.4,0.8 0.7,1.2 4.4,7.7 17.2,13.2 17.2,13.2 0.2,0.1 0.4,0.1 0.6,0.2 l 0,0 0.3,0 0.2,-0.2 0,0 c 0.1,-0.1 0.2,-0.3 0.3,-0.6 0,0 4.5,-13.1 1.8,-21.5 -0.1,-0.4 -0.3,-0.9 -0.5,-1.3 -2.5,-5.7 -9.1,-8.3 -14.8,-5.8 l 0,0 z m 7.4,17 c -3.7,1.6 -7.9,-0.1 -9.5,-3.8 -1.6,-3.7 0.1,-7.9 3.7,-9.5 3.7,-1.6 7.9,0.1 9.5,3.7 1.6,3.7 -0.1,8 -3.7,9.6 l 0,0 z m 0,0"
             id="path203"
             inkscape:connector-curvature="0"
             style="fill:#ff6860" /></g></g><g
         id="g205"><path
           d="m 687.9,182.1 -22.6,9.9 1.6,3.8 -2.7,1.2 c -0.5,0.2 -0.8,0.8 -0.6,1.3 l 0.8,1.9 c 0.2,0.5 0.9,0.8 1.4,0.6 l 2.7,-1.2 0.8,1.9 -2.7,1.2 c -0.5,0.2 -0.8,0.8 -0.6,1.3 l 0.8,1.9 c 0.2,0.5 0.9,0.8 1.4,0.6 l 2.7,-1.2 0.8,1.9 -2.7,1.2 c -0.5,0.2 -0.8,0.8 -0.6,1.3 l 0.8,1.9 c 0.2,0.5 0.9,0.8 1.4,0.6 l 2.7,-1.2 0.8,1.9 -2.7,1.2 c -0.5,0.2 -0.8,0.8 -0.6,1.3 l 0.8,1.9 c 0.2,0.5 0.9,0.8 1.4,0.6 l 2.7,-1.2 1.6,3.8 22.6,-9.8 c 1,-0.5 1.4,-1.7 1,-2.7 l -10.6,-24.4 c -0.2,-1.5 -1.3,-1.9 -2.4,-1.5 l 0,0 z m -5.5,33.7 -3.8,1.6 -0.8,-1.9 1,-0.4 c 0.5,-0.2 0.7,-0.9 0.4,-1.4 l -0.8,-1.9 c -0.2,-0.5 -0.7,-0.7 -1.3,-0.5 l -1,0.4 -0.8,-1.9 1,-0.4 c 0.5,-0.2 0.7,-0.9 0.4,-1.4 l -0.8,-1.9 c -0.2,-0.5 -0.7,-0.7 -1.3,-0.5 l -1,0.4 -0.8,-1.9 1,-0.4 c 0.5,-0.2 0.7,-0.9 0.4,-1.4 l -0.8,-1.9 c -0.2,-0.5 -0.7,-0.7 -1.3,-0.5 l -1,0.4 -0.8,-1.9 1,-0.4 c 0.5,-0.2 0.7,-0.9 0.4,-1.4 l -0.8,-1.9 c -0.2,-0.5 -0.7,-0.7 -1.3,-0.5 l -1,0.4 -0.8,-1.9 3.8,-1.6 10.8,24.7 z m 0,0"
           id="path207"
           inkscape:connector-curvature="0"
           style="fill:#ffae00" /></g><g
         id="g209"><path
           d="m 701,141.2 -0.3,-0.8 c -0.4,-1 -1.5,-1.4 -2.5,-1 -1,0.4 -1.4,1.5 -1,2.5 l 0.3,0.8 c 0.4,1 1.5,1.4 2.5,1 1,-0.4 1.4,-1.5 1,-2.5 l 0,0 z m 0,0"
           id="path211"
           inkscape:connector-curvature="0"
           style="fill:#05ccb9" /><path
           d="m 702.6,141.6 c 0.2,1.4 -0.6,2.9 -2,3.5 -1.4,0.6 -2.9,0.2 -3.9,-0.9 l -12,5.2 c -0.8,0.3 -1.5,0.5 -2.3,0.4 l 3.5,7.9 c 0.7,1.5 2.5,2.3 4,1.6 l 28.3,-12.4 c 1.6,-0.7 2.3,-2.5 1.6,-4 l -3.5,-7.9 c -0.5,0.6 -1.1,1.1 -1.9,1.4 l -11.8,5.2 z m 0,0"
           id="path213"
           inkscape:connector-curvature="0"
           style="fill:#05ccb9" /><path
           d="m 708.2,122.2 -6.8,3 c -1.5,-2.4 -4.6,-3.4 -7.3,-2.2 l -5.4,2.4 c -2.7,1.2 -4,4.1 -3.3,6.8 l -6.8,2.9 c -1.6,0.7 -2.4,2.5 -1.7,4.1 l 2.8,6.5 c 0.7,1.6 2.5,2.3 4,1.6 l 11.8,-5.2 c -0.3,-0.8 -0.3,-1.7 0,-2.5 0,0 0,0 0,-0.1 0.1,-0.2 0.2,-0.3 0.3,-0.5 0,-0.1 0.1,-0.1 0.1,-0.2 0.1,-0.1 0.2,-0.2 0.3,-0.3 0.1,-0.1 0.2,-0.2 0.3,-0.2 0.1,-0.1 0.1,-0.1 0.2,-0.2 0.2,-0.1 0.4,-0.2 0.6,-0.3 0.2,-0.1 0.4,-0.2 0.6,-0.2 0.1,0 0.2,0 0.3,0 0.1,0 0.2,0 0.3,0 0.1,0 0.3,0 0.4,0 0.1,0 0.1,0 0.2,0 0.2,0 0.4,0.1 0.5,0.1 0,0 0,0 0.1,0 0.8,0.3 1.4,0.9 1.8,1.7 l 11.8,-5.2 c 1.6,-0.7 2.3,-2.5 1.6,-4 l -2.8,-6.5 c -0.4,-1.5 -2.3,-2.2 -3.9,-1.5 l 0,0 z m -20,8.8 c -0.1,-1.2 0.6,-2.5 1.8,-3 l 5.4,-2.4 c 1.2,-0.5 2.6,-0.2 3.4,0.7 l -10.6,4.7 z m 0,0"
           id="path215"
           inkscape:connector-curvature="0"
           style="fill:#05ccb9" /></g><g
         id="g217"><path
           d="m 728.5,98.3 c 1.3,-0.6 1.8,-1.9 1.4,-3.2 l -1.6,-5.5 c -0.5,-1.2 -2,-1.7 -3.3,-1.2 l -5.7,2.5 c -1.3,0.6 -1.9,2 -1.4,3.2 l 2.9,4.9 c 0.8,1.4 2,1.7 3.3,1.2 1,-0.4 1.1,-0.8 2.2,-1.3 1.3,-0.6 1.6,-0.4 2.2,-0.6"
           id="path219"
           inkscape:connector-curvature="0"
           style="fill:#ee4047" /><path
           d="m 737.7,111.4 -8.5,10.7 0.5,2 8.9,-11.2 -0.9,-1.5 z m 0,0"
           id="path221"
           inkscape:connector-curvature="0"
           style="fill:#ee4047" /><path
           d="m 733.7,105.3 -6.6,8.3 1.8,7.4 8.3,-10.4 -3.5,-5.3 z m 0,0"
           id="path223"
           inkscape:connector-curvature="0"
           style="fill:#ee4047" /><path
           d="m 726.8,112.5 6.4,-8 -0.8,-1.3 -6,7.5 0.4,1.8 z m 0,0"
           id="path225"
           inkscape:connector-curvature="0"
           style="fill:#ee4047" /><path
           d="m 732.3,132 1.9,0.9 9.6,-12.1 -4.2,-6.5 -9.4,11.8 0.6,2.6 c 0.2,0.6 0.3,2.7 1.5,3.3"
           id="path227"
           inkscape:connector-curvature="0"
           style="fill:#ee4047" /><path
           d="m 738,134.8 3.6,1.8 c 1.2,0.5 1.4,0.5 1.8,-0.8 l 3,-10 c 0.2,-0.5 0.1,-0.9 -0.1,-1.4 l -8.3,10.4 z m 0,0"
           id="path229"
           inkscape:connector-curvature="0"
           style="fill:#ee4047" /><path
           d="m 731.3,101.6 -1.6,-2.4 c -1.2,-0.5 -5.3,1.2 -5.7,2.5 l 1.7,6.9 5.6,-7 z m 0,0"
           id="path231"
           inkscape:connector-curvature="0"
           style="fill:#ee4047" /><path
           d="m 745,122.6 -0.1,-0.2 -9,11.3 1.4,0.7 8.6,-10.8 c -0.5,-0.4 -0.8,-0.8 -0.9,-1"
           id="path233"
           inkscape:connector-curvature="0"
           style="fill:#ee4047" /></g><g
         id="g235"><g
           id="g237"><path
             d="m 623.9,173.3 c 2.5,-2.6 4.1,-5.3 4.9,-8.3 0.8,-2.9 0.6,-5.7 -0.5,-8.3 -1.1,-2.6 -3,-4.6 -5.7,-6 -2.7,-1.4 -5.8,-2.1 -9.4,-2.1 -3.6,0 -7.1,0.8 -10.7,2.4 -3.5,1.5 -6.5,3.6 -9,6.2 -2.5,2.6 -4.1,5.3 -4.9,8.3 -0.8,2.9 -0.6,5.7 0.5,8.3 1,2.2 2.5,4 4.7,5.4 2.2,1.4 4.7,2.2 7.6,2.6 0,0.5 0,1 0,1.5 0,0.5 -0.1,0.9 -0.2,1.4 -0.1,0.5 -0.2,0.8 -0.3,1.1 -0.1,0.3 -0.2,0.6 -0.4,1.1 -0.2,0.5 -0.3,0.8 -0.3,1 0,0 0,0 -0.1,0.2 0,0.1 -0.1,0.2 -0.1,0.2 0,0 0,0.1 -0.1,0.2 0,0.1 0,0.2 0,0.2 l 0,0.2 c 0,0.1 0,0.1 0,0.2 0,0.1 0,0.1 0.1,0.2 0,0.1 0.1,0.1 0.1,0.2 0.1,0.2 0.3,0.4 0.6,0.4 0.2,0.1 0.5,0.1 0.7,0 l 0.1,0 c 0.9,-0.5 1.6,-1 2.2,-1.5 2.5,-2 4.6,-4.3 6.2,-6.9 1.8,-0.4 3.5,-1 5.1,-1.7 3.4,-1.9 6.4,-4 8.9,-6.5 l 0,0 z m 0,0"
             id="path239"
             inkscape:connector-curvature="0"
             style="fill:#84cb75" /><path
             d="m 642.8,166.2 c 0.5,-2.5 0.2,-4.9 -0.7,-7.1 -1,-2.3 -2.6,-4.1 -4.9,-5.5 -2.3,-1.4 -4.9,-2.2 -7.8,-2.5 1,1.2 1.9,2.5 2.5,3.9 1.1,2.5 1.5,5.1 1.2,7.9 -0.3,2.8 -1.2,5.5 -2.8,8.2 -1.5,2.5 -3.4,4.8 -5.8,6.8 -2.4,2 -5.1,3.7 -8,5 -0.6,0.2 -1.4,0.6 -2.5,1 4.8,0.8 9.7,0.1 14.7,-2.1 1.6,-0.7 3.2,-1.6 4.7,-2.6 3,0.6 6.1,0.7 9.3,0.2 0.7,-0.1 1.6,-0.3 2.6,-0.6 0.2,-0.1 0.4,-0.2 0.5,-0.5 0.1,-0.2 0.2,-0.5 0.1,-0.8 -0.1,-0.1 -0.1,-0.2 -0.1,-0.2 0,0 0,-0.1 -0.1,-0.2 -0.1,-0.1 -0.1,-0.1 -0.1,-0.1 l -0.1,-0.1 c 0,0 -0.1,-0.1 -0.2,-0.1 -0.1,0 -0.1,-0.1 -0.2,-0.1 0,0 -0.1,0 -0.2,-0.1 -0.1,0 -0.1,-0.1 -0.2,-0.1 -0.1,-0.1 -0.5,-0.2 -0.9,-0.4 -0.5,-0.2 -0.8,-0.4 -1.1,-0.5 -0.2,-0.1 -0.6,-0.3 -1,-0.5 -0.4,-0.2 -0.8,-0.5 -1.2,-0.8 -0.4,-0.3 -0.7,-0.6 -1.1,-1 1.8,-2.1 2.9,-4.5 3.4,-7.1 l 0,0 z m 0,0"
             id="path241"
             inkscape:connector-curvature="0"
             style="fill:#84cb75" /></g></g><g
         id="g243"><path
           d="m 575.5,276.5 -0.3,-0.6 c -0.3,-0.7 -1.2,-1.1 -1.9,-0.7 -0.7,0.3 -1.1,1.2 -0.7,1.9 l 0.3,0.6 c 0.3,0.7 1.2,1.1 1.9,0.7 0.7,-0.3 1,-1.1 0.7,-1.9 l 0,0 z m 0,0"
           id="path245"
           inkscape:connector-curvature="0"
           style="fill:#05ccb9" /><path
           d="m 576.8,276.9 c 0.1,1.1 -0.5,2.2 -1.5,2.7 -1.1,0.5 -2.3,0.1 -3,-0.7 l -9.2,4 c -0.6,0.3 -1.2,0.4 -1.8,0.3 l 2.7,6.1 c 0.5,1.2 1.9,1.7 3.1,1.2 l 21.7,-9.5 c 1.2,-0.5 1.7,-1.9 1.2,-3.1 l -2.7,-6.1 c -0.4,0.4 -0.9,0.8 -1.5,1.1 l -9,4 z m 0,0"
           id="path247"
           inkscape:connector-curvature="0"
           style="fill:#05ccb9" /><path
           d="m 581.1,262 -5.2,2.3 c -1.2,-1.8 -3.5,-2.6 -5.6,-1.7 l -4.2,1.8 c -2,0.9 -3.1,3.1 -2.5,5.2 l -5.2,2.3 c -1.2,0.5 -1.8,2 -1.3,3.1 l 2.2,5 c 0.5,1.2 1.9,1.7 3.1,1.2 l 9.1,-4 c -0.2,-0.6 -0.2,-1.3 0,-1.9 0,0 0,0 0,-0.1 0.1,-0.1 0.1,-0.2 0.2,-0.4 0,0 0.1,-0.1 0.1,-0.1 0.1,-0.1 0.1,-0.2 0.2,-0.3 0.1,-0.1 0.1,-0.1 0.2,-0.2 0.1,-0.1 0.1,-0.1 0.2,-0.1 0.1,-0.1 0.3,-0.2 0.4,-0.3 0.2,-0.1 0.3,-0.1 0.5,-0.2 0.1,0 0.2,0 0.2,0 0.1,0 0.2,0 0.3,0 0.1,0 0.2,0 0.3,0 0,0 0.1,0 0.1,0 0.1,0 0.3,0.1 0.4,0.1 0,0 0,0 0.1,0 0.6,0.2 1.1,0.7 1.4,1.3 l 9.1,-4 c 1.2,-0.5 1.7,-1.9 1.2,-3.1 l -2.2,-5 c -0.5,-0.9 -1.9,-1.4 -3.1,-0.9 l 0,0 z m -15.4,6.7 c -0.1,-1 0.4,-1.9 1.3,-2.3 l 4.2,-1.8 c 0.9,-0.4 2,-0.1 2.6,0.6 l -8.1,3.5 z m 0,0"
           id="path249"
           inkscape:connector-curvature="0"
           style="fill:#05ccb9" /></g><g
         id="g251"><g
           id="g253"><path
             d="M 521.2,248.8"
             id="path255"
             inkscape:connector-curvature="0"
             style="fill:#ffffff" /></g></g><g
         id="g257"><path
           d="m 614.1,268.5 c 1.3,-0.6 1.8,-1.9 1.4,-3.2 l -1.6,-5.5 c -0.5,-1.2 -2,-1.7 -3.3,-1.2 l -5.7,2.5 c -1.3,0.6 -1.9,2 -1.4,3.2 l 2.9,4.9 c 0.8,1.4 2,1.7 3.3,1.2 1,-0.4 1.1,-0.8 2.2,-1.3 1.2,-0.6 1.5,-0.3 2.2,-0.6"
           id="path259"
           inkscape:connector-curvature="0"
           style="fill:#ee4047" /><path
           d="m 623.2,281.6 -8.5,10.7 0.5,2 8.9,-11.2 -0.9,-1.5 z m 0,0"
           id="path261"
           inkscape:connector-curvature="0"
           style="fill:#ee4047" /><path
           d="m 619.3,275.5 -6.6,8.3 1.8,7.4 8.3,-10.4 -3.5,-5.3 z m 0,0"
           id="path263"
           inkscape:connector-curvature="0"
           style="fill:#ee4047" /><path
           d="m 612.3,282.7 6.4,-8 -0.8,-1.3 -6,7.5 0.4,1.8 z m 0,0"
           id="path265"
           inkscape:connector-curvature="0"
           style="fill:#ee4047" /><path
           d="m 617.8,302.2 1.9,0.9 9.6,-12.1 -4.2,-6.5 -9.4,11.8 0.6,2.6 c 0.2,0.6 0.3,2.8 1.5,3.3"
           id="path267"
           inkscape:connector-curvature="0"
           style="fill:#ee4047" /><path
           d="m 623.5,305 3.6,1.8 c 1.2,0.5 1.4,0.5 1.8,-0.8 l 3,-10 c 0.2,-0.5 0.1,-0.9 -0.1,-1.4 l -8.3,10.4 z m 0,0"
           id="path269"
           inkscape:connector-curvature="0"
           style="fill:#ee4047" /><path
           d="m 616.9,271.8 -1.6,-2.4 c -1.2,-0.5 -5.3,1.2 -5.7,2.5 l 1.7,6.9 5.6,-7 z m 0,0"
           id="path271"
           inkscape:connector-curvature="0"
           style="fill:#ee4047" /><path
           d="m 630.5,292.8 -0.1,-0.2 -9,11.3 1.3,0.7 8.6,-10.8 c -0.3,-0.4 -0.6,-0.8 -0.8,-1"
           id="path273"
           inkscape:connector-curvature="0"
           style="fill:#ee4047" /></g><g
         id="g275"><path
           d="m 793.2,199.4 c -0.1,-0.2 -0.2,-0.2 -0.4,-0.2 -0.1,0 -0.2,0 -0.3,0.1 -1.6,0.4 -3.2,0.9 -4.8,1.4 -1.3,0.4 -2.5,0.9 -3.8,1.4 -2.4,0.9 -4.7,2 -7,3.3 -1.4,0.8 -2.7,1.7 -3.9,2.7 -0.6,0.5 -1.2,1.1 -1.8,1.6 -0.9,0.8 -2,1.5 -3.2,1.7 -0.7,0.2 -1.5,0.3 -2.2,0.3 -1.4,0.1 -2.7,0.3 -4.1,0.6 -2.6,0.6 -5.1,1.5 -7.4,2.5 -1.8,0.8 -3.5,1.6 -5,2.5 -1.3,0.8 -2.6,1.5 -3.8,2.3 -0.3,0.2 -0.5,0.4 -0.8,0.6 -0.1,0.1 -0.2,0.2 -0.1,0.4 0.3,0.8 0.6,1.6 1,2.4 0,0.1 0.1,0.2 0.2,0.3 0.1,0.1 0.1,0.1 0.3,0.1 0.1,0 0.2,0 0.4,0 0.6,0.1 1,0.5 1.4,0.9 0.3,0.3 0.5,0.6 0.8,0.9 0.2,0.2 0.3,0.4 0.5,0.6 0.7,0.9 1.4,1.9 2.1,2.8 0.7,0.9 1.4,1.7 2.3,2.4 1,0.8 2.1,1.2 3.3,1.2 0.8,0 1.5,-0.1 2.3,-0.3 1.3,-0.3 2.6,-0.9 3.8,-1.5 1.2,-0.6 2.4,-1.4 3.5,-2.3 0.8,-0.7 1.5,-1.4 1.9,-2.4 0.7,-1.4 1.1,-2.9 1.2,-4.5 0.1,-1.6 0,-3.2 -0.2,-4.7 0,-0.5 -0.1,-0.9 -0.1,-1.4 0,-0.7 0.2,-1.2 0.8,-1.6 0.2,-0.1 0.4,-0.2 0.6,-0.3 0.5,-0.2 1,-0.3 1.4,0 0.2,0.1 0.4,0.2 0.6,0.4 0.3,0.3 0.7,0.6 1,1 1.3,1.5 2.7,2.8 4.3,4 1.3,1 2.8,1.6 4.4,1.7 1.2,0.1 2.3,0 3.4,-0.3 1.7,-0.4 3.3,-1 4.9,-1.8 0.9,-0.5 1.8,-1 2.6,-1.7 0.8,-0.7 1.5,-1.5 1.7,-2.6 0.2,-0.7 0.2,-1.4 0.2,-2.1 0,-1.5 -0.3,-2.9 -0.5,-4.4 -0.1,-0.7 -0.3,-1.4 -0.4,-2.1 -0.1,-0.4 -0.1,-0.7 -0.2,-1.1 0,-0.4 -0.1,-0.7 0,-1.1 0.1,-0.4 0.2,-0.7 0.4,-1 0.1,-0.1 0.2,-0.2 0.1,-0.4 0,-0.1 0,-0.2 -0.1,-0.3 -0.2,-0.5 -0.4,-1 -0.6,-1.4 -0.3,0.1 -0.5,-0.3 -0.7,-0.6 m -46,21.9 c -0.5,0.2 -1,0.3 -1,0.2 -0.1,-0.1 0.3,-0.4 0.8,-0.6 0.5,-0.2 1,-0.3 1,-0.2 0.1,0 -0.3,0.3 -0.8,0.6 m 20.3,-2.9 c 0.3,1.5 0.3,3.1 0.1,4.6 -0.1,0.8 -0.3,1.7 -0.6,2.5 -0.4,1 -1.2,1.9 -2,2.5 -1.8,1.4 -3.7,2.4 -5.9,3 -0.4,0.1 -0.9,0.2 -1.3,0.3 -0.9,0.1 -1.7,-0.1 -2.5,-0.6 -0.9,-0.5 -1.5,-1.3 -2.2,-2.1 -0.8,-1.1 -1.5,-2.2 -2.1,-3.3 -0.4,-0.7 -0.7,-1.4 -0.9,-2.1 -0.1,-0.4 -0.2,-0.7 -0.3,-1.1 -0.3,-1.3 0.2,-2.4 1.2,-3.3 1,-0.8 2,-1.4 3.1,-2 0.8,-0.4 1.6,-0.8 2.2,-1.1 1.9,-0.8 3.6,-1.4 5.4,-1.7 0.7,-0.1 1.4,-0.3 2.2,-0.2 0.4,0 0.7,0.1 1.1,0.2 0.6,0.2 1,0.5 1.3,1 0.6,1.1 1,2.2 1.2,3.4 M 792.2,207 c 0.7,1.7 1.1,3.5 1.2,5.3 0,0.7 0,1.5 -0.3,2.2 -0.3,0.8 -0.9,1.4 -1.5,1.9 -0.8,0.7 -1.7,1.1 -2.7,1.5 -1.4,0.6 -2.9,1.1 -4.4,1.4 -1.5,0.3 -2.9,0.1 -4.3,-0.6 -1.7,-0.9 -3.1,-2.2 -4.3,-3.8 -0.5,-0.7 -1,-1.5 -1.4,-2.3 -0.1,-0.4 -0.3,-0.7 -0.4,-1.1 -0.2,-0.9 0.1,-1.8 0.7,-2.4 0.7,-0.7 1.4,-1.3 2.2,-1.8 0.9,-0.6 1.8,-1.2 2.7,-1.7 0.7,-0.4 1.5,-0.7 2,-1 2.1,-0.8 3.9,-1.4 5.9,-1.7 0.4,0 0.7,0 1.1,0 0.3,0 0.7,0.1 0.9,0.4 0.3,0.2 0.6,0.5 0.9,0.8 0.3,0.3 0.5,0.7 0.7,1.1 0.5,0.5 0.8,1.2 1,1.8 m -0.3,-5.2 c -0.5,0.2 -1,0.3 -1,0.2 -0.1,-0.1 0.3,-0.4 0.8,-0.6 0.5,-0.2 1,-0.3 1,-0.2 0.1,0.1 -0.3,0.4 -0.8,0.6"
           id="path277"
           inkscape:connector-curvature="0"
           style="fill:#232323" /></g><g
         id="g279"><path
           d="m 740.3,186.4 -0.4,-0.9 c -0.5,-1.1 -1.8,-1.6 -2.9,-1.1 -1.1,0.5 -1.6,1.8 -1.1,2.9 l 0.4,0.9 c 0.5,1.1 1.8,1.6 2.9,1.1 1.1,-0.5 1.6,-1.8 1.1,-2.9 l 0,0 z m 0,0"
           id="path281"
           inkscape:connector-curvature="0"
           style="fill:#05ccb9" /><path
           d="m 742.2,186.9 c 0.2,1.7 -0.7,3.3 -2.3,4.1 -1.6,0.7 -3.4,0.2 -4.5,-1.1 l -14,6.1 c -0.9,0.4 -1.8,0.5 -2.7,0.5 l 4.1,9.3 c 0.8,1.8 2.9,2.7 4.7,1.9 l 33.2,-14.5 c 1.8,-0.8 2.6,-2.9 1.9,-4.7 l -4,-9.3 c -0.6,0.7 -1.3,1.2 -2.2,1.6 l -14.2,6.1 z m 0,0"
           id="path283"
           inkscape:connector-curvature="0"
           style="fill:#05ccb9" /><path
           d="m 748.8,164.2 -7.9,3.5 c -1.8,-2.8 -5.4,-3.9 -8.5,-2.6 l -6.3,2.8 c -3.1,1.4 -4.7,4.8 -3.9,8 l -7.9,3.5 c -1.9,0.8 -2.8,3 -2,4.8 l 3.3,7.6 c 0.8,1.8 2.9,2.7 4.7,1.9 l 13.8,-6 c -0.4,-1 -0.3,-2 0,-2.9 0,0 0,-0.1 0,-0.1 0.1,-0.2 0.2,-0.4 0.3,-0.6 0,-0.1 0.1,-0.1 0.1,-0.2 0.1,-0.1 0.2,-0.3 0.3,-0.4 0.1,-0.1 0.2,-0.2 0.3,-0.3 0.1,-0.1 0.2,-0.2 0.3,-0.2 0.2,-0.1 0.4,-0.3 0.7,-0.4 0.2,-0.1 0.5,-0.2 0.7,-0.2 0.1,0 0.2,0 0.3,0 0.1,0 0.3,0 0.4,0 0.2,0 0.3,0 0.5,0 0.1,0 0.2,0 0.2,0 0.2,0 0.4,0.1 0.6,0.2 0,0 0.1,0 0.1,0 0.9,0.3 1.7,1 2.2,1.9 l 13.8,-6 c 1.8,-0.8 2.7,-2.9 1.9,-4.7 l -3.3,-7.6 c -0.6,-2 -2.8,-2.8 -4.7,-2 l 0,0 z m -23.5,10.2 c -0.1,-1.5 0.6,-2.9 2.1,-3.5 l 6.3,-2.8 c 1.4,-0.6 3,-0.2 4,0.9 l -12.4,5.4 z m 0,0"
           id="path285"
           inkscape:connector-curvature="0"
           style="fill:#05ccb9" /></g><g
         id="g287"><path
           d="m 763.8,292.4 c -2.9,-4.1 -11.7,-3.4 -12.1,0.7 -3.3,-2.6 -9.8,3.4 -8.8,8.3 0.9,5.2 -4.7,9.2 -9.2,8.2 2.3,5.3 8.1,2.9 11.8,1.7 8.2,-4 9.2,-9.1 9.2,-11.2 1.6,1.4 5.9,4.2 14.5,0.9 3.4,-1.9 9.1,-4.5 6.8,-9.8 -2.3,4 -9,5.4 -12.2,1.2 l 0,0 z m 0,0"
           id="path289"
           inkscape:connector-curvature="0"
           style="fill:#111111" /></g><g
         id="g291"><g
           id="g293"><path
             d="m 685,296.2 c 2.5,-2.6 4.1,-5.3 4.9,-8.3 0.8,-2.9 0.6,-5.7 -0.5,-8.3 -1.1,-2.6 -3,-4.6 -5.7,-6 -2.7,-1.4 -5.8,-2.1 -9.4,-2.1 -3.6,0 -7.1,0.8 -10.7,2.4 -3.5,1.5 -6.5,3.6 -9,6.2 -2.5,2.6 -4.1,5.3 -4.9,8.3 -0.8,2.9 -0.6,5.7 0.5,8.3 1,2.2 2.5,4 4.7,5.4 2.2,1.4 4.7,2.2 7.6,2.6 0,0.5 0,1 0,1.5 0,0.5 -0.1,0.9 -0.2,1.4 -0.1,0.5 -0.2,0.8 -0.3,1.1 -0.1,0.3 -0.2,0.6 -0.4,1.1 -0.2,0.5 -0.3,0.8 -0.3,1 0,0 0,0 -0.1,0.2 0,0.1 -0.1,0.2 -0.1,0.2 0,0 0,0.1 -0.1,0.2 0,0.1 0,0.2 0,0.2 l 0,0.2 c 0,0.1 0,0.1 0,0.2 0,0.1 0,0.1 0.1,0.2 0,0.1 0.1,0.1 0.1,0.2 0.1,0.2 0.3,0.4 0.6,0.4 0.2,0.1 0.5,0.1 0.7,0 l 0.1,0 c 0.9,-0.5 1.6,-1 2.2,-1.5 2.5,-2 4.6,-4.3 6.2,-6.9 1.8,-0.4 3.5,-1 5.1,-1.7 3.4,-1.9 6.4,-4 8.9,-6.5 l 0,0 z m 0,0"
             id="path295"
             inkscape:connector-curvature="0"
             style="fill:#84cb75" /><path
             d="m 703.8,289.1 c 0.5,-2.5 0.2,-4.9 -0.7,-7.1 -1,-2.3 -2.6,-4.1 -4.9,-5.5 -2.3,-1.4 -4.9,-2.2 -7.8,-2.5 1,1.2 1.9,2.5 2.5,3.9 1.1,2.5 1.5,5.1 1.2,7.9 -0.3,2.8 -1.2,5.5 -2.8,8.2 -1.5,2.5 -3.4,4.8 -5.8,6.8 -2.4,2 -5.1,3.7 -8,5 -0.6,0.2 -1.4,0.6 -2.5,1 4.8,0.8 9.7,0.1 14.7,-2.1 1.6,-0.7 3.2,-1.6 4.7,-2.6 3,0.6 6.1,0.7 9.3,0.2 0.7,-0.1 1.6,-0.3 2.6,-0.6 0.2,-0.1 0.4,-0.2 0.5,-0.5 0.1,-0.2 0.2,-0.5 0.1,-0.8 -0.1,-0.1 -0.1,-0.2 -0.1,-0.2 0,0 0,-0.1 -0.1,-0.2 -0.1,-0.1 -0.1,-0.1 -0.1,-0.1 l -0.1,-0.1 c 0,0 -0.1,-0.1 -0.2,-0.1 -0.1,0 -0.1,-0.1 -0.2,-0.1 0,0 -0.1,0 -0.2,-0.1 -0.1,0 -0.1,-0.1 -0.2,-0.1 -0.1,-0.1 -0.5,-0.2 -0.9,-0.4 -0.5,-0.2 -0.8,-0.4 -1.1,-0.5 -0.2,-0.1 -0.6,-0.3 -1,-0.5 -0.4,-0.2 -0.8,-0.5 -1.2,-0.8 -0.4,-0.3 -0.7,-0.6 -1.1,-1 1.9,-2.1 3,-4.6 3.4,-7.1 l 0,0 z m 0,0"
             id="path297"
             inkscape:connector-curvature="0"
             style="fill:#84cb75" /></g></g><g
         id="g299"><path
           d="m 726,253.2 -0.3,-0.6 c -0.3,-0.7 -1.2,-1.1 -1.9,-0.7 -0.7,0.3 -1.1,1.2 -0.8,1.9 l 0.3,0.6 c 0.3,0.7 1.2,1.1 1.9,0.8 0.8,-0.4 1.1,-1.3 0.8,-2 l 0,0 z m 0,0"
           id="path301"
           inkscape:connector-curvature="0"
           style="fill:#05ccb9" /><path
           d="m 727.3,253.5 c 0.1,1.1 -0.5,2.2 -1.5,2.7 -1.1,0.5 -2.3,0.1 -3,-0.7 l -9.2,4 c -0.6,0.3 -1.2,0.4 -1.8,0.3 l 2.7,6.1 c 0.5,1.2 1.9,1.7 3.1,1.2 l 21.7,-9.5 c 1.2,-0.5 1.7,-1.9 1.2,-3.1 l -2.7,-6.1 c -0.4,0.4 -0.9,0.8 -1.5,1.1 l -9,4 z m 0,0"
           id="path303"
           inkscape:connector-curvature="0"
           style="fill:#05ccb9" /><path
           d="m 731.6,238.7 -5.2,2.3 c -1.2,-1.8 -3.5,-2.6 -5.6,-1.7 l -4.2,1.8 c -2,0.9 -3.1,3.1 -2.5,5.2 l -5.2,2.3 c -1.2,0.5 -1.8,2 -1.3,3.1 l 2.2,5 c 0.5,1.2 1.9,1.7 3.1,1.2 l 9.1,-4 c -0.2,-0.6 -0.2,-1.3 0,-1.9 0,0 0,0 0,-0.1 0.1,-0.1 0.1,-0.3 0.2,-0.4 0,0 0.1,-0.1 0.1,-0.1 0.1,-0.1 0.1,-0.2 0.2,-0.3 0.1,-0.1 0.1,-0.1 0.2,-0.2 0.1,-0.1 0.1,-0.1 0.2,-0.1 0.1,-0.1 0.3,-0.2 0.4,-0.3 0.2,-0.1 0.3,-0.1 0.5,-0.2 0.1,0 0.2,0 0.2,0 0.1,0 0.2,0 0.3,0 0.1,0 0.2,0 0.3,0 0,0 0.1,0 0.1,0 0.1,0 0.3,0.1 0.4,0.1 0,0 0,0 0.1,0 0.6,0.2 1.1,0.7 1.4,1.3 l 9.1,-4 c 1.2,-0.5 1.7,-1.9 1.2,-3.1 l -2.2,-5 c -0.5,-0.9 -1.9,-1.5 -3.1,-0.9 l 0,0 z m -15.4,6.7 c -0.1,-0.9 0.4,-1.9 1.3,-2.3 l 4.2,-1.8 c 0.9,-0.4 2,-0.1 2.6,0.6 l -8.1,3.5 z m 0,0"
           id="path305"
           inkscape:connector-curvature="0"
           style="fill:#05ccb9" /></g><g
         id="g307"><path
           d="m 784.4,251.5 c 1.3,-0.6 1.8,-1.9 1.4,-3.2 l -1.6,-5.5 c -0.5,-1.2 -2,-1.7 -3.3,-1.2 l -5.7,2.5 c -1.3,0.6 -1.9,2 -1.4,3.2 l 2.9,4.9 c 0.8,1.4 2,1.7 3.3,1.2 1,-0.4 1.1,-0.8 2.2,-1.3 1.2,-0.5 1.5,-0.3 2.2,-0.6"
           id="path309"
           inkscape:connector-curvature="0"
           style="fill:#ee4047" /><path
           d="m 793.5,264.7 -8.5,10.7 0.5,2 8.9,-11.2 -0.9,-1.5 z m 0,0"
           id="path311"
           inkscape:connector-curvature="0"
           style="fill:#ee4047" /><path
           d="m 789.5,258.5 -6.6,8.3 1.8,7.4 8.3,-10.4 -3.5,-5.3 z m 0,0"
           id="path313"
           inkscape:connector-curvature="0"
           style="fill:#ee4047" /><path
           d="m 782.6,265.8 6.4,-8 -0.8,-1.3 -6,7.5 0.4,1.8 z m 0,0"
           id="path315"
           inkscape:connector-curvature="0"
           style="fill:#ee4047" /><path
           d="m 788.1,285.3 1.9,0.9 9.6,-12.1 -4.2,-6.5 -9.4,11.8 0.6,2.6 c 0.2,0.5 0.3,2.7 1.5,3.3"
           id="path317"
           inkscape:connector-curvature="0"
           style="fill:#ee4047" /><path
           d="m 793.8,288.1 3.6,1.8 c 1.2,0.5 1.4,0.5 1.8,-0.8 l 3,-10 c 0.2,-0.5 0.1,-0.9 -0.1,-1.4 l -8.3,10.4 z m 0,0"
           id="path319"
           inkscape:connector-curvature="0"
           style="fill:#ee4047" /><path
           d="m 787.2,254.9 -1.6,-2.4 c -1.2,-0.5 -5.3,1.2 -5.7,2.5 l 1.7,6.9 5.6,-7 z m 0,0"
           id="path321"
           inkscape:connector-curvature="0"
           style="fill:#ee4047" /><path
           d="m 800.8,275.9 -0.1,-0.2 -9,11.3 1.4,0.7 8.6,-10.8 c -0.4,-0.4 -0.8,-0.8 -0.9,-1"
           id="path323"
           inkscape:connector-curvature="0"
           style="fill:#ee4047" /></g><g
         id="g325"><path
           d="m 911.4,-17.1 c -0.1,-0.1 -0.2,-0.2 -0.4,-0.2 -0.1,0 -0.2,0 -0.3,0.1 -1.6,0.4 -3.2,0.9 -4.8,1.4 -1.3,0.4 -2.5,0.9 -3.8,1.4 -2.4,0.9 -4.7,2 -7,3.3 -1.4,0.8 -2.7,1.7 -3.9,2.7 -0.6,0.5 -1.2,1.1 -1.8,1.6 -0.9,0.8 -2,1.5 -3.2,1.7 -0.7,0.2 -1.5,0.3 -2.2,0.3 -1.4,0.1 -2.7,0.3 -4.1,0.6 -2.6,0.6 -5.1,1.5 -7.4,2.5 -1.8,0.8 -3.5,1.6 -5,2.5 -1.3,0.8 -2.6,1.5 -3.8,2.3 -0.3,0.2 -0.5,0.4 -0.8,0.6 -0.1,0.1 -0.2,0.2 -0.1,0.4 0.3,0.8 0.6,1.6 1,2.4 0,0.1 0.1,0.2 0.2,0.3 0.1,0.1 0.1,0.1 0.3,0.1 0.1,0 0.2,0 0.4,0 0.6,0.1 1,0.5 1.4,0.9 0.3,0.3 0.5,0.6 0.8,0.9 0.2,0.2 0.3,0.4 0.5,0.6 0.7,0.9 1.4,1.9 2.1,2.8 0.7,0.9 1.4,1.7 2.3,2.4 1,0.8 2.1,1.2 3.3,1.2 0.8,0 1.5,-0.1 2.3,-0.3 1.3,-0.3 2.6,-0.9 3.8,-1.5 1.2,-0.6 2.4,-1.4 3.5,-2.3 0.8,-0.7 1.5,-1.4 1.9,-2.4 0.7,-1.4 1.1,-2.9 1.2,-4.5 0.1,-1.6 0,-3.2 -0.2,-4.7 0,-0.5 -0.1,-0.9 -0.1,-1.4 0,-0.7 0.2,-1.2 0.8,-1.6 0.2,-0.1 0.4,-0.2 0.6,-0.3 0.5,-0.2 1,-0.3 1.4,0 0.2,0.1 0.4,0.2 0.6,0.4 0.3,0.3 0.7,0.6 1,1 1.3,1.5 2.7,2.8 4.3,4 1.3,1 2.8,1.6 4.4,1.7 1.2,0.1 2.3,0 3.4,-0.3 1.7,-0.4 3.3,-1 4.9,-1.8 0.9,-0.5 1.8,-1 2.6,-1.7 0.8,-0.7 1.5,-1.5 1.7,-2.6 0.2,-0.7 0.2,-1.4 0.2,-2.1 0,-1.5 -0.3,-2.9 -0.6,-4.4 -0.1,-0.7 -0.3,-1.4 -0.4,-2.1 -0.1,-0.4 -0.1,-0.8 -0.2,-1.1 0,-0.4 -0.1,-0.7 0,-1.1 0.1,-0.4 0.2,-0.7 0.4,-1 0.1,-0.1 0.2,-0.2 0.1,-0.4 0,-0.1 0,-0.2 -0.1,-0.3 -0.2,-0.5 -0.4,-1 -0.6,-1.4 -0.3,0.1 -0.5,-0.3 -0.6,-0.6 m -46,21.9 c -0.5,0.2 -1,0.3 -1,0.2 -0.1,-0.1 0.3,-0.4 0.8,-0.6 0.5,-0.2 1,-0.3 1,-0.2 0.1,0.1 -0.3,0.3 -0.8,0.6 m 20.2,-2.9 c 0.3,1.5 0.3,3.1 0.1,4.6 -0.1,0.8 -0.3,1.7 -0.6,2.5 -0.4,1 -1.2,1.9 -2,2.6 -1.8,1.4 -3.7,2.4 -5.9,3 -0.4,0.1 -0.9,0.2 -1.3,0.3 -0.9,0.1 -1.7,-0.1 -2.5,-0.6 -0.9,-0.5 -1.5,-1.3 -2.2,-2.1 -0.8,-1.1 -1.5,-2.2 -2.1,-3.3 -0.4,-0.7 -0.7,-1.4 -0.9,-2.1 -0.1,-0.4 -0.2,-0.7 -0.3,-1.1 -0.3,-1.3 0.2,-2.4 1.2,-3.3 1,-0.8 2,-1.4 3.1,-2 0.8,-0.4 1.6,-0.8 2.2,-1.1 1.9,-0.8 3.6,-1.4 5.4,-1.7 0.7,-0.1 1.4,-0.3 2.2,-0.2 0.4,0 0.7,0.1 1.1,0.2 0.6,0.2 1,0.5 1.3,1 0.7,1 1,2.2 1.2,3.3 m 24.8,-11.4 c 0.7,1.7 1.1,3.5 1.2,5.3 0,0.7 0,1.5 -0.3,2.2 -0.3,0.8 -0.9,1.4 -1.5,1.9 -0.8,0.6 -1.7,1.1 -2.7,1.5 -1.4,0.6 -2.9,1.1 -4.4,1.4 -1.5,0.3 -2.9,0.1 -4.3,-0.6 -1.7,-0.9 -3.1,-2.2 -4.3,-3.8 -0.5,-0.7 -1,-1.5 -1.4,-2.3 -0.1,-0.4 -0.3,-0.7 -0.4,-1.1 -0.2,-0.9 0.1,-1.8 0.7,-2.4 0.7,-0.7 1.4,-1.3 2.2,-1.8 0.9,-0.6 1.8,-1.2 2.7,-1.7 0.7,-0.4 1.5,-0.7 2,-1 2.1,-0.8 3.9,-1.4 5.9,-1.7 0.4,0 0.7,0 1.1,0 0.3,0 0.7,0.1 0.9,0.4 0.3,0.2 0.6,0.5 0.9,0.8 0.3,0.3 0.5,0.7 0.7,1.1 0.4,0.5 0.7,1.2 1,1.8 m -0.4,-5.2 c -0.5,0.2 -1,0.3 -1,0.2 -0.1,-0.1 0.3,-0.4 0.8,-0.6 0.5,-0.2 1,-0.3 1,-0.2 0.1,0.1 -0.2,0.4 -0.8,0.6"
           id="path327"
           inkscape:connector-curvature="0"
           style="fill:#232323" /></g><g
         id="g329"><path
           d="m 800.5,109.3 c -0.1,-0.1 -0.2,-0.2 -0.4,-0.2 -0.1,0 -0.2,0 -0.3,0.1 -1.6,0.4 -3.2,0.9 -4.8,1.4 -1.3,0.4 -2.5,0.9 -3.8,1.4 -2.4,0.9 -4.7,2 -7,3.3 -1.4,0.8 -2.7,1.7 -3.9,2.7 -0.6,0.5 -1.2,1.1 -1.8,1.6 -0.9,0.8 -2,1.5 -3.2,1.7 -0.7,0.2 -1.5,0.3 -2.2,0.3 -1.4,0.1 -2.7,0.3 -4.1,0.6 -2.6,0.6 -5.1,1.5 -7.4,2.5 -1.8,0.8 -3.5,1.6 -5,2.5 -1.3,0.8 -2.6,1.5 -3.8,2.3 -0.3,0.2 -0.5,0.4 -0.8,0.6 -0.1,0.1 -0.2,0.2 -0.1,0.4 0.3,0.8 0.6,1.6 1,2.4 0,0.1 0.1,0.2 0.2,0.3 0.1,0.1 0.1,0.1 0.3,0.1 0.1,0 0.2,0 0.4,0 0.6,0.1 1,0.5 1.4,0.9 0.3,0.3 0.5,0.6 0.8,0.9 0.2,0.2 0.3,0.4 0.5,0.6 0.7,0.9 1.4,1.9 2.1,2.8 0.7,0.9 1.4,1.7 2.3,2.4 1,0.8 2.1,1.2 3.3,1.2 0.8,0 1.5,-0.1 2.3,-0.3 1.3,-0.3 2.6,-0.9 3.8,-1.5 1.2,-0.6 2.4,-1.4 3.5,-2.3 0.8,-0.7 1.5,-1.4 1.9,-2.4 0.7,-1.4 1.1,-2.9 1.2,-4.5 0.1,-1.6 0,-3.2 -0.2,-4.7 0,-0.5 -0.1,-0.9 -0.1,-1.4 0,-0.7 0.2,-1.2 0.8,-1.6 0.2,-0.1 0.4,-0.2 0.6,-0.3 0.5,-0.2 1,-0.3 1.4,0 0.2,0.1 0.4,0.2 0.6,0.4 0.3,0.3 0.7,0.6 1,1 1.3,1.5 2.7,2.8 4.3,4 1.3,1 2.8,1.6 4.4,1.7 1.2,0.1 2.3,0 3.4,-0.3 1.7,-0.4 3.3,-1 4.9,-1.8 0.9,-0.5 1.8,-1 2.6,-1.7 0.8,-0.7 1.5,-1.5 1.7,-2.6 0.2,-0.7 0.2,-1.4 0.2,-2.1 0,-1.5 -0.3,-2.9 -0.6,-4.4 -0.1,-0.7 -0.3,-1.4 -0.4,-2.1 -0.1,-0.4 -0.1,-0.8 -0.2,-1.1 0,-0.4 -0.1,-0.7 0,-1.1 0.1,-0.4 0.2,-0.7 0.4,-1 0.1,-0.1 0.2,-0.2 0.1,-0.4 0,-0.1 0,-0.2 -0.1,-0.3 -0.2,-0.5 -0.4,-1 -0.6,-1.4 -0.2,0.1 -0.4,-0.3 -0.6,-0.6 m -46,21.9 c -0.5,0.2 -1,0.3 -1,0.2 -0.1,-0.1 0.3,-0.4 0.8,-0.6 0.5,-0.2 1,-0.3 1,-0.2 0.1,0.1 -0.3,0.3 -0.8,0.6 m 20.3,-2.9 c 0.3,1.5 0.3,3.1 0.1,4.6 -0.1,0.8 -0.3,1.7 -0.6,2.5 -0.4,1 -1.2,1.9 -2,2.6 -1.8,1.4 -3.7,2.4 -5.9,3 -0.4,0.1 -0.9,0.2 -1.3,0.3 -0.9,0.1 -1.7,-0.1 -2.5,-0.6 -0.9,-0.5 -1.5,-1.3 -2.2,-2.1 -0.8,-1.1 -1.5,-2.2 -2.1,-3.3 -0.4,-0.7 -0.7,-1.4 -0.9,-2.1 -0.1,-0.4 -0.2,-0.7 -0.3,-1.1 -0.3,-1.3 0.2,-2.4 1.2,-3.3 1,-0.8 2,-1.4 3.1,-2 0.8,-0.4 1.6,-0.8 2.2,-1.1 1.9,-0.8 3.6,-1.4 5.4,-1.7 0.7,-0.1 1.4,-0.3 2.2,-0.2 0.4,0 0.7,0.1 1.1,0.2 0.6,0.2 1,0.5 1.3,1 0.6,1 1,2.1 1.2,3.3 m 24.7,-11.4 c 0.7,1.7 1.1,3.5 1.2,5.3 0,0.7 0,1.5 -0.3,2.2 -0.3,0.8 -0.9,1.4 -1.5,1.9 -0.8,0.6 -1.7,1.1 -2.7,1.5 -1.4,0.6 -2.9,1.1 -4.4,1.4 -1.5,0.3 -2.9,0.1 -4.3,-0.6 -1.7,-0.9 -3.1,-2.2 -4.3,-3.8 -0.5,-0.7 -1,-1.5 -1.4,-2.3 -0.1,-0.4 -0.3,-0.7 -0.4,-1.1 -0.2,-0.9 0.1,-1.8 0.7,-2.4 0.7,-0.7 1.4,-1.3 2.2,-1.8 0.9,-0.6 1.8,-1.2 2.7,-1.7 0.7,-0.4 1.5,-0.7 2,-1 2.1,-0.8 3.9,-1.4 5.9,-1.7 0.4,0 0.7,0 1.1,0 0.3,0 0.7,0.1 0.9,0.4 0.3,0.2 0.6,0.5 0.9,0.8 0.3,0.3 0.5,0.7 0.7,1.1 0.5,0.5 0.8,1.2 1,1.8 m -0.3,-5.2 c -0.5,0.2 -1,0.3 -1,0.2 -0.1,-0.1 0.3,-0.4 0.8,-0.6 0.5,-0.2 1,-0.3 1,-0.2 0.1,0.1 -0.3,0.4 -0.8,0.6"
           id="path331"
           inkscape:connector-curvature="0"
           style="fill:#232323" /></g><g
         id="g333"><path
           d="m 666.3,15.1 c -0.1,-0.1 -0.2,-0.2 -0.4,-0.2 -0.1,0 -0.2,0 -0.3,0.1 -1.6,0.4 -3.2,0.9 -4.8,1.4 -1.3,0.4 -2.5,0.9 -3.8,1.4 -2.4,0.9 -4.7,2 -7,3.3 -1.4,0.8 -2.7,1.7 -3.9,2.7 -0.6,0.5 -1.2,1.1 -1.8,1.6 -0.9,0.8 -2,1.5 -3.2,1.7 -0.7,0.2 -1.5,0.3 -2.2,0.3 -1.4,0.1 -2.7,0.3 -4.1,0.6 -2.6,0.6 -5.1,1.5 -7.4,2.5 -1.8,0.8 -3.5,1.6 -5,2.5 -1.3,0.8 -2.6,1.5 -3.8,2.3 -0.3,0.2 -0.5,0.4 -0.8,0.6 -0.1,0.1 -0.2,0.2 -0.1,0.4 0.3,0.8 0.6,1.6 1,2.4 0,0.1 0.1,0.2 0.2,0.3 0.1,0.1 0.1,0.1 0.3,0.1 0.1,0 0.2,0 0.4,0 0.6,0.1 1,0.5 1.4,0.9 0.3,0.3 0.5,0.6 0.8,0.9 0.2,0.2 0.3,0.4 0.5,0.6 0.7,0.9 1.4,1.9 2.1,2.8 0.7,0.9 1.4,1.7 2.3,2.4 1,0.8 2.1,1.2 3.3,1.2 0.8,0 1.5,-0.1 2.3,-0.3 1.3,-0.3 2.6,-0.9 3.8,-1.5 1.2,-0.6 2.4,-1.4 3.5,-2.3 0.8,-0.7 1.5,-1.4 1.9,-2.4 0.7,-1.4 1.1,-2.9 1.2,-4.5 0.1,-1.6 0,-3.2 -0.2,-4.7 0,-0.5 -0.1,-0.9 -0.1,-1.4 0,-0.7 0.2,-1.2 0.8,-1.6 0.2,-0.1 0.4,-0.2 0.6,-0.3 0.5,-0.2 1,-0.3 1.4,0 0.2,0.1 0.4,0.2 0.6,0.4 0.3,0.3 0.7,0.6 1,1 1.3,1.5 2.7,2.8 4.3,4 1.3,1 2.8,1.6 4.4,1.7 1.2,0.1 2.3,0 3.4,-0.3 1.7,-0.4 3.3,-1 4.9,-1.8 0.9,-0.5 1.8,-1 2.6,-1.7 0.8,-0.7 1.5,-1.5 1.7,-2.6 0.2,-0.7 0.2,-1.4 0.2,-2.1 0,-1.5 -0.3,-2.9 -0.6,-4.4 -0.1,-0.7 -0.3,-1.4 -0.4,-2.1 -0.1,-0.4 -0.1,-0.8 -0.2,-1.1 0,-0.4 -0.1,-0.7 0,-1.1 0.1,-0.4 0.2,-0.7 0.4,-1 0.1,-0.1 0.2,-0.2 0.1,-0.4 0,-0.1 0,-0.2 -0.1,-0.3 -0.2,-0.5 -0.4,-1 -0.6,-1.4 -0.3,0 -0.5,-0.3 -0.6,-0.6 m -46,21.8 c -0.5,0.2 -1,0.3 -1,0.2 -0.1,-0.1 0.3,-0.4 0.8,-0.6 0.5,-0.2 1,-0.3 1,-0.2 0.1,0.1 -0.3,0.4 -0.8,0.6 m 20.2,-2.8 c 0.3,1.5 0.3,3.1 0.1,4.6 -0.1,0.8 -0.3,1.7 -0.6,2.5 -0.4,1 -1.2,1.9 -2,2.6 -1.8,1.4 -3.7,2.4 -5.9,3 -0.4,0.1 -0.9,0.2 -1.3,0.3 -0.9,0.1 -1.7,-0.1 -2.5,-0.6 -0.9,-0.5 -1.5,-1.3 -2.2,-2.1 -0.8,-1.1 -1.5,-2.2 -2.1,-3.3 -0.4,-0.7 -0.7,-1.4 -0.9,-2.1 -0.1,-0.4 -0.2,-0.7 -0.3,-1.1 -0.3,-1.3 0.2,-2.4 1.2,-3.3 1,-0.8 2,-1.4 3.1,-2 0.8,-0.4 1.6,-0.8 2.2,-1.1 1.9,-0.8 3.6,-1.4 5.4,-1.7 0.7,-0.1 1.4,-0.3 2.2,-0.2 0.4,0 0.7,0.1 1.1,0.2 0.6,0.2 1,0.5 1.3,1 0.6,1 1,2.1 1.2,3.3 m 24.8,-11.4 c 0.7,1.7 1.1,3.5 1.2,5.3 0,0.7 0,1.5 -0.3,2.2 -0.3,0.8 -0.9,1.4 -1.5,1.9 -0.8,0.6 -1.7,1.1 -2.7,1.5 -1.4,0.6 -2.9,1.1 -4.4,1.4 -1.5,0.3 -2.9,0.1 -4.3,-0.6 -1.7,-0.9 -3.1,-2.2 -4.3,-3.8 -0.5,-0.7 -1,-1.5 -1.4,-2.3 -0.1,-0.4 -0.3,-0.7 -0.4,-1.1 -0.2,-0.9 0.1,-1.8 0.7,-2.4 0.7,-0.7 1.4,-1.3 2.2,-1.8 0.9,-0.6 1.8,-1.2 2.7,-1.7 0.7,-0.4 1.5,-0.7 2,-1 2.1,-0.8 3.9,-1.4 5.9,-1.7 0.4,0 0.7,0 1.1,0 0.3,0 0.7,0.1 0.9,0.4 0.3,0.2 0.6,0.5 0.9,0.8 0.3,0.3 0.5,0.7 0.7,1.1 0.4,0.5 0.7,1.1 1,1.8 m -0.4,-5.3 c -0.5,0.2 -1,0.3 -1,0.2 -0.1,-0.1 0.3,-0.4 0.8,-0.6 0.5,-0.2 1,-0.3 1,-0.2 0.1,0.1 -0.3,0.4 -0.8,0.6"
           id="path335"
           inkscape:connector-curvature="0"
           style="fill:#232323" /></g><g
         id="g337"><path
           d="m 797.3,-13.6 -0.3,-0.6 c -0.3,-0.7 -1.2,-1.1 -1.9,-0.7 -0.7,0.3 -1.1,1.2 -0.8,1.9 l 0.3,0.6 c 0.3,0.7 1.2,1.1 1.9,0.7 0.8,-0.3 1.1,-1.2 0.8,-1.9 l 0,0 z m 0,0"
           id="path339"
           inkscape:connector-curvature="0"
           style="fill:#05ccb9" /><path
           d="m 798.5,-13.3 c 0.1,1.1 -0.5,2.2 -1.5,2.7 -1.1,0.5 -2.3,0.1 -3,-0.7 l -9.2,4 c -0.6,0.3 -1.2,0.4 -1.8,0.3 l 2.7,6.1 c 0.5,1.2 1.9,1.7 3.1,1.2 l 21.7,-9.5 c 1.2,-0.5 1.7,-1.9 1.2,-3.1 l -2.7,-6.1 c -0.4,0.4 -0.9,0.8 -1.5,1.1 l -9,4 z m 0,0"
           id="path341"
           inkscape:connector-curvature="0"
           style="fill:#05ccb9" /><path
           d="m 802.9,-28.1 -5.2,2.3 c -1.2,-1.8 -3.5,-2.6 -5.6,-1.7 l -4.2,1.8 c -2,0.9 -3.1,3.1 -2.5,5.2 l -5.2,2.3 c -1.2,0.5 -1.8,2 -1.3,3.1 l 2.2,5 c 0.5,1.2 1.9,1.7 3.1,1.2 l 9.1,-4 c -0.2,-0.6 -0.2,-1.3 0,-1.9 0,0 0,0 0,-0.1 0.1,-0.1 0.1,-0.3 0.2,-0.4 0,0 0.1,-0.1 0.1,-0.1 0.1,-0.1 0.1,-0.2 0.2,-0.3 0.1,-0.1 0.1,-0.1 0.2,-0.2 0.1,-0.1 0.1,-0.1 0.2,-0.1 0.1,-0.1 0.3,-0.2 0.4,-0.3 0.2,-0.1 0.3,-0.1 0.5,-0.2 0.1,0 0.1,0 0.2,0 0.1,0 0.2,0 0.3,0 0.1,0 0.2,0 0.3,0 0,0 0.1,0 0.1,0 0.1,0 0.3,0.1 0.4,0.1 0,0 0,0 0.1,0 0.6,0.2 1.1,0.7 1.4,1.3 l 9.1,-4 c 1.2,-0.5 1.7,-1.9 1.2,-3.1 l -2.2,-5 c -0.5,-1 -1.9,-1.5 -3.1,-0.9 l 0,0 z m -15.4,6.7 c -0.1,-1 0.4,-1.9 1.3,-2.3 l 4.2,-1.8 c 0.9,-0.4 2,-0.1 2.6,0.6 l -8.1,3.5 z m 0,0"
           id="path343"
           inkscape:connector-curvature="0"
           style="fill:#05ccb9" /></g><g
         id="g4431"><path
           id="path345"
           d="m 805.6,27.4 c -4.2,-1.6 -8.7,-1.4 -12.5,0.2 -3.8,1.7 -7,4.8 -8.7,9 -3.3,8.4 0.8,17.9 9.2,21.2 0.1,0 0.1,0 0.1,0 l -2.1,5.4 c 0,0 0.5,1.4 2.5,1 l 2.2,-5.7 c 3.3,0.7 6.7,0.3 9.7,-1 3,-1.3 5.6,-3.5 7.4,-6.4 l 5.6,2.2 c 2,-0.7 1,-2.5 1,-2.5 l -5.4,-2.1 c 0,0 0,-0.1 0.1,-0.1 3.4,-8.5 -0.7,-17.9 -9.1,-21.2 l 0,0 z m 5.4,19.5 c 0,0.1 -0.1,0.1 -0.1,0.2 l -0.4,0.9 -0.5,1 c -1.3,2.1 -3.2,3.8 -5.5,4.8 -2.3,1 -4.8,1.3 -7.3,0.8 l -1.1,-0.2 -0.9,-0.3 c -0.1,0 -0.1,0 -0.2,-0.1 -3,-1.2 -5.4,-3.5 -6.7,-6.5 -1.3,-3 -1.4,-6.3 -0.2,-9.4 1.2,-3 3.5,-5.4 6.5,-6.8 3,-1.3 6.3,-1.4 9.4,-0.2 3,1.2 5.4,3.5 6.7,6.5 1.4,3 1.5,6.3 0.3,9.3 l 0,0 z M 797.6,33.8 c -0.4,-0.8 -1.4,-1.2 -2.2,-0.9 -0.9,0.4 -1.2,1.4 -0.9,2.2 l 4.4,10 10,-4.4 c 0.9,-0.4 1.3,-1.4 0.9,-2.2 -0.4,-0.9 -1.4,-1.2 -2.2,-0.9 l -6.9,3 -3.1,-6.8 z m 0,0"
           inkscape:connector-curvature="0"
           style="fill:#111111" /></g><g
         id="g347"><g
           id="g349"><path
             d="m 825.8,-4.1 c -5.7,2.5 -8.3,9.1 -5.8,14.8 0.2,0.4 0.4,0.8 0.7,1.2 4.4,7.7 17.2,13.2 17.2,13.2 0.2,0.1 0.4,0.1 0.6,0.2 l 0,0 0.3,0 0.3,-0.2 0,0 c 0.1,-0.1 0.2,-0.3 0.3,-0.6 0,0 4.5,-13.1 1.8,-21.5 -0.1,-0.4 -0.3,-0.9 -0.5,-1.3 -2.6,-5.7 -9.2,-8.3 -14.9,-5.8 l 0,0 z m 7.4,17 c -3.7,1.6 -7.9,-0.1 -9.5,-3.8 -1.6,-3.7 0.1,-7.9 3.7,-9.5 3.7,-1.6 7.9,0.1 9.5,3.7 1.6,3.7 0,8 -3.7,9.6 l 0,0 z m 0,0"
             id="path351"
             inkscape:connector-curvature="0"
             style="fill:#ff6860" /></g></g><g
         id="g353"><g
           id="g355"><path
             d="m 756.2,75.5 c -7.4,3.2 -10.8,11.8 -7.6,19.2 0.3,0.6 0.5,1.1 0.8,1.6 5.7,10 22.2,17.1 22.2,17.1 0.3,0.1 0.5,0.2 0.8,0.2 l 0,0 0.4,0 0.3,-0.3 0,0 c 0.1,-0.2 0.3,-0.4 0.4,-0.7 0,0 5.8,-16.9 2.4,-27.9 -0.2,-0.6 -0.4,-1.1 -0.6,-1.7 -3.1,-7.3 -11.7,-10.7 -19.1,-7.5 l 0,0 z m 9.6,22.1 c -4.7,2.1 -10.3,-0.1 -12.4,-4.9 -2.1,-4.7 0.1,-10.3 4.9,-12.4 4.7,-2.1 10.3,0.1 12.4,4.9 2,4.7 -0.2,10.3 -4.9,12.4 l 0,0 z m 0,0"
             id="path357"
             inkscape:connector-curvature="0"
             style="fill:#ff6860" /></g></g><g
         id="g359"><g
           id="g361"><path
             d="m 749.2,30.2 c 2.5,-2.6 4.1,-5.3 4.9,-8.3 0.8,-2.9 0.6,-5.7 -0.5,-8.3 -1.1,-2.6 -3,-4.6 -5.7,-6 -2.7,-1.4 -5.8,-2.1 -9.4,-2.1 -3.6,0 -7.1,0.8 -10.7,2.4 -3.5,1.5 -6.5,3.6 -9,6.2 -2.5,2.6 -4.1,5.3 -4.9,8.3 -0.8,2.9 -0.6,5.7 0.5,8.3 1,2.2 2.5,4 4.7,5.4 2.2,1.4 4.7,2.2 7.6,2.6 0,0.5 0,1 0,1.5 0,0.5 -0.1,0.9 -0.2,1.4 -0.1,0.5 -0.2,0.8 -0.3,1.1 -0.1,0.3 -0.2,0.6 -0.4,1.1 -0.2,0.5 -0.3,0.8 -0.3,1 0,0 0,0 -0.1,0.2 0,0.1 -0.1,0.2 -0.1,0.2 0,0 0,0.1 -0.1,0.2 0,0.1 0,0.2 0,0.2 l 0,0.2 c 0,0.1 0,0.1 0,0.2 0,0.1 0,0.1 0.1,0.2 0,0.1 0.1,0.1 0.1,0.2 0.1,0.2 0.3,0.4 0.6,0.4 0.2,0.1 0.5,0.1 0.7,0 l 0.1,0 c 0.9,-0.5 1.6,-1 2.2,-1.5 2.5,-2 4.6,-4.3 6.2,-6.9 1.8,-0.4 3.5,-1 5.1,-1.7 3.4,-1.8 6.4,-3.9 8.9,-6.5 l 0,0 z m 0,0"
             id="path363"
             inkscape:connector-curvature="0"
             style="fill:#84cb75" /><path
             d="m 768.1,23.2 c 0.5,-2.5 0.2,-4.9 -0.7,-7.1 -1,-2.3 -2.6,-4.1 -4.9,-5.5 -2.3,-1.4 -4.9,-2.2 -7.8,-2.5 1,1.2 1.9,2.5 2.5,3.9 1.1,2.5 1.5,5.1 1.2,7.9 -0.3,2.8 -1.2,5.5 -2.8,8.2 -1.5,2.5 -3.4,4.8 -5.8,6.8 -2.4,2 -5.1,3.7 -8,5 -0.6,0.2 -1.4,0.6 -2.5,1 4.8,0.8 9.7,0.1 14.7,-2.1 1.6,-0.7 3.2,-1.6 4.7,-2.6 3,0.6 6.1,0.7 9.3,0.2 0.7,-0.1 1.6,-0.3 2.6,-0.6 0.2,-0.1 0.4,-0.2 0.5,-0.5 0.1,-0.3 0.2,-0.5 0.1,-0.8 -0.1,-0.1 -0.1,-0.2 -0.1,-0.2 0,0 0,-0.1 -0.1,-0.2 C 770.9,34 770.9,34 770.9,34 l -0.1,-0.1 c 0,0 -0.1,-0.1 -0.2,-0.1 -0.1,0 -0.1,-0.1 -0.2,-0.1 0,0 -0.1,0 -0.2,-0.1 -0.1,0 -0.1,-0.1 -0.2,-0.1 -0.1,-0.1 -0.5,-0.2 -0.9,-0.4 -0.5,-0.2 -0.8,-0.4 -1.1,-0.5 -0.2,-0.1 -0.6,-0.3 -1,-0.5 -0.4,-0.2 -0.8,-0.5 -1.2,-0.8 -0.4,-0.3 -0.7,-0.6 -1.1,-1 1.8,-2.2 2.9,-4.6 3.4,-7.1 l 0,0 z m 0,0"
             id="path365"
             inkscape:connector-curvature="0"
             style="fill:#84cb75" /></g></g><g
         id="g4434"><path
           id="path367"
           d="m 853.6,-32 c -10.6,4.6 -12.8,14.9 -12.2,16.1 0.5,1.2 9.5,6.6 20.2,2 10.6,-4.6 12.8,-14.9 12.2,-16.1 -0.6,-1.3 -9.5,-6.7 -20.2,-2 l 0,0 z m 7,16 c -4,1.7 -8.6,0 -10.2,-3.8 -1.7,-3.9 0.2,-8.4 4.2,-10.1 4,-1.7 8.6,0 10.2,3.8 1.7,3.9 -0.2,8.4 -4.2,10.1 l 0,0 z m 0.6,-8.5 c 0.8,1.9 -0.1,4.2 -2.1,5.1 -2,0.9 -4.3,0 -5.1,-1.9 -0.8,-1.9 0.1,-4.2 2.1,-5.1 1.1,-0.5 0.5,3.1 1.5,3.5 0.8,0.3 3.2,-2.5 3.6,-1.6 l 0,0 z m 0,0"
           inkscape:connector-curvature="0"
           style="fill:#ffffff" /></g><g
         id="g369"><path
           d="m 832.3,82 -22.6,9.9 1.6,3.8 -2.7,1.2 c -0.5,0.2 -0.8,0.8 -0.6,1.3 l 0.8,1.9 c 0.2,0.5 0.9,0.8 1.4,0.6 l 2.7,-1.2 0.8,1.9 -2.7,1.2 c -0.5,0.2 -0.8,0.8 -0.6,1.3 l 0.8,1.9 c 0.2,0.5 0.9,0.8 1.4,0.6 l 2.7,-1.2 0.8,1.9 -2.7,1.2 c -0.5,0.2 -0.8,0.8 -0.6,1.3 l 0.8,1.9 c 0.2,0.5 0.9,0.8 1.4,0.6 l 2.7,-1.2 0.8,1.9 -2.7,1.2 c -0.5,0.2 -0.8,0.8 -0.6,1.3 l 0.8,1.9 c 0.2,0.5 0.9,0.8 1.4,0.6 l 2.7,-1.2 1.6,3.8 22.6,-9.8 c 1,-0.5 1.4,-1.7 1,-2.7 L 834.9,83 c -0.4,-1 -1.5,-1.4 -2.6,-1 l 0,0 z m -5.5,33.7 -3.8,1.6 -0.8,-1.9 1,-0.4 c 0.5,-0.2 0.7,-0.9 0.4,-1.4 l -0.8,-1.9 c -0.2,-0.5 -0.7,-0.7 -1.3,-0.5 l -1,0.4 -0.8,-1.9 1,-0.4 c 0.5,-0.2 0.7,-0.9 0.4,-1.4 l -0.8,-1.9 c -0.2,-0.5 -0.7,-0.7 -1.3,-0.5 l -1,0.4 -0.8,-1.9 1,-0.4 c 0.5,-0.2 0.7,-0.9 0.4,-1.4 l -0.8,-1.9 c -0.2,-0.5 -0.7,-0.7 -1.3,-0.5 l -1,0.4 -0.8,-1.9 1,-0.4 c 0.5,-0.2 0.7,-0.9 0.4,-1.4 l -0.8,-1.9 c -0.2,-0.5 -0.7,-0.7 -1.3,-0.5 l -1,0.4 -0.8,-1.9 3.8,-1.6 10.8,24.7 z m 0,0"
           id="path371"
           inkscape:connector-curvature="0"
           style="fill:#ffae00" /></g><g
         id="g373"><path
           d="m 928.4,69.3 c -0.1,-0.2 -0.2,-0.2 -0.4,-0.2 -0.1,0 -0.2,0 -0.3,0.1 -1.6,0.4 -3.2,0.9 -4.8,1.4 -1.3,0.4 -2.5,0.9 -3.8,1.4 -2.4,0.9 -4.7,2 -7,3.3 -1.4,0.8 -2.7,1.7 -3.9,2.7 -0.6,0.5 -1.2,1.1 -1.8,1.6 -0.9,0.8 -2,1.5 -3.2,1.7 -0.7,0.2 -1.5,0.3 -2.2,0.3 -1.4,0.1 -2.7,0.3 -4.1,0.6 -2.6,0.6 -5.1,1.5 -7.4,2.5 -1.8,0.8 -3.5,1.6 -5,2.5 -1.3,0.8 -2.6,1.5 -3.8,2.3 -0.3,0.2 -0.5,0.4 -0.8,0.6 -0.1,0.1 -0.2,0.2 -0.1,0.4 0.3,0.8 0.6,1.6 1,2.4 0,0.1 0.1,0.2 0.2,0.3 0.1,0.1 0.1,0.1 0.3,0.1 0.1,0 0.2,0 0.4,0 0.6,0.1 1,0.5 1.4,0.9 0.3,0.3 0.5,0.6 0.8,0.9 0.2,0.2 0.3,0.4 0.5,0.6 0.7,0.9 1.4,1.9 2.1,2.8 0.7,0.9 1.4,1.7 2.3,2.4 1,0.8 2.1,1.2 3.3,1.2 0.8,0 1.5,-0.1 2.3,-0.3 1.3,-0.3 2.6,-0.9 3.8,-1.5 1.2,-0.6 2.4,-1.4 3.5,-2.3 0.8,-0.7 1.5,-1.4 1.9,-2.4 0.7,-1.4 1.1,-2.9 1.2,-4.5 0.1,-1.6 0,-3.2 -0.2,-4.7 0,-0.5 -0.1,-0.9 -0.1,-1.4 0,-0.7 0.2,-1.2 0.8,-1.6 0.2,-0.1 0.4,-0.2 0.6,-0.3 0.5,-0.2 1,-0.3 1.4,0 0.2,0.1 0.4,0.2 0.6,0.4 0.3,0.3 0.7,0.6 1,1 1.3,1.5 2.7,2.8 4.3,4 1.3,1 2.8,1.6 4.4,1.7 1.2,0.1 2.3,0 3.4,-0.3 1.7,-0.4 3.3,-1 4.9,-1.8 0.9,-0.5 1.8,-1 2.6,-1.7 0.8,-0.7 1.5,-1.5 1.7,-2.6 0.2,-0.7 0.2,-1.4 0.2,-2.1 0,-1.5 -0.3,-2.9 -0.6,-4.4 -0.1,-0.7 -0.3,-1.4 -0.4,-2.1 -0.1,-0.4 -0.1,-0.8 -0.2,-1.1 0,-0.4 -0.1,-0.7 0,-1.1 0.1,-0.4 0.2,-0.7 0.4,-1 0.1,-0.1 0.2,-0.2 0.1,-0.4 0,-0.1 0,-0.2 -0.1,-0.3 -0.2,-0.5 -0.4,-1 -0.6,-1.4 -0.2,0.1 -0.4,-0.2 -0.6,-0.6 m -46,21.9 c -0.5,0.2 -1,0.3 -1,0.2 -0.1,-0.1 0.3,-0.4 0.8,-0.6 0.5,-0.2 1,-0.3 1,-0.2 0.1,0.1 -0.3,0.4 -0.8,0.6 m 20.3,-2.8 c 0.3,1.5 0.3,3.1 0.1,4.6 -0.1,0.8 -0.3,1.7 -0.6,2.5 -0.4,1 -1.2,1.9 -2,2.5 -1.8,1.4 -3.7,2.4 -5.9,3 -0.4,0.1 -0.9,0.2 -1.3,0.3 -0.9,0.1 -1.7,-0.1 -2.5,-0.6 -0.9,-0.5 -1.5,-1.3 -2.2,-2.1 -0.8,-1.1 -1.5,-2.2 -2.1,-3.3 -0.4,-0.7 -0.7,-1.4 -0.9,-2.1 -0.1,-0.4 -0.2,-0.7 -0.3,-1.1 -0.2,-1.3 0.2,-2.4 1.2,-3.3 1,-0.8 2,-1.4 3.1,-2 0.8,-0.4 1.6,-0.8 2.2,-1.1 1.9,-0.8 3.6,-1.4 5.4,-1.7 0.7,-0.1 1.4,-0.3 2.2,-0.2 0.4,0 0.7,0.1 1.1,0.2 0.6,0.2 1,0.5 1.3,1 0.6,1 1,2.2 1.2,3.4 m 24.7,-11.5 c 0.7,1.7 1.1,3.5 1.2,5.3 0,0.7 0,1.5 -0.3,2.2 -0.3,0.8 -0.9,1.4 -1.5,1.9 -0.8,0.6 -1.7,1.1 -2.7,1.5 -1.4,0.6 -2.9,1.1 -4.4,1.4 -1.5,0.3 -2.9,0.1 -4.3,-0.6 -1.7,-0.9 -3.1,-2.2 -4.3,-3.8 -0.5,-0.7 -1,-1.5 -1.4,-2.3 -0.1,-0.4 -0.3,-0.7 -0.4,-1.1 -0.2,-0.9 0.1,-1.8 0.7,-2.4 0.7,-0.7 1.4,-1.3 2.2,-1.8 0.9,-0.6 1.8,-1.2 2.7,-1.7 0.7,-0.4 1.5,-0.7 2,-1 2.1,-0.8 3.9,-1.4 5.9,-1.7 0.4,0 0.7,0 1.1,0 0.3,0 0.7,0.1 0.9,0.4 0.3,0.2 0.6,0.5 0.9,0.8 0.3,0.3 0.5,0.7 0.7,1.1 0.5,0.6 0.8,1.2 1,1.8 m -0.3,-5.2 c -0.5,0.2 -1,0.3 -1,0.2 -0.1,-0.1 0.3,-0.4 0.8,-0.6 0.5,-0.2 1,-0.3 1,-0.2 0.1,0.1 -0.3,0.4 -0.8,0.6"
           id="path375"
           inkscape:connector-curvature="0"
           style="fill:#232323" /></g><g
         id="g377"><path
           d="m 859,47.4 -0.3,-0.6 c -0.3,-0.7 -1.2,-1.1 -1.9,-0.7 -0.7,0.3 -1.1,1.2 -0.8,1.9 l 0.3,0.6 c 0.3,0.7 1.2,1.1 1.9,0.7 0.8,-0.3 1.1,-1.2 0.8,-1.9 l 0,0 z m 0,0"
           id="path379"
           inkscape:connector-curvature="0"
           style="fill:#05ccb9" /><path
           d="m 860.2,47.7 c 0.1,1.1 -0.5,2.2 -1.5,2.7 -1.1,0.5 -2.3,0.1 -3,-0.7 l -9.2,4 c -0.6,0.3 -1.2,0.4 -1.8,0.3 l 2.7,6.1 c 0.5,1.2 1.9,1.7 3.1,1.2 l 21.7,-9.5 c 1.2,-0.5 1.7,-1.9 1.2,-3.1 l -2.7,-6.1 c -0.4,0.4 -0.9,0.8 -1.5,1.1 l -9,4 z m 0,0"
           id="path381"
           inkscape:connector-curvature="0"
           style="fill:#05ccb9" /><path
           d="m 864.5,32.8 -5.2,2.3 c -1.2,-1.8 -3.5,-2.6 -5.6,-1.7 l -4.2,1.8 c -2,0.9 -3.1,3.1 -2.5,5.2 l -5.2,2.3 c -1.2,0.5 -1.8,2 -1.3,3.1 l 2.2,5 c 0.5,1.2 1.9,1.7 3.1,1.2 l 9.1,-4 c -0.2,-0.6 -0.2,-1.3 0,-1.9 0,0 0,0 0,-0.1 0.1,-0.1 0.1,-0.3 0.2,-0.4 0,0 0.1,-0.1 0.1,-0.1 0.1,-0.1 0.1,-0.2 0.2,-0.3 0.1,-0.1 0.1,-0.1 0.2,-0.2 0.1,-0.1 0.1,-0.1 0.2,-0.1 0.1,-0.1 0.3,-0.2 0.4,-0.3 0.2,-0.1 0.3,-0.1 0.5,-0.2 0.1,0 0.1,0 0.2,0 0.1,0 0.2,0 0.3,0 0.1,0 0.2,0 0.3,0 0.1,0 0.1,0 0.2,0 0.1,0 0.3,0.1 0.4,0.1 0,0 0,0 0.1,0 0.6,0.2 1.1,0.7 1.4,1.3 l 9.1,-4 c 1.2,-0.5 1.7,-1.9 1.2,-3.1 l -2.2,-5 c -0.5,-0.9 -1.9,-1.4 -3.2,-0.9 l 0,0 z m -15.3,6.7 c -0.1,-1 0.4,-1.9 1.3,-2.3 l 4.2,-1.8 c 0.9,-0.4 2,-0.1 2.6,0.6 l -8.1,3.5 z m 0,0"
           id="path383"
           inkscape:connector-curvature="0"
           style="fill:#05ccb9" /></g><g
         id="g385"><path
           d="m 901.1,30.7 c 1.3,-0.6 1.8,-1.9 1.4,-3.2 L 900.9,22 c -0.5,-1.2 -2,-1.7 -3.3,-1.2 l -5.7,2.5 c -1.3,0.6 -1.9,2 -1.4,3.2 l 2.9,4.9 c 0.8,1.4 2,1.7 3.3,1.2 1,-0.4 1.1,-0.8 2.2,-1.3 1.2,-0.5 1.6,-0.3 2.2,-0.6"
           id="path387"
           inkscape:connector-curvature="0"
           style="fill:#ee4047" /><path
           d="m 910.3,43.8 -8.5,10.7 0.5,2 8.9,-11.2 -0.9,-1.5 z m 0,0"
           id="path389"
           inkscape:connector-curvature="0"
           style="fill:#ee4047" /><path
           d="m 906.3,37.7 -6.6,8.3 1.8,7.4 8.3,-10.4 -3.5,-5.3 z m 0,0"
           id="path391"
           inkscape:connector-curvature="0"
           style="fill:#ee4047" /><path
           d="m 899.4,44.9 6.4,-8 -0.8,-1.3 -6,7.5 0.4,1.8 z m 0,0"
           id="path393"
           inkscape:connector-curvature="0"
           style="fill:#ee4047" /><path
           d="m 904.9,64.4 1.9,0.9 9.6,-12.1 -4.2,-6.5 -9.4,11.8 0.6,2.6 c 0.2,0.6 0.3,2.8 1.5,3.3"
           id="path395"
           inkscape:connector-curvature="0"
           style="fill:#ee4047" /><path
           d="m 910.6,67.2 3.6,1.8 c 1.2,0.5 1.4,0.5 1.8,-0.8 l 3,-10 c 0.2,-0.5 0.1,-0.9 -0.1,-1.4 l -8.3,10.4 z m 0,0"
           id="path397"
           inkscape:connector-curvature="0"
           style="fill:#ee4047" /><path
           d="m 903.9,34 -1.6,-2.4 c -1.2,-0.5 -5.3,1.2 -5.7,2.5 l 1.7,6.9 5.6,-7 z m 0,0"
           id="path399"
           inkscape:connector-curvature="0"
           style="fill:#ee4047" /><path
           d="m 917.6,55 -0.1,-0.2 -9,11.3 1.3,0.7 8.6,-10.8 c -0.4,-0.4 -0.7,-0.7 -0.8,-1"
           id="path401"
           inkscape:connector-curvature="0"
           style="fill:#ee4047" /></g><g
         id="g403"><path
           d="m 854.1,123.9 c -2.6,-3.8 -10.8,-3.1 -11.1,0.7 -3,-2.4 -9.1,3.2 -8.1,7.7 0.8,4.8 -4.3,8.5 -8.5,7.6 2.1,4.9 7.5,2.7 10.9,1.6 7.6,-3.7 8.5,-8.4 8.5,-10.3 1.4,1.3 5.5,3.8 13.4,0.8 3.1,-1.7 8.4,-4.1 6.3,-9 -2.3,3.5 -8.5,4.8 -11.4,0.9 l 0,0 z m 0,0"
           id="path405"
           inkscape:connector-curvature="0"
           style="fill:#111111" /></g><g
         id="g407"><g
           id="g409"><path
             d="m 855.8,72.2 c -5.7,2.5 -8.3,9.1 -5.8,14.8 0.2,0.4 0.4,0.8 0.7,1.2 4.4,7.7 17.2,13.2 17.2,13.2 0.2,0.1 0.4,0.1 0.6,0.2 l 0,0 0.3,0 0.2,-0.2 0,0 c 0.1,-0.1 0.2,-0.3 0.3,-0.6 0,0 4.5,-13.1 1.8,-21.5 -0.1,-0.4 -0.3,-0.9 -0.5,-1.3 -2.5,-5.7 -9.1,-8.3 -14.8,-5.8 l 0,0 z m 7.4,17 c -3.7,1.6 -7.9,-0.1 -9.5,-3.8 -1.6,-3.7 0.1,-7.9 3.7,-9.5 3.7,-1.6 7.9,0.1 9.5,3.7 1.6,3.7 0,8 -3.7,9.6 l 0,0 z m 0,0"
             id="path411"
             inkscape:connector-curvature="0"
             style="fill:#ff6860" /></g></g><g
         id="g413"><path
           d="m 891.3,123.8 -0.3,-0.6 c -0.3,-0.7 -1.2,-1.1 -1.9,-0.7 -0.7,0.3 -1.1,1.2 -0.7,1.9 l 0.3,0.6 c 0.3,0.7 1.2,1.1 1.9,0.7 0.6,-0.4 1,-1.2 0.7,-1.9 l 0,0 z m 0,0"
           id="path415"
           inkscape:connector-curvature="0"
           style="fill:#05ccb9" /><path
           d="m 892.5,124.1 c 0.1,1.1 -0.5,2.2 -1.5,2.7 -1.1,0.5 -2.3,0.1 -3,-0.7 l -9.2,4 c -0.6,0.3 -1.2,0.4 -1.8,0.3 l 2.7,6.1 c 0.5,1.2 1.9,1.7 3.1,1.2 l 21.7,-9.5 c 1.2,-0.5 1.7,-1.9 1.2,-3.1 L 903,119 c -0.4,0.4 -0.9,0.8 -1.5,1.1 l -9,4 z m 0,0"
           id="path417"
           inkscape:connector-curvature="0"
           style="fill:#05ccb9" /><path
           d="m 896.8,109.2 -5.2,2.3 c -1.2,-1.8 -3.5,-2.6 -5.6,-1.7 l -4.2,1.8 c -2,0.9 -3.1,3.1 -2.5,5.2 l -5.2,2.3 c -1.2,0.5 -1.8,2 -1.3,3.1 l 2.2,5 c 0.5,1.2 1.9,1.7 3.1,1.2 l 9.1,-4 c -0.2,-0.6 -0.2,-1.3 0,-1.9 0,0 0,0 0,-0.1 0.1,-0.1 0.1,-0.3 0.2,-0.4 0,0 0.1,-0.1 0.1,-0.1 0.1,-0.1 0.1,-0.2 0.2,-0.3 0.1,-0.1 0.1,-0.1 0.2,-0.2 0.1,-0.1 0.1,-0.1 0.2,-0.1 0.1,-0.1 0.3,-0.2 0.4,-0.3 0.2,-0.1 0.3,-0.1 0.5,-0.2 0.1,0 0.1,0 0.2,0 0.1,0 0.2,0 0.3,0 0.1,0 0.2,0 0.3,0 0.1,0 0.1,0 0.2,0 0.1,0 0.3,0.1 0.4,0.1 0,0 0,0 0.1,0 0.6,0.2 1.1,0.7 1.4,1.3 l 9.1,-4 c 1.2,-0.5 1.7,-1.9 1.2,-3.1 l -2.2,-5 c -0.5,-0.9 -2,-1.4 -3.2,-0.9 l 0,0 z m -15.4,6.7 c -0.1,-1 0.4,-1.9 1.3,-2.3 l 4.2,-1.8 c 0.9,-0.4 2,-0.1 2.6,0.6 l -8.1,3.5 z m 0,0"
           id="path419"
           inkscape:connector-curvature="0"
           style="fill:#05ccb9" /></g><g
         id="g421"><g
           id="g423"><path
             d="M 838,122.4"
             id="path425"
             inkscape:connector-curvature="0"
             style="fill:#ffffff" /></g></g><g
         id="g427"><path
           d="m 917.9,106.8 c 1.3,-0.6 1.8,-1.9 1.4,-3.2 l -1.6,-5.5 c -0.5,-1.2 -2,-1.7 -3.3,-1.2 l -5.7,2.5 c -1.3,0.6 -1.9,2 -1.4,3.2 l 2.9,4.9 c 0.8,1.4 2,1.7 3.3,1.2 1,-0.4 1.1,-0.8 2.2,-1.3 1.3,-0.5 1.6,-0.3 2.2,-0.6"
           id="path429"
           inkscape:connector-curvature="0"
           style="fill:#ee4047" /><path
           d="m 927.1,119.9 -8.5,10.7 0.5,2 8.9,-11.2 -0.9,-1.5 z m 0,0"
           id="path431"
           inkscape:connector-curvature="0"
           style="fill:#ee4047" /><path
           d="m 923.1,113.8 -6.6,8.3 1.8,7.4 8.3,-10.4 -3.5,-5.3 z m 0,0"
           id="path433"
           inkscape:connector-curvature="0"
           style="fill:#ee4047" /><path
           d="m 916.2,121.1 6.4,-8 -0.8,-1.3 -6,7.5 0.4,1.8 z m 0,0"
           id="path435"
           inkscape:connector-curvature="0"
           style="fill:#ee4047" /><path
           d="m 921.7,140.5 1.9,0.9 9.6,-12.1 -4.2,-6.5 -9.4,11.8 0.6,2.6 c 0.2,0.6 0.3,2.8 1.5,3.3"
           id="path437"
           inkscape:connector-curvature="0"
           style="fill:#ee4047" /><path
           d="m 927.4,143.4 3.6,1.8 c 1.2,0.5 1.4,0.5 1.8,-0.8 l 3,-10 c 0.2,-0.5 0.1,-0.9 -0.1,-1.4 l -8.3,10.4 z m 0,0"
           id="path439"
           inkscape:connector-curvature="0"
           style="fill:#ee4047" /><path
           d="m 920.7,110.2 -1.6,-2.4 c -1.2,-0.5 -5.3,1.2 -5.7,2.5 l 1.7,6.9 5.6,-7 z m 0,0"
           id="path441"
           inkscape:connector-curvature="0"
           style="fill:#ee4047" /><path
           d="m 934.4,131.1 -0.1,-0.2 -9,11.3 1.3,0.7 8.6,-10.8 c -0.4,-0.3 -0.7,-0.7 -0.8,-1"
           id="path443"
           inkscape:connector-curvature="0"
           style="fill:#ee4047" /></g><g
         id="g445"><g
           id="g447"><path
             d="m 872.6,153.2 c -7.2,3.1 -10.4,11.5 -7.3,18.6 0.2,0.6 0.5,1.1 0.8,1.6 5.5,9.6 21.5,16.6 21.5,16.6 0.3,0.1 0.5,0.2 0.8,0.2 l 0,0 0.4,0 0.3,-0.3 0,0 c 0.1,-0.2 0.3,-0.4 0.4,-0.7 0,0 5.7,-16.4 2.3,-27 -0.2,-0.5 -0.4,-1.1 -0.6,-1.6 -3.1,-7.2 -11.4,-10.5 -18.6,-7.4 l 0,0 z m 9.3,21.4 c -4.6,2 -10,-0.1 -12,-4.7 -2,-4.6 0.1,-10 4.7,-12 4.6,-2 10,0.1 12,4.7 2,4.6 -0.1,9.9 -4.7,12 l 0,0 z m 0,0"
             id="path449"
             inkscape:connector-curvature="0"
             style="fill:#ff6860" /></g></g><g
         id="g451"><g
           id="g453"><path
             d="m 803.9,167.6 c 2.5,-2.6 4.1,-5.3 4.9,-8.3 0.8,-2.9 0.6,-5.7 -0.5,-8.3 -1.1,-2.6 -3,-4.6 -5.7,-6 -2.7,-1.4 -5.8,-2.1 -9.4,-2.1 -3.6,0 -7.1,0.8 -10.7,2.4 -3.5,1.5 -6.5,3.6 -9,6.2 -2.5,2.6 -4.1,5.3 -4.9,8.3 -0.8,2.9 -0.6,5.7 0.5,8.3 1,2.2 2.5,4 4.7,5.4 2.2,1.4 4.7,2.2 7.6,2.6 0,0.5 0,1 0,1.5 0,0.5 -0.1,0.9 -0.2,1.4 -0.1,0.5 -0.2,0.8 -0.3,1.1 -0.1,0.3 -0.2,0.6 -0.4,1.1 -0.2,0.5 -0.3,0.8 -0.3,1 0,0 0,0 -0.1,0.2 0,0.1 -0.1,0.2 -0.1,0.2 0,0 0,0.1 -0.1,0.2 0,0.1 0,0.2 0,0.2 l 0,0.2 c 0,0.1 0,0.1 0,0.2 0,0.1 0,0.1 0.1,0.2 0,0.1 0.1,0.1 0.1,0.2 0.1,0.2 0.3,0.4 0.6,0.4 0.2,0.1 0.5,0.1 0.7,0 l 0.1,0 c 0.9,-0.5 1.6,-1 2.2,-1.5 2.5,-2 4.6,-4.3 6.2,-6.9 1.8,-0.4 3.5,-1 5.1,-1.7 3.5,-1.8 6.5,-3.9 8.9,-6.5 l 0,0 z m 0,0"
             id="path455"
             inkscape:connector-curvature="0"
             style="fill:#84cb75" /><path
             d="m 822.8,160.6 c 0.5,-2.5 0.2,-4.9 -0.7,-7.1 -1,-2.3 -2.6,-4.1 -4.9,-5.5 -2.3,-1.4 -4.9,-2.2 -7.8,-2.5 1,1.2 1.9,2.5 2.5,3.9 1.1,2.5 1.5,5.1 1.2,7.9 -0.3,2.8 -1.2,5.5 -2.8,8.2 -1.5,2.5 -3.4,4.8 -5.8,6.8 -2.4,2 -5.1,3.7 -8,5 -0.6,0.2 -1.4,0.6 -2.5,1 4.8,0.8 9.7,0.1 14.7,-2.1 1.6,-0.7 3.2,-1.6 4.7,-2.6 3,0.6 6.1,0.7 9.3,0.2 0.7,-0.1 1.6,-0.3 2.6,-0.6 0.2,-0.1 0.4,-0.2 0.5,-0.5 0.1,-0.2 0.2,-0.5 0.1,-0.8 -0.1,-0.1 -0.1,-0.2 -0.1,-0.2 0,0 0,-0.1 -0.1,-0.2 -0.1,-0.1 -0.1,-0.1 -0.1,-0.1 l -0.1,-0.1 c 0,0 -0.1,-0.1 -0.2,-0.1 -0.1,0 -0.1,-0.1 -0.2,-0.1 0,0 -0.1,0 -0.2,-0.1 -0.1,0 -0.1,-0.1 -0.2,-0.1 -0.1,-0.1 -0.5,-0.2 -0.9,-0.4 -0.5,-0.2 -0.8,-0.4 -1.1,-0.5 -0.2,-0.1 -0.6,-0.3 -1,-0.5 -0.4,-0.2 -0.8,-0.5 -1.2,-0.8 -0.4,-0.3 -0.7,-0.6 -1.1,-1 1.8,-2.1 2.9,-4.6 3.4,-7.1 l 0,0 z m 0,0"
             id="path457"
             inkscape:connector-curvature="0"
             style="fill:#84cb75" /></g></g><g
         id="g459"><path
           d="m 887.1,219.4 -22.6,9.9 1.6,3.8 -2.7,1.2 c -0.5,0.2 -0.8,0.8 -0.6,1.3 l 0.8,1.9 c 0.2,0.5 0.9,0.8 1.4,0.6 l 2.7,-1.2 0.8,1.9 -2.7,1.2 c -0.5,0.2 -0.8,0.8 -0.6,1.3 l 0.8,1.9 c 0.2,0.5 0.9,0.8 1.4,0.6 l 2.7,-1.2 0.8,1.9 -2.7,1.2 c -0.5,0.2 -0.8,0.8 -0.6,1.3 l 0.8,1.9 c 0.2,0.5 0.9,0.8 1.4,0.6 l 2.7,-1.2 0.8,1.9 -2.7,1.2 c -0.5,0.2 -0.8,0.8 -0.6,1.3 l 0.8,1.9 c 0.2,0.5 0.9,0.8 1.4,0.6 l 2.7,-1.2 1.6,3.8 22.6,-9.9 c 1,-0.5 1.4,-1.7 1,-2.7 l -10.6,-24.4 c -0.3,-1.4 -1.4,-1.8 -2.4,-1.4 l 0,0 z m -5.5,33.7 -3.8,1.6 -0.8,-1.9 1,-0.4 c 0.5,-0.2 0.7,-0.9 0.4,-1.4 l -0.8,-1.9 c -0.2,-0.5 -0.7,-0.7 -1.3,-0.5 l -1,0.4 -0.8,-1.9 1,-0.4 c 0.5,-0.2 0.7,-0.9 0.4,-1.4 l -0.8,-1.9 c -0.2,-0.5 -0.7,-0.7 -1.3,-0.5 l -1,0.4 -0.8,-1.9 1,-0.4 c 0.5,-0.2 0.7,-0.9 0.4,-1.4 l -0.8,-1.9 c -0.2,-0.5 -0.7,-0.7 -1.3,-0.5 l -1,0.4 -0.8,-1.9 1,-0.4 c 0.5,-0.2 0.7,-0.9 0.4,-1.4 l -0.8,-1.9 c -0.2,-0.5 -0.7,-0.7 -1.3,-0.5 l -1,0.4 -0.8,-1.9 3.8,-1.6 10.8,24.7 z m 0,0"
           id="path461"
           inkscape:connector-curvature="0"
           style="fill:#ffae00" /></g><g
         id="g463"><path
           d="m 918.5,193.8 -0.3,-0.6 c -0.3,-0.7 -1.2,-1.1 -1.9,-0.7 -0.7,0.3 -1.1,1.2 -0.8,1.9 l 0.3,0.6 c 0.3,0.7 1.2,1.1 1.9,0.7 0.8,-0.4 1.1,-1.2 0.8,-1.9 l 0,0 z m 0,0"
           id="path465"
           inkscape:connector-curvature="0"
           style="fill:#05ccb9" /><path
           d="m 919.7,194.1 c 0.1,1.1 -0.5,2.2 -1.5,2.7 -1.1,0.5 -2.3,0.1 -3,-0.7 l -9.2,4 c -0.6,0.3 -1.2,0.4 -1.8,0.3 l 2.7,6.1 c 0.5,1.2 1.9,1.7 3.1,1.2 l 21.7,-9.5 c 1.2,-0.5 1.7,-1.9 1.2,-3.1 l -2.7,-6.1 c -0.4,0.4 -0.9,0.8 -1.5,1.1 l -9,4 z m 0,0"
           id="path467"
           inkscape:connector-curvature="0"
           style="fill:#05ccb9" /><path
           d="m 924,179.2 -5.2,2.3 c -1.2,-1.8 -3.5,-2.6 -5.6,-1.7 l -4.2,1.8 c -2,0.9 -3.1,3.1 -2.5,5.2 l -5.2,2.3 c -1.2,0.5 -1.8,2 -1.3,3.1 l 2.2,5 c 0.5,1.2 1.9,1.7 3.1,1.2 l 9.1,-4 c -0.2,-0.6 -0.2,-1.3 0,-1.9 0,0 0,0 0,-0.1 0.1,-0.1 0.1,-0.2 0.2,-0.4 0,0 0.1,-0.1 0.1,-0.1 0.1,-0.1 0.1,-0.2 0.2,-0.3 0.1,-0.1 0.1,-0.1 0.2,-0.2 0.1,-0.1 0.1,-0.1 0.2,-0.1 0.1,-0.1 0.3,-0.2 0.4,-0.3 0.2,-0.1 0.3,-0.1 0.5,-0.2 0.1,0 0.1,0 0.2,0 0.1,0 0.2,0 0.3,0 0.1,0 0.2,0 0.3,0 0.1,0 0.1,0 0.2,0 0.1,0 0.3,0.1 0.4,0.1 0,0 0,0 0.1,0 0.6,0.2 1.1,0.7 1.4,1.3 l 9.1,-4 c 1.2,-0.5 1.7,-1.9 1.2,-3.1 l -2.2,-5 c -0.5,-0.9 -1.9,-1.4 -3.2,-0.9 l 0,0 z m -15.3,6.7 c -0.1,-1 0.4,-1.9 1.3,-2.3 l 4.2,-1.8 c 0.9,-0.4 2,-0.1 2.6,0.6 l -8.1,3.5 z m 0,0"
           id="path469"
           inkscape:connector-curvature="0"
           style="fill:#05ccb9" /></g><g
         id="g471"><path
           d="m 918.3,254.9 c -2,-2.9 -8.2,-2.4 -8.5,0.5 -2.3,-1.8 -6.9,2.4 -6.1,5.8 0.6,3.7 -3.3,6.4 -6.4,5.8 1.6,3.7 5.7,2 8.2,1.2 5.8,-2.8 6.4,-6.4 6.5,-7.8 1.1,1 4.1,2.9 10.1,0.6 2.4,-1.3 6.4,-3.1 4.7,-6.8 -1.5,2.7 -6.2,3.7 -8.5,0.7 l 0,0 z m 0,0"
           id="path473"
           inkscape:connector-curvature="0"
           style="fill:#111111" /></g><g
         id="g475"><g
           id="g477"><path
             d="m 909.4,215.7 c -5.7,2.5 -8.3,9.1 -5.8,14.8 0.2,0.4 0.4,0.8 0.7,1.2 4.4,7.7 17.2,13.2 17.2,13.2 0.2,0.1 0.4,0.1 0.6,0.2 l 0,0 0.3,0 0.2,-0.2 0,0 c 0.1,-0.1 0.2,-0.3 0.3,-0.6 0,0 4.5,-13.1 1.8,-21.5 -0.1,-0.4 -0.3,-0.9 -0.5,-1.3 -2.5,-5.7 -9.1,-8.3 -14.8,-5.8 l 0,0 z m 7.4,17 c -3.7,1.6 -7.9,-0.1 -9.5,-3.8 -1.6,-3.7 0.1,-7.9 3.7,-9.5 3.7,-1.6 7.9,0.1 9.5,3.7 1.6,3.7 -0.1,8 -3.7,9.6 l 0,0 z m 0,0"
             id="path479"
             inkscape:connector-curvature="0"
             style="fill:#ff6860" /></g></g><g
         id="g481"><g
           id="g483"><path
             d="m 848.2,224.3 c 2.5,-2.6 4.1,-5.3 4.9,-8.3 0.8,-2.9 0.6,-5.7 -0.5,-8.3 -1.1,-2.6 -3,-4.6 -5.7,-6 -2.7,-1.4 -5.8,-2.1 -9.4,-2.1 -3.6,0 -7.1,0.8 -10.7,2.4 -3.5,1.5 -6.5,3.6 -9,6.2 -2.5,2.6 -4.1,5.3 -4.9,8.3 -0.8,2.9 -0.6,5.7 0.5,8.3 1,2.2 2.5,4 4.7,5.4 2.2,1.4 4.7,2.2 7.6,2.6 0,0.5 0,1 0,1.5 0,0.5 -0.1,0.9 -0.2,1.4 -0.1,0.5 -0.2,0.8 -0.3,1.1 -0.1,0.3 -0.2,0.6 -0.4,1.1 -0.2,0.5 -0.3,0.8 -0.3,1 0,0 0,0 -0.1,0.2 0,0.1 -0.1,0.2 -0.1,0.2 0,0 0,0.1 -0.1,0.2 0,0.1 0,0.2 0,0.2 l 0,0.2 c 0,0.1 0,0.1 0,0.2 0,0.1 0,0.1 0.1,0.2 0,0.1 0.1,0.1 0.1,0.2 0.1,0.2 0.3,0.4 0.6,0.4 0.2,0.1 0.5,0.1 0.7,0 l 0.1,0 c 0.9,-0.5 1.6,-1 2.2,-1.5 2.5,-2 4.6,-4.3 6.2,-6.9 1.8,-0.4 3.5,-1 5.1,-1.7 3.4,-1.9 6.4,-4 8.9,-6.5 l 0,0 z m 0,0"
             id="path485"
             inkscape:connector-curvature="0"
             style="fill:#84cb75" /><path
             d="m 867.1,217.3 c 0.5,-2.5 0.2,-4.9 -0.7,-7.1 -1,-2.3 -2.6,-4.1 -4.9,-5.5 -2.3,-1.4 -4.9,-2.2 -7.8,-2.5 1,1.2 1.9,2.5 2.5,3.9 1.1,2.5 1.5,5.1 1.2,7.9 -0.3,2.8 -1.2,5.5 -2.8,8.2 -1.5,2.5 -3.4,4.8 -5.8,6.8 -2.4,2 -5.1,3.7 -8,5 -0.6,0.2 -1.4,0.6 -2.5,1 4.8,0.8 9.7,0.1 14.7,-2.1 1.6,-0.7 3.2,-1.6 4.7,-2.6 3,0.6 6.1,0.7 9.3,0.2 0.7,-0.1 1.6,-0.3 2.6,-0.6 0.2,-0.1 0.4,-0.2 0.5,-0.5 0.1,-0.3 0.2,-0.5 0.1,-0.8 -0.1,-0.1 -0.1,-0.2 0,-0.2 0,0 0,-0.1 -0.1,-0.2 -0.1,-0.1 -0.1,-0.1 -0.1,-0.1 l -0.1,-0.1 c 0,0 -0.1,-0.1 -0.2,-0.1 -0.1,0 -0.1,-0.1 -0.2,-0.1 0,0 -0.1,0 -0.2,-0.1 -0.1,0 -0.1,-0.1 -0.2,-0.1 -0.1,-0.1 -0.5,-0.2 -0.9,-0.4 -0.5,-0.2 -0.8,-0.4 -1.1,-0.5 -0.2,-0.1 -0.6,-0.3 -1,-0.5 -0.4,-0.2 -0.8,-0.5 -1.2,-0.8 -0.4,-0.3 -0.7,-0.6 -1.1,-1 1.7,-2.2 2.8,-4.6 3.3,-7.1 l 0,0 z m 0,0"
             id="path487"
             inkscape:connector-curvature="0"
             style="fill:#84cb75" /></g></g></g></g><g
     id="g495"><g
       id="Waves2"
       inkscape:label="#g4472"><path
         id="path497"
         d="M457.9,300.4c0.6-0.3,0.8-1,0.4-1.6c-0.3-0.5-1-0.7-1.6-0.4l-12.5,7.1l2.1-3.8l-14,8l1.5-4.2l-19.3,11   c-0.6,0.3-0.7,1-0.4,1.6c0.2,0.4,0.6,0.6,1,0.6c0.2,0,0.4-0.1,0.6-0.2l13.9-7.9l-1.5,4.2l12.2-6.9l-2.1,3.8L457.9,300.4z"
         fill="#FFFFFF" /><path
         id="path499"
         d="M419.6,303.3l11.4-10.3l-1.1,4.7l16.9-15.2c0.2-0.2,0.3-0.4,0.3-0.6c0-0.2-0.1-0.5-0.2-0.7   c-0.3-0.4-0.9-0.4-1.3-0.1L433,292.4l1.1-4.7L421.7,299l0.3-5l-16.7,15.1c-0.2,0.2-0.3,0.4-0.3,0.6c0,0.2,0.1,0.5,0.2,0.7   c0.2,0.2,0.4,0.3,0.7,0.3c0.1,0,0.3,0,0.4-0.1c0.1,0,0.2-0.1,0.2-0.2l13.4-12.1L419.6,303.3z"
         fill="#FFFFFF" /><path
         id="path501"
         d="M472.2,313l-27.2,2.7l5,2.8l-18.2,1.8l4.7,3.7l-21.5,2.1c-0.3,0-0.6,0.2-0.7,0.4c-0.2,0.2-0.3,0.5-0.2,0.8   c0.1,0.6,0.5,1,1.1,1l27-2.7l-4.7-3.7l19.9-2l-5-2.8l20-2c0.1,0,0.2,0,0.3-0.1c0.4-0.2,0.7-0.6,0.6-1.1   C473.2,313.4,472.7,313,472.2,313z M415.1,327.9L415.1,327.9L415.1,327.9L415.1,327.9z"
         fill="#FFFFFF" /></g><g
       id="Waves1"
       inkscape:label="#g4467"><path
         id="path503"
         d="M383.5,260.7c0.2,0,0.5-0.1,0.7-0.2l21.5-12.8l-4.9-0.9l15.6-9.3l-4.9,0l13.9-8.3c0.6-0.4,0.8-1.2,0.4-1.8   c-0.4-0.6-1.2-0.8-1.8-0.5l-22,13.1l4.9,0l-13.5,8.1l4.9,0.9l-15.5,9.2c-0.6,0.4-0.8,1.2-0.4,1.8   C382.6,260.4,383,260.7,383.5,260.7z"
         fill="#FFFFFF" /><path
         id="path505"
         d="M405.2,260.4l19.4-6.4l-5.6-1.6l19.5-6.5c0.3-0.1,0.5-0.3,0.6-0.6c0.1-0.3,0.2-0.6,0.1-0.9   c-0.2-0.6-0.8-0.9-1.4-0.7l-26.3,8.7l5.6,1.6l-17.7,5.9l5.5,2.7l-21,7c-0.1,0-0.2,0.1-0.3,0.2c-0.4,0.3-0.5,0.8-0.4,1.2   c0.2,0.5,0.6,0.8,1.1,0.8c0.1,0,0.2,0,0.4-0.1l26.1-8.7L405.2,260.4z"
         fill="#FFFFFF" /><path
         id="path507"
         d="M389.4,240.7l12.6-17.9l-0.1,6.9l18.7-26.6c0.2-0.3,0.3-0.6,0.2-1c-0.1-0.3-0.3-0.6-0.5-0.8   c-0.4-0.3-1.1-0.3-1.5,0c-0.1,0.1-0.2,0.2-0.3,0.3l-13.9,19.7l0.1-6.9L391,234l-1.1-7.1l-18.6,26.4c-0.2,0.3-0.3,0.6-0.2,1   c0.1,0.3,0.3,0.6,0.5,0.8c0.2,0.2,0.5,0.2,0.8,0.2c0.4,0,0.8-0.2,1.1-0.6l14.9-21.2L389.4,240.7z"
         fill="#FFFFFF" /></g></g><pattern
     id="SVGID_4_"
     xlink:href="#Unnamed_Pattern"
     patternTransform="matrix(1.0779 0 0 1.3398 1746.29 2926.5095)" /><g
     id="g4435"
     transform="translate(0,20)"><path
       style="fill:#fee252;fill-opacity:1;opacity:0"
       id="path516"
       d="m 788.3,177.9 c 0,8.9 -5.8,16.1 -12.9,16.1 l -176.8,0 c -7.1,0 -12.9,-7.2 -12.9,-16.1 l 0,-51.2 c 0,-8.9 5.8,-16.1 12.9,-16.1 l 176.8,0 c 7.1,0 12.9,7.2 12.9,16.1 l 0,51.2 z"
       inkscape:connector-curvature="0" /><g
       id="g574"><g
         id="g576"
         style="opacity:0.15"><path
           id="path578"
           d="m 603.5,138.9 0,0 c 0,-5.3 4.3,-9.5 9.9,-9.5 5.6,0 9.8,4.1 9.8,9.4 l 0,0.1 c 0,5.2 -4.3,9.4 -9.9,9.4 -5.6,0 -9.8,-4.2 -9.8,-9.4 z m 13.6,0 0,0 c 0,-2.2 -1.5,-4.1 -3.8,-4.1 -2.3,0 -3.7,1.9 -3.7,4 l 0,0.1 c 0,2.1 1.5,4.1 3.8,4.1 2.2,-0.1 3.7,-2 3.7,-4.1 z"
           inkscape:connector-curvature="0" /><path
           id="path580"
           d="m 624.7,139.8 0,-10 6.1,0 0,9.9 c 0,2.2 1.2,3.2 2.8,3.2 1.6,0 2.8,-0.9 2.8,-3.1 l 0,-10 6.1,0 0,9.8 c 0,6.2 -3.6,8.6 -9,8.6 -5.4,0 -8.8,-2.5 -8.8,-8.4 z"
           inkscape:connector-curvature="0" /><path
           id="path582"
           d="m 644.4,129.8 8.8,0 c 3.2,0 5.2,0.8 6.5,2.1 1.1,1.1 1.7,2.4 1.7,4.3 l 0,0.1 c 0,2.6 -1.4,4.5 -3.6,5.5 l 4.2,6.1 -6.9,0 -3.4,-5.2 -1.3,0 0,5.2 -6,0 0,-18.1 z m 8.7,8.6 c 1.4,0 2.3,-0.6 2.3,-1.8 l 0,-0.1 c 0,-1.2 -0.9,-1.7 -2.3,-1.7 l -2.6,0 0,3.5 2.6,0 z"
           inkscape:connector-curvature="0" /><path
           id="path584"
           d="m 669.4,129.8 10.1,0 c 2.5,0 4.1,0.6 5.1,1.6 0.6,0.6 1.1,1.6 1.1,2.8 l 0,0.1 c 0,2.1 -1.3,3.5 -3.2,4.1 2.3,0.7 3.8,1.9 3.8,4.4 l 0,0.1 c 0,2.9 -2.4,5 -6.9,5 l -10,0 0,-18.1 z m 10.4,5.8 c 0,-0.8 -0.6,-1.2 -1.9,-1.2 l -2.6,0 0,2.5 2.6,0 c 1.3,0 1.9,-0.4 1.9,-1.3 l 0,0 z m -1.5,5 -3,0 0,2.7 3,0 c 1.3,0 2,-0.5 2,-1.3 l 0,-0.1 c 0,-0.7 -0.7,-1.3 -2,-1.3 z"
           inkscape:connector-curvature="0" /><path
           id="path586"
           d="m 687.7,129.8 15.4,0 0,5 -9.5,0 0,1.8 8.8,0 0,4.4 -8.8,0 0,2 9.6,0 0,5 -15.5,0 0,-18.2 z"
           inkscape:connector-curvature="0" /><path
           id="path588"
           d="m 709.4,134.9 -5.3,0 0,-5.1 16.7,0 0,5.1 -5.3,0 0,12.9 -6,0 0,-12.9 z"
           inkscape:connector-curvature="0" /><path
           id="path590"
           d="m 726.8,134.9 -5.3,0 0,-5.1 16.7,0 0,5.1 -5.3,0 0,12.9 -6,0 0,-12.9 z"
           inkscape:connector-curvature="0" /><path
           id="path592"
           d="m 739.5,129.8 15.4,0 0,5 -9.5,0 0,1.8 8.8,0 0,4.4 -8.8,0 0,2 9.6,0 0,5 -15.5,0 0,-18.2 z"
           inkscape:connector-curvature="0" /><path
           id="path594"
           d="m 756.6,129.8 8.8,0 c 3.2,0 5.2,0.8 6.5,2.1 1.1,1.1 1.7,2.4 1.7,4.3 l 0,0.1 c 0,2.6 -1.4,4.5 -3.6,5.5 l 4.2,6.1 -6.9,0 -3.4,-5.2 -1.3,0 0,5.2 -6,0 0,-18.1 z m 8.7,8.6 c 1.4,0 2.3,-0.6 2.3,-1.8 l 0,-0.1 c 0,-1.2 -0.9,-1.7 -2.3,-1.7 l -2.6,0 0,3.5 2.6,0 z"
           inkscape:connector-curvature="0" /><g
           id="g596"><path
             id="path598"
             d="m 604.2,152.9 9.6,0 0,10.1 8.8,0 0,-10.2 9.6,0 0,28.8 -9.6,0 0,-10.3 -8.8,0 0,10.3 -9.6,0 0,-28.7 z"
             inkscape:connector-curvature="0" /><path
             id="path600"
             d="m 645.6,152.7 9.5,0 12.1,29 -10.4,0 -1.5,-3.9 -10.1,0 -1.5,3.9 -10.3,0 12.2,-29 z m 7.3,18.3 -2.6,-7 -2.6,7 5.2,0 z"
             inkscape:connector-curvature="0" /><path
             id="path602"
             d="m 668.4,152.9 9.6,0 0,20.6 13.5,0 0,8.2 -23.2,0 0,-28.8 z"
             inkscape:connector-curvature="0" /><path
             id="path604"
             d="m 686.9,152.9 10.8,0 5.6,16.2 5.6,-16.2 10.6,0 -11.7,29 -9.2,0 -11.7,-29 z"
             inkscape:connector-curvature="0" /><path
             id="path606"
             d="m 720.6,152.9 24.6,0 0,7.9 -15.1,0 0,2.9 14.1,0 0,7 -14.1,0 0,3.1 15.3,0 0,7.9 -24.8,0 0,-28.8 z"
             inkscape:connector-curvature="0" /><path
             id="path608"
             d="m 745.6,177.3 5.1,-6.1 c 3.1,2.4 6.7,3.4 10.1,3.4 1.7,0 2.5,-0.5 2.5,-1.2 l 0,-0.1 c 0,-0.8 -0.9,-1.3 -4,-1.9 -6.5,-1.3 -12.1,-3.2 -12.1,-9.3 l 0,-0.1 c 0,-5.5 4.3,-9.7 12.2,-9.7 5.6,0 9.7,1.3 13,3.9 l -4.7,6.5 c -2.7,-2 -6,-2.8 -8.6,-2.8 -1.4,0 -2.1,0.5 -2.1,1.2 l 0,0.1 c 0,0.8 0.8,1.3 3.8,1.9 7.4,1.4 12.3,3.5 12.3,9.3 l 0,0.1 c 0,6 -5,9.7 -12.7,9.7 -5.9,0 -11.1,-1.7 -14.8,-4.9 z"
             inkscape:connector-curvature="0" /></g></g><g
         id="g610"><path
           id="path612"
           d="m 601.7,134.7 0,0 c 0,-5.3 4.3,-9.5 9.9,-9.5 5.6,0 9.8,4.1 9.8,9.4 l 0,0.1 c 0,5.2 -4.3,9.4 -9.9,9.4 -5.5,0 -9.8,-4.2 -9.8,-9.4 z m 13.6,0 0,0 c 0,-2.2 -1.5,-4.1 -3.8,-4.1 -2.3,0 -3.7,1.9 -3.7,4 l 0,0.1 c 0,2.1 1.5,4.1 3.8,4.1 2.3,-0.1 3.7,-2 3.7,-4.1 z"
           inkscape:connector-curvature="0"
           style="fill:#ffffff" /><path
           id="path614"
           d="m 622.9,135.6 0,-10 6.1,0 0,9.9 c 0,2.2 1.2,3.2 2.8,3.2 1.6,0 2.8,-0.9 2.8,-3.1 l 0,-10 6.1,0 0,9.8 c 0,6.2 -3.6,8.6 -9,8.6 -5.3,0 -8.8,-2.4 -8.8,-8.4 z"
           inkscape:connector-curvature="0"
           style="fill:#ffffff" /><path
           id="path616"
           d="m 642.7,125.6 8.8,0 c 3.2,0 5.2,0.8 6.5,2.1 1.1,1.1 1.7,2.4 1.7,4.3 l 0,0.1 c 0,2.6 -1.4,4.5 -3.6,5.5 l 4.2,6.1 -6.9,0 -3.4,-5.2 -1.3,0 0,5.2 -6,0 0,-18.1 z m 8.6,8.6 c 1.4,0 2.3,-0.6 2.3,-1.8 l 0,-0.1 c 0,-1.2 -0.9,-1.7 -2.3,-1.7 l -2.6,0 0,3.5 2.6,0 z"
           inkscape:connector-curvature="0"
           style="fill:#ffffff" /><path
           id="path618"
           d="m 667.7,125.6 10.1,0 c 2.5,0 4.1,0.6 5.1,1.6 0.6,0.6 1.1,1.6 1.1,2.8 l 0,0.1 c 0,2.1 -1.3,3.5 -3.2,4.1 2.3,0.7 3.8,1.9 3.8,4.4 l 0,0.1 c 0,2.9 -2.4,5 -6.9,5 l -10,0 0,-18.1 z m 10.4,5.8 c 0,-0.8 -0.6,-1.2 -1.9,-1.2 l -2.6,0 0,2.5 2.6,0 c 1.3,0 1.9,-0.4 1.9,-1.3 l 0,0 z m -1.5,5 -3,0 0,2.7 3,0 c 1.3,0 2,-0.5 2,-1.3 l 0,-0.1 c -0.1,-0.7 -0.7,-1.3 -2,-1.3 z"
           inkscape:connector-curvature="0"
           style="fill:#ffffff" /><path
           id="path620"
           d="m 685.9,125.6 15.4,0 0,5 -9.5,0 0,1.8 8.8,0 0,4.4 -8.8,0 0,2 9.6,0 0,5 -15.5,0 0,-18.2 z"
           inkscape:connector-curvature="0"
           style="fill:#ffffff" /><path
           id="path622"
           d="m 707.7,130.7 -5.3,0 0,-5.1 16.6,0 0,5.1 -5.3,0 0,12.9 -6,0 0,-12.9 z"
           inkscape:connector-curvature="0"
           style="fill:#ffffff" /><path
           id="path624"
           d="m 725,130.7 -5.3,0 0,-5.1 16.7,0 0,5.1 -5.4,0 0,12.9 -6,0 0,-12.9 z"
           inkscape:connector-curvature="0"
           style="fill:#ffffff" /><path
           id="path626"
           d="m 737.7,125.6 15.4,0 0,5 -9.5,0 0,1.8 8.8,0 0,4.4 -8.8,0 0,2 9.6,0 0,5 -15.5,0 0,-18.2 z"
           inkscape:connector-curvature="0"
           style="fill:#ffffff" /><path
           id="path628"
           d="m 754.9,125.6 8.8,0 c 3.2,0 5.2,0.8 6.5,2.1 1.1,1.1 1.7,2.4 1.7,4.3 l 0,0.1 c 0,2.6 -1.4,4.5 -3.6,5.5 l 4.2,6.1 -6.9,0 -3.4,-5.2 -1.3,0 0,5.2 -6,0 0,-18.1 z m 8.6,8.6 c 1.4,0 2.3,-0.6 2.3,-1.8 l 0,-0.1 c 0,-1.2 -0.9,-1.7 -2.3,-1.7 l -2.6,0 0,3.5 2.6,0 z"
           inkscape:connector-curvature="0"
           style="fill:#ffffff" /><g
           id="g630"><path
             id="path632"
             d="m 602.4,148.7 9.6,0 0,10.2 8.8,0 0,-10.2 9.6,0 0,28.8 -9.6,0 0,-10.3 -8.8,0 0,10.3 -9.6,0 0,-28.8 z"
             inkscape:connector-curvature="0"
             style="fill:#ffffff" /><path
             id="path634"
             d="m 643.8,148.5 9.5,0 12.1,29 -10.4,0 -1.5,-3.9 -10.1,0 -1.5,3.9 -10.3,0 12.2,-29 z m 7.3,18.3 -2.6,-7 -2.6,7 5.2,0 z"
             inkscape:connector-curvature="0"
             style="fill:#ffffff" /><path
             id="path636"
             d="m 666.7,148.7 9.6,0 0,20.6 13.5,0 0,8.2 -23.2,0 0,-28.8 z"
             inkscape:connector-curvature="0"
             style="fill:#ffffff" /><path
             id="path638"
             d="m 685.1,148.7 10.8,0 5.6,16.2 5.6,-16.2 10.6,0 -11.7,29 -9.2,0 -11.7,-29 z"
             inkscape:connector-curvature="0"
             style="fill:#ffffff" /><path
             id="path640"
             d="m 718.9,148.7 24.6,0 0,7.9 -15.1,0 0,2.9 14.1,0 0,7 -14.1,0 0,3.1 15.3,0 0,7.9 -24.8,0 0,-28.8 z"
             inkscape:connector-curvature="0"
             style="fill:#ffffff" /><path
             id="path642"
             d="m 743.8,173.1 5.1,-6.1 c 3.1,2.4 6.7,3.4 10.1,3.4 1.7,0 2.5,-0.5 2.5,-1.2 l 0,-0.1 c 0,-0.8 -0.9,-1.3 -4,-1.9 -6.5,-1.3 -12.1,-3.2 -12.1,-9.3 l 0,-0.1 c 0,-5.5 4.3,-9.7 12.2,-9.7 5.6,0 9.7,1.3 13,3.9 l -4.7,6.5 c -2.7,-2 -6,-2.8 -8.6,-2.8 -1.4,0 -2.1,0.5 -2.1,1.2 l 0,0.1 c 0,0.8 0.8,1.3 3.8,1.9 7.4,1.4 12.3,3.5 12.3,9.3 l 0,0.1 c 0,6 -5,9.7 -12.7,9.7 -5.8,0 -11.1,-1.6 -14.8,-4.9 z"
             inkscape:connector-curvature="0"
             style="fill:#ffffff" /></g></g></g></g><rect
     x="55.1"
     y="194"
     fill="none"
     width="260"
     height="83.3"
     id="rect644" /><g
     transform="translate(-1.3e-5,1.2e-5)"
     id="SouthPole-6"
     inkscape:label="#g4477"><rect
       style="fill:#ffffff"
       id="rect53-6"
       height="12.8"
       width="19.4"
       transform="matrix(0.8387,-0.5446,0.5446,0.8387,-120.5334,268.3687)"
       y="331.29999"
       x="383.10001" /><rect
       style="fill:#c9c9c9"
       id="rect55-1"
       height="11.9"
       width="19.4"
       transform="matrix(0.8387,-0.5445,0.5445,0.8387,-115.9678,263.0084)"
       y="321.29999"
       x="376.29999" /></g><g
     transform="translate(-3e-6,2e-6)"
     id="NorthPoleD"
     inkscape:label="#g4473"><rect
       style="fill:#ffffff"
       id="rect49-8"
       height="12.8"
       width="19.4"
       transform="matrix(0.8387,-0.5446,0.5446,0.8387,-96.9062,240.7148)"
       y="277.5"
       x="348.20001" /><rect
       style="fill:#c9c9c9"
       id="rect51-5"
       height="11.9"
       width="19.4"
       transform="matrix(0.8387,-0.5445,0.5445,0.8387,-92.3415,235.3546)"
       y="267.60001"
       x="341.5" /></g></svg>